<?xml version="1.0" encoding="UTF-8" standalone="no"?>
<!-- Created with Inkscape (http://www.inkscape.org/) -->

<svg
   xmlns:dc="http://purl.org/dc/elements/1.1/"
   xmlns:cc="http://creativecommons.org/ns#"
   xmlns:rdf="http://www.w3.org/1999/02/22-rdf-syntax-ns#"
   xmlns:svg="http://www.w3.org/2000/svg"
   xmlns="http://www.w3.org/2000/svg"
   xmlns:sodipodi="http://sodipodi.sourceforge.net/DTD/sodipodi-0.dtd"
   xmlns:inkscape="http://www.inkscape.org/namespaces/inkscape"
   width="4759.75"
   height="1176.4117"
   id="svg2"
   version="1.1"
   inkscape:version="0.48.5 r10040"
   sodipodi:docname="compiler.svg">
  <defs
     id="defs4">
    <marker
       inkscape:stockid="Arrow1Send"
       orient="auto"
       refY="0"
       refX="0"
       id="Arrow1Send"
       style="overflow:visible">
      <path
         id="path3813"
         d="M 0,0 5,-5 -12.5,0 5,5 0,0 z"
         style="fill-rule:evenodd;stroke:#000000;stroke-width:1pt"
         transform="matrix(-0.2,0,0,-0.2,-1.2,0)"
         inkscape:connector-curvature="0" />
    </marker>
    <marker
       inkscape:stockid="Arrow1Mend"
       orient="auto"
       refY="0"
       refX="0"
       id="Arrow1Mend"
       style="overflow:visible">
      <path
         id="path3807"
         d="M 0,0 5,-5 -12.5,0 5,5 0,0 z"
         style="fill-rule:evenodd;stroke:#000000;stroke-width:1pt"
         transform="matrix(-0.4,0,0,-0.4,-4,0)"
         inkscape:connector-curvature="0" />
    </marker>
    <marker
       inkscape:stockid="Arrow1Lend"
       orient="auto"
       refY="0"
       refX="0"
       id="Arrow1Lend"
       style="overflow:visible">
      <path
         id="path3801"
         d="M 0,0 5,-5 -12.5,0 5,5 0,0 z"
         style="fill-rule:evenodd;stroke:#000000;stroke-width:1pt"
         transform="matrix(-0.8,0,0,-0.8,-10,0)"
         inkscape:connector-curvature="0" />
    </marker>
    <marker
       inkscape:stockid="Arrow1Mend"
       orient="auto"
       refY="0"
       refX="0"
       id="Arrow1Mend-6"
       style="overflow:visible">
      <path
         inkscape:connector-curvature="0"
         id="path3807-5"
         d="M 0,0 5,-5 -12.5,0 5,5 0,0 z"
         style="fill-rule:evenodd;stroke:#000000;stroke-width:1pt"
         transform="matrix(-0.4,0,0,-0.4,-4,0)" />
    </marker>
    <marker
       inkscape:stockid="Arrow1Mend"
       orient="auto"
       refY="0"
       refX="0"
       id="Arrow1Mend-0"
       style="overflow:visible">
      <path
         inkscape:connector-curvature="0"
         id="path3807-55"
         d="M 0,0 5,-5 -12.5,0 5,5 0,0 z"
         style="fill-rule:evenodd;stroke:#000000;stroke-width:1pt"
         transform="matrix(-0.4,0,0,-0.4,-4,0)" />
    </marker>
    <marker
       inkscape:stockid="Arrow1Mend"
       orient="auto"
       refY="0"
       refX="0"
       id="marker4497"
       style="overflow:visible">
      <path
         inkscape:connector-curvature="0"
         id="path4499"
         d="M 0,0 5,-5 -12.5,0 5,5 0,0 z"
         style="fill-rule:evenodd;stroke:#000000;stroke-width:1pt"
         transform="matrix(-0.4,0,0,-0.4,-4,0)" />
    </marker>
    <marker
       inkscape:stockid="Arrow1Mend"
       orient="auto"
       refY="0"
       refX="0"
       id="Arrow1Mend-8"
       style="overflow:visible">
      <path
         inkscape:connector-curvature="0"
         id="path3807-2"
         d="M 0,0 5,-5 -12.5,0 5,5 0,0 z"
         style="fill-rule:evenodd;stroke:#000000;stroke-width:1pt"
         transform="matrix(-0.4,0,0,-0.4,-4,0)" />
    </marker>
    <marker
       inkscape:stockid="Arrow1Mend"
       orient="auto"
       refY="0"
       refX="0"
       id="marker4622"
       style="overflow:visible">
      <path
         inkscape:connector-curvature="0"
         id="path4624"
         d="M 0,0 5,-5 -12.5,0 5,5 0,0 z"
         style="fill-rule:evenodd;stroke:#000000;stroke-width:1pt"
         transform="matrix(-0.4,0,0,-0.4,-4,0)" />
    </marker>
    <marker
       inkscape:stockid="Arrow1Mend"
       orient="auto"
       refY="0"
       refX="0"
       id="Arrow1Mend-9"
       style="overflow:visible">
      <path
         inkscape:connector-curvature="0"
         id="path3807-20"
         d="M 0,0 5,-5 -12.5,0 5,5 0,0 z"
         style="fill-rule:evenodd;stroke:#000000;stroke-width:1pt"
         transform="matrix(-0.4,0,0,-0.4,-4,0)" />
    </marker>
    <marker
       inkscape:stockid="Arrow1Mend"
       orient="auto"
       refY="0"
       refX="0"
       id="marker4687"
       style="overflow:visible">
      <path
         inkscape:connector-curvature="0"
         id="path4689"
         d="M 0,0 5,-5 -12.5,0 5,5 0,0 z"
         style="fill-rule:evenodd;stroke:#000000;stroke-width:1pt"
         transform="matrix(-0.4,0,0,-0.4,-4,0)" />
    </marker>
    <marker
       inkscape:stockid="Arrow1Mend"
       orient="auto"
       refY="0"
       refX="0"
       id="Arrow1Mend-83"
       style="overflow:visible">
      <path
         inkscape:connector-curvature="0"
         id="path3807-6"
         d="M 0,0 5,-5 -12.5,0 5,5 0,0 z"
         style="fill-rule:evenodd;stroke:#000000;stroke-width:1pt"
         transform="matrix(-0.4,0,0,-0.4,-4,0)" />
    </marker>
    <marker
       inkscape:stockid="Arrow1Mend"
       orient="auto"
       refY="0"
       refX="0"
       id="marker4802"
       style="overflow:visible">
      <path
         inkscape:connector-curvature="0"
         id="path4804"
         d="M 0,0 5,-5 -12.5,0 5,5 0,0 z"
         style="fill-rule:evenodd;stroke:#000000;stroke-width:1pt"
         transform="matrix(-0.4,0,0,-0.4,-4,0)" />
    </marker>
    <marker
       inkscape:stockid="Arrow1Mend"
       orient="auto"
       refY="0"
       refX="0"
       id="Arrow1Mend-1"
       style="overflow:visible">
      <path
         inkscape:connector-curvature="0"
         id="path3807-1"
         d="M 0,0 5,-5 -12.5,0 5,5 0,0 z"
         style="fill-rule:evenodd;stroke:#000000;stroke-width:1pt"
         transform="matrix(-0.4,0,0,-0.4,-4,0)" />
    </marker>
    <marker
       inkscape:stockid="Arrow1Mend"
       orient="auto"
       refY="0"
       refX="0"
       id="marker4869"
       style="overflow:visible">
      <path
         inkscape:connector-curvature="0"
         id="path4871"
         d="M 0,0 5,-5 -12.5,0 5,5 0,0 z"
         style="fill-rule:evenodd;stroke:#000000;stroke-width:1pt"
         transform="matrix(-0.4,0,0,-0.4,-4,0)" />
    </marker>
    <marker
       inkscape:stockid="Arrow1Mend"
       orient="auto"
       refY="0"
       refX="0"
       id="marker4869-1"
       style="overflow:visible">
      <path
         inkscape:connector-curvature="0"
         id="path4871-1"
         d="M 0,0 5,-5 -12.5,0 5,5 0,0 z"
         style="fill-rule:evenodd;stroke:#000000;stroke-width:1pt"
         transform="matrix(-0.4,0,0,-0.4,-4,0)" />
    </marker>
    <marker
       inkscape:stockid="Arrow1Mend"
       orient="auto"
       refY="0"
       refX="0"
       id="marker4869-5"
       style="overflow:visible">
      <path
         inkscape:connector-curvature="0"
         id="path4871-2"
         d="M 0,0 5,-5 -12.5,0 5,5 0,0 z"
         style="fill-rule:evenodd;stroke:#000000;stroke-width:1pt"
         transform="matrix(-0.4,0,0,-0.4,-4,0)" />
    </marker>
    <marker
       inkscape:stockid="Arrow1Mend"
       orient="auto"
       refY="0"
       refX="0"
       id="marker4869-55"
       style="overflow:visible">
      <path
         inkscape:connector-curvature="0"
         id="path4871-5"
         d="M 0,0 5,-5 -12.5,0 5,5 0,0 z"
         style="fill-rule:evenodd;stroke:#000000;stroke-width:1pt"
         transform="matrix(-0.4,0,0,-0.4,-4,0)" />
    </marker>
    <marker
       inkscape:stockid="Arrow1Mend"
       orient="auto"
       refY="0"
       refX="0"
       id="marker4869-12"
       style="overflow:visible">
      <path
         inkscape:connector-curvature="0"
         id="path4871-14"
         d="M 0,0 5,-5 -12.5,0 5,5 0,0 z"
         style="fill-rule:evenodd;stroke:#000000;stroke-width:1pt"
         transform="matrix(-0.4,0,0,-0.4,-4,0)" />
    </marker>
    <marker
       inkscape:stockid="Arrow1Mend"
       orient="auto"
       refY="0"
       refX="0"
       id="marker4869-0"
       style="overflow:visible">
      <path
         inkscape:connector-curvature="0"
         id="path4871-0"
         d="M 0,0 5,-5 -12.5,0 5,5 0,0 z"
         style="fill-rule:evenodd;stroke:#000000;stroke-width:1pt"
         transform="matrix(-0.4,0,0,-0.4,-4,0)" />
    </marker>
    <marker
       inkscape:stockid="Arrow1Mend"
       orient="auto"
       refY="0"
       refX="0"
       id="marker4869-2"
       style="overflow:visible">
      <path
         inkscape:connector-curvature="0"
         id="path4871-24"
         d="M 0,0 5,-5 -12.5,0 5,5 0,0 z"
         style="fill-rule:evenodd;stroke:#000000;stroke-width:1pt"
         transform="matrix(-0.4,0,0,-0.4,-4,0)" />
    </marker>
    <marker
       inkscape:stockid="Arrow1Mend"
       orient="auto"
       refY="0"
       refX="0"
       id="marker4869-7"
       style="overflow:visible">
      <path
         inkscape:connector-curvature="0"
         id="path4871-15"
         d="M 0,0 5,-5 -12.5,0 5,5 0,0 z"
         style="fill-rule:evenodd;stroke:#000000;stroke-width:1pt"
         transform="matrix(-0.4,0,0,-0.4,-4,0)" />
    </marker>
    <marker
       inkscape:stockid="Arrow1Mend"
       orient="auto"
       refY="0"
       refX="0"
       id="marker4869-79"
       style="overflow:visible">
      <path
         inkscape:connector-curvature="0"
         id="path4871-8"
         d="M 0,0 5,-5 -12.5,0 5,5 0,0 z"
         style="fill-rule:evenodd;stroke:#000000;stroke-width:1pt"
         transform="matrix(-0.4,0,0,-0.4,-4,0)" />
    </marker>
    <marker
       inkscape:stockid="Arrow1Mend"
       orient="auto"
       refY="0"
       refX="0"
       id="marker4869-6"
       style="overflow:visible">
      <path
         inkscape:connector-curvature="0"
         id="path4871-25"
         d="M 0,0 5,-5 -12.5,0 5,5 0,0 z"
         style="fill-rule:evenodd;stroke:#000000;stroke-width:1pt"
         transform="matrix(-0.4,0,0,-0.4,-4,0)" />
    </marker>
    <marker
       inkscape:stockid="Arrow1Mend"
       orient="auto"
       refY="0"
       refX="0"
       id="marker4869-8"
       style="overflow:visible">
      <path
         inkscape:connector-curvature="0"
         id="path4871-08"
         d="M 0,0 5,-5 -12.5,0 5,5 0,0 z"
         style="fill-rule:evenodd;stroke:#000000;stroke-width:1pt"
         transform="matrix(-0.4,0,0,-0.4,-4,0)" />
    </marker>
    <marker
       inkscape:stockid="Arrow1Mend"
       orient="auto"
       refY="0"
       refX="0"
       id="marker4869-4"
       style="overflow:visible">
      <path
         inkscape:connector-curvature="0"
         id="path4871-18"
         d="M 0,0 5,-5 -12.5,0 5,5 0,0 z"
         style="fill-rule:evenodd;stroke:#000000;stroke-width:1pt"
         transform="matrix(-0.4,0,0,-0.4,-4,0)" />
    </marker>
    <marker
       inkscape:stockid="Arrow1Mend"
       orient="auto"
       refY="0"
       refX="0"
       id="marker4869-9"
       style="overflow:visible">
      <path
         inkscape:connector-curvature="0"
         id="path4871-54"
         d="M 0,0 5,-5 -12.5,0 5,5 0,0 z"
         style="fill-rule:evenodd;stroke:#000000;stroke-width:1pt"
         transform="matrix(-0.4,0,0,-0.4,-4,0)" />
    </marker>
    <marker
       inkscape:stockid="Arrow1Mend"
       orient="auto"
       refY="0"
       refX="0"
       id="marker4869-53"
       style="overflow:visible">
      <path
         inkscape:connector-curvature="0"
         id="path4871-6"
         d="M 0,0 5,-5 -12.5,0 5,5 0,0 z"
         style="fill-rule:evenodd;stroke:#000000;stroke-width:1pt"
         transform="matrix(-0.4,0,0,-0.4,-4,0)" />
    </marker>
    <marker
       inkscape:stockid="Arrow1Mend"
       orient="auto"
       refY="0"
       refX="0"
       id="marker4869-15"
       style="overflow:visible">
      <path
         inkscape:connector-curvature="0"
         id="path4871-20"
         d="M 0,0 5,-5 -12.5,0 5,5 0,0 z"
         style="fill-rule:evenodd;stroke:#000000;stroke-width:1pt"
         transform="matrix(-0.4,0,0,-0.4,-4,0)" />
    </marker>
    <marker
       inkscape:stockid="Arrow1Mend"
       orient="auto"
       refY="0"
       refX="0"
       id="marker4869-84"
       style="overflow:visible">
      <path
         inkscape:connector-curvature="0"
         id="path4871-3"
         d="M 0,0 5,-5 -12.5,0 5,5 0,0 z"
         style="fill-rule:evenodd;stroke:#000000;stroke-width:1pt"
         transform="matrix(-0.4,0,0,-0.4,-4,0)" />
    </marker>
    <marker
       inkscape:stockid="Arrow1Mend"
       orient="auto"
       refY="0"
       refX="0"
       id="marker3322"
       style="overflow:visible">
      <path
         inkscape:connector-curvature="0"
         id="path3324"
         d="M 0,0 5,-5 -12.5,0 5,5 0,0 z"
         style="fill-rule:evenodd;stroke:#000000;stroke-width:1pt"
         transform="matrix(-0.4,0,0,-0.4,-4,0)" />
    </marker>
    <marker
       inkscape:stockid="Arrow1Mend"
       orient="auto"
       refY="0"
       refX="0"
       id="marker4869-83"
       style="overflow:visible">
      <path
         inkscape:connector-curvature="0"
         id="path4871-29"
         d="M 0,0 5,-5 -12.5,0 5,5 0,0 z"
         style="fill-rule:evenodd;stroke:#000000;stroke-width:1pt"
         transform="matrix(-0.4,0,0,-0.4,-4,0)" />
    </marker>
    <marker
       inkscape:stockid="Arrow1Mend"
       orient="auto"
       refY="0"
       refX="0"
       id="marker4869-89"
       style="overflow:visible">
      <path
         inkscape:connector-curvature="0"
         id="path4871-084"
         d="M 0,0 5,-5 -12.5,0 5,5 0,0 z"
         style="fill-rule:evenodd;stroke:#000000;stroke-width:1pt"
         transform="matrix(-0.4,0,0,-0.4,-4,0)" />
    </marker>
  </defs>
  <sodipodi:namedview
     id="base"
     pagecolor="#ffffff"
     bordercolor="#666666"
     borderopacity="1.0"
     inkscape:pageopacity="0.0"
     inkscape:pageshadow="2"
     inkscape:zoom="0.17"
     inkscape:cx="1840.2996"
     inkscape:cy="438.49592"
     inkscape:document-units="px"
     inkscape:current-layer="layer1"
     showgrid="true"
     inkscape:window-width="1600"
     inkscape:window-height="824"
     inkscape:window-x="0"
     inkscape:window-y="24"
     inkscape:window-maximized="1"
     fit-margin-top="0"
     fit-margin-left="0"
     fit-margin-right="0"
     fit-margin-bottom="0"
     showguides="true"
     inkscape:snap-global="true">
    <inkscape:grid
       type="xygrid"
       id="grid3109"
       empspacing="5"
       visible="true"
       enabled="true"
       snapvisiblegridlinesonly="true"
       originx="108.50005px"
       originy="1600.8297px" />
  </sodipodi:namedview>
  <metadata
     id="metadata7">
    <rdf:RDF>
      <cc:Work
         rdf:about="">
        <dc:format>image/svg+xml</dc:format>
        <dc:type
           rdf:resource="http://purl.org/dc/dcmitype/StillImage" />
        <dc:title />
      </cc:Work>
    </rdf:RDF>
  </metadata>
  <g
     inkscape:label="Layer 1"
     inkscape:groupmode="layer"
     id="layer1"
     transform="translate(1077.2813,-1299.3977)">
    <path
       sodipodi:type="arc"
       style="opacity:0.33333333;fill:#ff0000;fill-opacity:1;fill-rule:nonzero;stroke:#ff0000;stroke-width:5;stroke-linecap:round;stroke-linejoin:round;stroke-miterlimit:4;stroke-opacity:1;stroke-dasharray:none;stroke-dashoffset:0"
       id="path3116"
       sodipodi:cx="800"
       sodipodi:cy="1749.511"
       sodipodi:rx="240"
       sodipodi:ry="240"
       d="m 1040,1749.511 c 0,132.5483 -107.45166,240 -240,240 -132.54834,0 -240,-107.4517 -240,-240 0,-132.5484 107.45166,-240 240,-240 132.54834,0 240,107.4516 240,240 z"
       transform="translate(-1634.7813,85.468726)" />
    <text
       xml:space="preserve"
       style="font-size:84px;font-style:normal;font-variant:normal;font-weight:normal;font-stretch:normal;text-align:start;line-height:125%;letter-spacing:0px;word-spacing:0px;writing-mode:lr-tb;text-anchor:start;fill:#000000;fill-opacity:1;stroke:none;font-family:Arial;-inkscape-font-specification:Sans"
       x="-974.78119"
       y="1814.9797"
       id="text3118"
       sodipodi:linespacing="125%"><tspan
         sodipodi:role="line"
         id="tspan3120"
         x="-974.78119"
         y="1814.9797">Domino</tspan><tspan
         sodipodi:role="line"
         x="-974.78119"
         y="1919.9797"
         id="tspan3122">Code</tspan></text>
    <rect
       style="opacity:0.33333333;fill:#0000ff;fill-opacity:1;fill-rule:nonzero;stroke:#ff0000;stroke-width:5;stroke-linecap:round;stroke-linejoin:round;stroke-miterlimit:4;stroke-opacity:1;stroke-dasharray:none;stroke-dashoffset:0"
       id="rect3140"
       width="560"
       height="480"
       x="-488.78125"
       y="1594.9797"
       ry="79.220573" />
    <text
       xml:space="preserve"
       style="font-size:84px;font-style:normal;font-variant:normal;font-weight:normal;font-stretch:normal;text-align:start;line-height:125%;letter-spacing:0px;word-spacing:0px;writing-mode:lr-tb;text-anchor:start;fill:#000000;fill-opacity:1;stroke:none;font-family:Arial;-inkscape-font-specification:Sans"
       x="-464.78125"
       y="1834.9797"
       id="text3118-9"
       sodipodi:linespacing="125%"><tspan
         sodipodi:role="line"
         x="-464.78125"
         y="1834.9797"
         id="tspan3122-2">Normalization</tspan><tspan
         sodipodi:role="line"
         x="-464.78125"
         y="1939.9797"
         id="tspan3535">(4.1)</tspan></text>
    <path
       style="fill:none;stroke:#000000;stroke-width:12.87937355;stroke-linecap:butt;stroke-linejoin:miter;stroke-miterlimit:4;stroke-opacity:1;stroke-dasharray:none;marker-end:url(#marker4869)"
       d="m -648.78125,1834.9797 160,0"
       id="path4928-8-7-2"
       inkscape:connector-curvature="0"
       sodipodi:nodetypes="cc" />
    <path
       sodipodi:type="arc"
       style="opacity:0.33333333;fill:#ff0000;fill-opacity:1;fill-rule:nonzero;stroke:#ff0000;stroke-width:5;stroke-linecap:round;stroke-linejoin:round;stroke-miterlimit:4;stroke-opacity:1;stroke-dasharray:none;stroke-dashoffset:0"
       id="path3116-0"
       sodipodi:cx="800"
       sodipodi:cy="1749.511"
       sodipodi:rx="240"
       sodipodi:ry="240"
       d="m 1040,1749.511 c 0,132.5483 -107.45166,240 -240,240 -132.54834,0 -240,-107.4517 -240,-240 0,-132.5484 107.45166,-240 240,-240 132.54834,0 240,107.4516 240,240 z"
       transform="translate(-314.78125,85.468726)" />
    <text
       xml:space="preserve"
       style="font-size:84px;font-style:normal;font-variant:normal;font-weight:normal;font-stretch:normal;text-align:start;line-height:125%;letter-spacing:0px;word-spacing:0px;writing-mode:lr-tb;text-anchor:start;fill:#000000;fill-opacity:1;stroke:none;font-family:Arial;-inkscape-font-specification:Sans"
       x="305.21893"
       y="1814.9797"
       id="text3118-8"
       sodipodi:linespacing="125%"><tspan
         sodipodi:role="line"
         x="305.21893"
         y="1814.9797"
         id="tspan3122-3">3-address</tspan><tspan
         sodipodi:role="line"
         x="305.21893"
         y="1919.9797"
         id="tspan3221">Code</tspan></text>
    <path
       style="fill:none;stroke:#000000;stroke-width:12.87937355;stroke-linecap:butt;stroke-linejoin:miter;stroke-miterlimit:4;stroke-opacity:1;stroke-dasharray:none;marker-end:url(#marker4869)"
       d="m 79.21875,1834.9797 152,0"
       id="path4928-8-7-2-6"
       inkscape:connector-curvature="0"
       sodipodi:nodetypes="cc" />
    <path
       style="fill:none;stroke:#000000;stroke-width:12.87937355;stroke-linecap:butt;stroke-linejoin:miter;stroke-miterlimit:4;stroke-opacity:1;stroke-dasharray:none;marker-end:url(#marker4869)"
       d="m 747.2187,1834.9797 124.00005,0"
       id="path4928-8-7-2-6-9"
       inkscape:connector-curvature="0"
       sodipodi:nodetypes="cc" />
    <rect
       style="opacity:0.33333333;fill:#0000ff;fill-opacity:1;fill-rule:nonzero;stroke:#ff0000;stroke-width:4.22577095;stroke-linecap:round;stroke-linejoin:round;stroke-miterlimit:4;stroke-opacity:1;stroke-dasharray:none;stroke-dashoffset:0"
       id="rect3140-1"
       width="400"
       height="480"
       x="901.21881"
       y="1594.9797"
       ry="79.220573" />
    <text
       xml:space="preserve"
       style="font-size:84px;font-style:normal;font-variant:normal;font-weight:normal;font-stretch:normal;text-align:start;line-height:125%;letter-spacing:0px;word-spacing:0px;writing-mode:lr-tb;text-anchor:start;fill:#000000;fill-opacity:1;stroke:none;font-family:Arial;-inkscape-font-specification:Sans"
       x="927.21881"
       y="1834.9797"
       id="text3118-9-1"
       sodipodi:linespacing="125%"><tspan
         sodipodi:role="line"
         x="927.21881"
         y="1834.9797"
         id="tspan3122-2-3">Pipelining</tspan><tspan
         sodipodi:role="line"
         x="927.21881"
         y="1939.9797"
         id="tspan3537">(4.2)</tspan></text>
    <path
       sodipodi:type="arc"
       style="opacity:0.33333333;fill:#ff0000;fill-opacity:1;fill-rule:nonzero;stroke:#ff0000;stroke-width:5;stroke-linecap:round;stroke-linejoin:round;stroke-miterlimit:4;stroke-opacity:1;stroke-dasharray:none;stroke-dashoffset:0"
       id="path3116-0-2"
       sodipodi:cx="800"
       sodipodi:cy="1749.511"
       sodipodi:rx="240"
       sodipodi:ry="240"
       d="m 1040,1749.511 c 0,132.5483 -107.45166,240 -240,240 -132.54834,0 -240,-107.4517 -240,-240 0,-132.5484 107.45166,-240 240,-240 132.54834,0 240,107.4516 240,240 z"
       transform="matrix(1.3333333,0,0,1.3333335,764.5521,-497.70188)" />
    <text
       xml:space="preserve"
       style="font-size:84px;font-style:normal;font-variant:normal;font-weight:normal;font-stretch:normal;text-align:start;line-height:125%;letter-spacing:0px;word-spacing:0px;writing-mode:lr-tb;text-anchor:start;fill:#000000;fill-opacity:1;stroke:none;font-family:Arial;-inkscape-font-specification:Sans"
       x="1605.2188"
       y="1660.9797"
       id="text3118-8-7"
       sodipodi:linespacing="125%"><tspan
         sodipodi:role="line"
         x="1605.2188"
         y="1660.9797"
         id="tspan3221-5">Codelet</tspan><tspan
         sodipodi:role="line"
         x="1605.2188"
         y="1765.9797"
         id="tspan3359">pipeline for</tspan><tspan
         sodipodi:role="line"
         x="1605.2188"
         y="1870.9797"
         id="tspan3361">Pipelined</tspan><tspan
         sodipodi:role="line"
         x="1605.2188"
         y="1975.9797"
         id="tspan3363">Virtual Switch</tspan><tspan
         sodipodi:role="line"
         x="1605.2188"
         y="2080.9797"
         id="tspan3365">Machine</tspan></text>
    <path
       style="fill:none;stroke:#000000;stroke-width:12.87937355;stroke-linecap:butt;stroke-linejoin:miter;stroke-miterlimit:4;stroke-opacity:1;stroke-dasharray:none;marker-end:url(#marker4869)"
       d="m 1325.2188,1834.9798 152,0"
       id="path4928-8-7-2-6-92"
       inkscape:connector-curvature="0"
       sodipodi:nodetypes="cc" />
    <path
       style="fill:none;stroke:#000000;stroke-width:12.87937355;stroke-linecap:butt;stroke-linejoin:miter;stroke-miterlimit:4;stroke-opacity:1;stroke-dasharray:none;marker-end:url(#marker4869)"
       d="m 2151.2188,1834.9797 160,0"
       id="path4928-8-7-2-6-9-2"
       inkscape:connector-curvature="0"
       sodipodi:nodetypes="cc" />
    <rect
       style="opacity:0.33333333;fill:#0000ff;fill-opacity:1;fill-rule:nonzero;stroke:#ff0000;stroke-width:4.58062649;stroke-linecap:round;stroke-linejoin:round;stroke-miterlimit:4;stroke-opacity:1;stroke-dasharray:none;stroke-dashoffset:0"
       id="rect3140-1-4"
       width="470"
       height="480"
       x="2341.2188"
       y="1594.9797"
       ry="79.220573" />
    <text
       xml:space="preserve"
       style="font-size:84px;font-style:normal;font-variant:normal;font-weight:normal;font-stretch:normal;text-align:start;line-height:125%;letter-spacing:0px;word-spacing:0px;writing-mode:lr-tb;text-anchor:start;fill:#000000;fill-opacity:1;stroke:none;font-family:Arial;-inkscape-font-specification:Sans"
       x="2367.2188"
       y="1792.9797"
       id="text3118-9-1-4"
       sodipodi:linespacing="125%"><tspan
         sodipodi:role="line"
         x="2367.2188"
         y="1792.9797"
         id="tspan3122-2-3-9">Code</tspan><tspan
         sodipodi:role="line"
         x="2367.2188"
         y="1897.9797"
         id="tspan3391">Generation</tspan><tspan
         sodipodi:role="line"
         x="2367.2188"
         y="2002.9797"
         id="tspan3539">(4.3)</tspan></text>
    <path
       sodipodi:type="arc"
       style="opacity:0.33333333;fill:#ff0000;fill-opacity:1;fill-rule:nonzero;stroke:#ff0000;stroke-width:5;stroke-linecap:round;stroke-linejoin:round;stroke-miterlimit:4;stroke-opacity:1;stroke-dasharray:none;stroke-dashoffset:0"
       id="path3116-0-2-8"
       sodipodi:cx="800"
       sodipodi:cy="1749.511"
       sodipodi:rx="240"
       sodipodi:ry="240"
       d="m 1040,1749.511 c 0,132.5483 -107.45166,240 -240,240 -132.54834,0 -240,-107.4517 -240,-240 0,-132.5484 107.45166,-240 240,-240 132.54834,0 240,107.4516 240,240 z"
       transform="matrix(4.5,0,0,0.33333324,-1008.7813,1811.8096)" />
    <text
       xml:space="preserve"
       style="font-size:84px;font-style:normal;font-variant:normal;font-weight:normal;font-stretch:normal;text-align:start;line-height:125%;letter-spacing:0px;word-spacing:0px;writing-mode:lr-tb;text-anchor:start;fill:#000000;fill-opacity:1;stroke:none;font-family:Arial;-inkscape-font-specification:Sans"
       x="1671.2188"
       y="2406.9797"
       id="text3118-8-7-6"
       sodipodi:linespacing="125%"><tspan
         sodipodi:role="line"
         x="1671.2188"
         y="2406.9797"
         id="tspan3447">Computational and resource limits for PISA machine</tspan></text>
    <path
       style="fill:none;stroke:#000000;stroke-width:12.87937355;stroke-linecap:butt;stroke-linejoin:miter;stroke-miterlimit:4;stroke-opacity:1;stroke-dasharray:none;marker-end:url(#marker4869)"
       d="m 2551.2188,2314.9798 0,-240"
       id="path4928-8-7-2-6-9-2-1"
       inkscape:connector-curvature="0"
       sodipodi:nodetypes="cc" />
    <path
       sodipodi:type="arc"
       style="opacity:0.33333333;fill:#ff0000;fill-opacity:1;fill-rule:nonzero;stroke:#ff0000;stroke-width:5;stroke-linecap:round;stroke-linejoin:round;stroke-miterlimit:4;stroke-opacity:1;stroke-dasharray:none;stroke-dashoffset:0"
       id="path3116-0-2-4"
       sodipodi:cx="800"
       sodipodi:cy="1749.511"
       sodipodi:rx="240"
       sodipodi:ry="240"
       d="m 1040,1749.511 c 0,132.5483 -107.45166,240 -240,240 -132.54834,0 -240,-107.4517 -240,-240 0,-132.5484 107.45166,-240 240,-240 132.54834,0 240,107.4516 240,240 z"
       transform="matrix(1.3333333,0,0,1.3333335,2266.5521,-497.70188)" />
    <text
       xml:space="preserve"
       style="font-size:84px;font-style:normal;font-variant:normal;font-weight:normal;font-stretch:normal;text-align:start;line-height:125%;letter-spacing:0px;word-spacing:0px;writing-mode:lr-tb;text-anchor:start;fill:#000000;fill-opacity:1;stroke:none;font-family:Arial;-inkscape-font-specification:Sans"
       x="3133.2188"
       y="1694.9797"
       id="text3118-8-7-1"
       sodipodi:linespacing="125%"><tspan
         sodipodi:role="line"
         x="3133.2188"
         y="1694.9797"
         id="tspan3221-5-2">Atom</tspan><tspan
         sodipodi:role="line"
         x="3133.2188"
         y="1799.9797"
         id="tspan3359-8">pipeline for</tspan><tspan
         sodipodi:role="line"
         x="3133.2188"
         y="1904.9797"
         id="tspan3363-5">PISA</tspan><tspan
         sodipodi:role="line"
         x="3133.2188"
         y="2009.9797"
         id="tspan3365-8">machine</tspan></text>
    <path
       style="fill:none;stroke:#000000;stroke-width:12.87937355;stroke-linecap:butt;stroke-linejoin:miter;stroke-miterlimit:4;stroke-opacity:1;stroke-dasharray:none;marker-end:url(#marker4869)"
       d="m 2827.2188,1834.9796 144,1e-4"
       id="path4928-8-7-2-6-9-2-7"
       inkscape:connector-curvature="0"
       sodipodi:nodetypes="cc" />
    <rect
       style="fill:none;stroke:#ff0000;stroke-width:20;stroke-linecap:round;stroke-linejoin:round;stroke-miterlimit:4;stroke-opacity:1;stroke-dasharray:none;stroke-dashoffset:0"
       id="rect3541"
       width="3520"
       height="800"
       x="400"
       y="1429.511"
       ry="79.220573"
       transform="translate(-968.78125,5.46875)" />
    <text
       xml:space="preserve"
       style="font-size:84px;font-style:normal;font-variant:normal;font-weight:normal;font-stretch:normal;text-align:start;line-height:125%;letter-spacing:0px;word-spacing:0px;writing-mode:lr-tb;text-anchor:start;fill:#000000;fill-opacity:1;stroke:none;font-family:Arial;-inkscape-font-specification:Sans"
       x="711.21875"
       y="1370.9797"
       id="text3543"
       sodipodi:linespacing="125%"><tspan
         sodipodi:role="line"
         id="tspan3545"
         x="711.21875"
         y="1370.9797"
         style="font-size:100px">Domino compiler</tspan></text>
  </g>
</svg>
