<?xml version="1.0" encoding="UTF-8" standalone="no"?>
<!-- Generated by graphviz version 2.38.0 (20140413.2041)
 -->

<!-- Title: graph_output Pages: 1 -->

<svg
   xmlns:dc="http://purl.org/dc/elements/1.1/"
   xmlns:cc="http://creativecommons.org/ns#"
   xmlns:rdf="http://www.w3.org/1999/02/22-rdf-syntax-ns#"
   xmlns:svg="http://www.w3.org/2000/svg"
   xmlns="http://www.w3.org/2000/svg"
   xmlns:sodipodi="http://sodipodi.sourceforge.net/DTD/sodipodi-0.dtd"
   xmlns:inkscape="http://www.inkscape.org/namespaces/inkscape"
   width="1050.6047"
   height="900.45886"
   viewBox="0 0 839.97441 720.36709"
   id="svg2"
   version="1.1"
   inkscape:version="0.48.5 r10040"
   sodipodi:docname="deps.svg">
  <sodipodi:namedview
     pagecolor="#ffffff"
     bordercolor="#666666"
     borderopacity="1"
     objecttolerance="10"
     gridtolerance="10"
     guidetolerance="10"
     inkscape:pageopacity="0"
     inkscape:pageshadow="2"
     inkscape:window-width="1600"
     inkscape:window-height="824"
     id="namedview163"
     showgrid="false"
     inkscape:zoom="0.76"
     inkscape:cx="334.03209"
     inkscape:cy="416.90463"
     inkscape:window-x="0"
     inkscape:window-y="24"
     inkscape:window-maximized="1"
     inkscape:current-layer="graph0"
     fit-margin-top="0"
     fit-margin-left="0"
     fit-margin-right="0"
     fit-margin-bottom="0" />
  <metadata
     id="metadata167">
    <rdf:RDF>
      <cc:Work
         rdf:about="">
        <dc:format>image/svg+xml</dc:format>
        <dc:type
           rdf:resource="http://purl.org/dc/dcmitype/StillImage" />
        <dc:title />
      </cc:Work>
    </rdf:RDF>
  </metadata>
  <defs
     id="defs165">
    <marker
       inkscape:stockid="Arrow1Send"
       orient="auto"
       refY="0"
       refX="0"
       id="Arrow1Send"
       style="overflow:visible">
      <path
         id="path3947"
         d="M 0,0 5,-5 -12.5,0 5,5 0,0 z"
         style="fill-rule:evenodd;stroke:#000000;stroke-width:1pt"
         transform="matrix(-0.2,0,0,-0.2,-1.2,0)"
         inkscape:connector-curvature="0" />
    </marker>
    <marker
       inkscape:stockid="Arrow1Send"
       orient="auto"
       refY="0"
       refX="0"
       id="Arrow1Send-7"
       style="overflow:visible">
      <path
         inkscape:connector-curvature="0"
         id="path3947-1"
         d="M 0,0 5,-5 -12.5,0 5,5 0,0 z"
         style="fill-rule:evenodd;stroke:#000000;stroke-width:1pt"
         transform="matrix(-0.2,0,0,-0.2,-1.2,0)" />
    </marker>
    <marker
       inkscape:stockid="Arrow1Send"
       orient="auto"
       refY="0"
       refX="0"
       id="Arrow1Send-73"
       style="overflow:visible">
      <path
         inkscape:connector-curvature="0"
         id="path3947-9"
         d="M 0,0 5,-5 -12.5,0 5,5 0,0 z"
         style="fill-rule:evenodd;stroke:#000000;stroke-width:1pt"
         transform="matrix(-0.2,0,0,-0.2,-1.2,0)" />
    </marker>
    <marker
       inkscape:stockid="Arrow1Send"
       orient="auto"
       refY="0"
       refX="0"
       id="Arrow1Send-8"
       style="overflow:visible">
      <path
         inkscape:connector-curvature="0"
         id="path3947-17"
         d="M 0,0 5,-5 -12.5,0 5,5 0,0 z"
         style="fill-rule:evenodd;stroke:#000000;stroke-width:1pt"
         transform="matrix(-0.2,0,0,-0.2,-1.2,0)" />
    </marker>
    <marker
       inkscape:stockid="Arrow1Send"
       orient="auto"
       refY="0"
       refX="0"
       id="Arrow1Send-4"
       style="overflow:visible">
      <path
         inkscape:connector-curvature="0"
         id="path3947-6"
         d="M 0,0 5,-5 -12.5,0 5,5 0,0 z"
         style="fill-rule:evenodd;stroke:#000000;stroke-width:1pt"
         transform="matrix(-0.2,0,0,-0.2,-1.2,0)" />
    </marker>
    <marker
       inkscape:stockid="Arrow1Send"
       orient="auto"
       refY="0"
       refX="0"
       id="Arrow1Send-2"
       style="overflow:visible">
      <path
         inkscape:connector-curvature="0"
         id="path3947-7"
         d="M 0,0 5,-5 -12.5,0 5,5 0,0 z"
         style="fill-rule:evenodd;stroke:#000000;stroke-width:1pt"
         transform="matrix(-0.2,0,0,-0.2,-1.2,0)" />
    </marker>
    <marker
       inkscape:stockid="Arrow1Send"
       orient="auto"
       refY="0"
       refX="0"
       id="Arrow1Send-85"
       style="overflow:visible">
      <path
         inkscape:connector-curvature="0"
         id="path3947-4"
         d="M 0,0 5,-5 -12.5,0 5,5 0,0 z"
         style="fill-rule:evenodd;stroke:#000000;stroke-width:1pt"
         transform="matrix(-0.2,0,0,-0.2,-1.2,0)" />
    </marker>
    <marker
       inkscape:stockid="Arrow1Send"
       orient="auto"
       refY="0"
       refX="0"
       id="marker4560"
       style="overflow:visible">
      <path
         inkscape:connector-curvature="0"
         id="path4562"
         d="M 0,0 5,-5 -12.5,0 5,5 0,0 z"
         style="fill-rule:evenodd;stroke:#000000;stroke-width:1pt"
         transform="matrix(-0.2,0,0,-0.2,-1.2,0)" />
    </marker>
    <marker
       inkscape:stockid="Arrow1Send"
       orient="auto"
       refY="0"
       refX="0"
       id="Arrow1Send-29"
       style="overflow:visible">
      <path
         inkscape:connector-curvature="0"
         id="path3947-14"
         d="M 0,0 5,-5 -12.5,0 5,5 0,0 z"
         style="fill-rule:evenodd;stroke:#000000;stroke-width:1pt"
         transform="matrix(-0.2,0,0,-0.2,-1.2,0)" />
    </marker>
    <marker
       inkscape:stockid="Arrow1Send"
       orient="auto"
       refY="0"
       refX="0"
       id="Arrow1Send-0"
       style="overflow:visible">
      <path
         inkscape:connector-curvature="0"
         id="path3947-3"
         d="M 0,0 5,-5 -12.5,0 5,5 0,0 z"
         style="fill-rule:evenodd;stroke:#000000;stroke-width:1pt"
         transform="matrix(-0.2,0,0,-0.2,-1.2,0)" />
    </marker>
    <marker
       inkscape:stockid="Arrow1Send"
       orient="auto"
       refY="0"
       refX="0"
       id="Arrow1Send-9"
       style="overflow:visible">
      <path
         inkscape:connector-curvature="0"
         id="path3947-19"
         d="M 0,0 5,-5 -12.5,0 5,5 0,0 z"
         style="fill-rule:evenodd;stroke:#000000;stroke-width:1pt"
         transform="matrix(-0.2,0,0,-0.2,-1.2,0)" />
    </marker>
    <marker
       inkscape:stockid="Arrow1Send"
       orient="auto"
       refY="0"
       refX="0"
       id="Arrow1Send-82"
       style="overflow:visible">
      <path
         inkscape:connector-curvature="0"
         id="path3947-33"
         d="M 0,0 5,-5 -12.5,0 5,5 0,0 z"
         style="fill-rule:evenodd;stroke:#000000;stroke-width:1pt"
         transform="matrix(-0.2,0,0,-0.2,-1.2,0)" />
    </marker>
    <marker
       inkscape:stockid="Arrow1Send"
       orient="auto"
       refY="0"
       refX="0"
       id="Arrow1Send-70"
       style="overflow:visible">
      <path
         inkscape:connector-curvature="0"
         id="path3947-8"
         d="M 0,0 5,-5 -12.5,0 5,5 0,0 z"
         style="fill-rule:evenodd;stroke:#000000;stroke-width:1pt"
         transform="matrix(-0.2,0,0,-0.2,-1.2,0)" />
    </marker>
    <marker
       inkscape:stockid="Arrow1Send"
       orient="auto"
       refY="0"
       refX="0"
       id="Arrow1Send-86"
       style="overflow:visible">
      <path
         inkscape:connector-curvature="0"
         id="path3947-5"
         d="M 0,0 5,-5 -12.5,0 5,5 0,0 z"
         style="fill-rule:evenodd;stroke:#000000;stroke-width:1pt"
         transform="matrix(-0.2,0,0,-0.2,-1.2,0)" />
    </marker>
    <marker
       inkscape:stockid="Arrow1Send"
       orient="auto"
       refY="0"
       refX="0"
       id="Arrow1Send-6"
       style="overflow:visible">
      <path
         inkscape:connector-curvature="0"
         id="path3947-53"
         d="M 0,0 5,-5 -12.5,0 5,5 0,0 z"
         style="fill-rule:evenodd;stroke:#000000;stroke-width:1pt"
         transform="matrix(-0.2,0,0,-0.2,-1.2,0)" />
    </marker>
    <marker
       inkscape:stockid="Arrow1Send"
       orient="auto"
       refY="0"
       refX="0"
       id="Arrow1Send-25"
       style="overflow:visible">
      <path
         inkscape:connector-curvature="0"
         id="path3947-536"
         d="M 0,0 5,-5 -12.5,0 5,5 0,0 z"
         style="fill-rule:evenodd;stroke:#000000;stroke-width:1pt"
         transform="matrix(-0.2,0,0,-0.2,-1.2,0)" />
    </marker>
    <marker
       inkscape:stockid="Arrow1Send"
       orient="auto"
       refY="0"
       refX="0"
       id="Arrow1Send-49"
       style="overflow:visible">
      <path
         inkscape:connector-curvature="0"
         id="path3947-41"
         d="M 0,0 5,-5 -12.5,0 5,5 0,0 z"
         style="fill-rule:evenodd;stroke:#000000;stroke-width:1pt"
         transform="matrix(-0.2,0,0,-0.2,-1.2,0)" />
    </marker>
    <marker
       inkscape:stockid="Arrow1Send"
       orient="auto"
       refY="0"
       refX="0"
       id="marker4787"
       style="overflow:visible">
      <path
         inkscape:connector-curvature="0"
         id="path4789"
         d="M 0,0 5,-5 -12.5,0 5,5 0,0 z"
         style="fill-rule:evenodd;stroke:#000000;stroke-width:1pt"
         transform="matrix(-0.2,0,0,-0.2,-1.2,0)" />
    </marker>
    <marker
       inkscape:stockid="Arrow1Send"
       orient="auto"
       refY="0"
       refX="0"
       id="marker4791"
       style="overflow:visible">
      <path
         inkscape:connector-curvature="0"
         id="path4793"
         d="M 0,0 5,-5 -12.5,0 5,5 0,0 z"
         style="fill-rule:evenodd;stroke:#000000;stroke-width:1pt"
         transform="matrix(-0.2,0,0,-0.2,-1.2,0)" />
    </marker>
    <marker
       inkscape:stockid="Arrow1Send"
       orient="auto"
       refY="0"
       refX="0"
       id="marker4795"
       style="overflow:visible">
      <path
         inkscape:connector-curvature="0"
         id="path4797"
         d="M 0,0 5,-5 -12.5,0 5,5 0,0 z"
         style="fill-rule:evenodd;stroke:#000000;stroke-width:1pt"
         transform="matrix(-0.2,0,0,-0.2,-1.2,0)" />
    </marker>
    <marker
       inkscape:stockid="Arrow1Send"
       orient="auto"
       refY="0"
       refX="0"
       id="marker4799"
       style="overflow:visible">
      <path
         inkscape:connector-curvature="0"
         id="path4801"
         d="M 0,0 5,-5 -12.5,0 5,5 0,0 z"
         style="fill-rule:evenodd;stroke:#000000;stroke-width:1pt"
         transform="matrix(-0.2,0,0,-0.2,-1.2,0)" />
    </marker>
    <marker
       inkscape:stockid="Arrow1Send"
       orient="auto"
       refY="0"
       refX="0"
       id="marker4803"
       style="overflow:visible">
      <path
         inkscape:connector-curvature="0"
         id="path4805"
         d="M 0,0 5,-5 -12.5,0 5,5 0,0 z"
         style="fill-rule:evenodd;stroke:#000000;stroke-width:1pt"
         transform="matrix(-0.2,0,0,-0.2,-1.2,0)" />
    </marker>
    <marker
       inkscape:stockid="Arrow1Send"
       orient="auto"
       refY="0"
       refX="0"
       id="marker4807"
       style="overflow:visible">
      <path
         inkscape:connector-curvature="0"
         id="path4809"
         d="M 0,0 5,-5 -12.5,0 5,5 0,0 z"
         style="fill-rule:evenodd;stroke:#000000;stroke-width:1pt"
         transform="matrix(-0.2,0,0,-0.2,-1.2,0)" />
    </marker>
    <marker
       inkscape:stockid="Arrow1Send"
       orient="auto"
       refY="0"
       refX="0"
       id="marker4811"
       style="overflow:visible">
      <path
         inkscape:connector-curvature="0"
         id="path4813"
         d="M 0,0 5,-5 -12.5,0 5,5 0,0 z"
         style="fill-rule:evenodd;stroke:#000000;stroke-width:1pt"
         transform="matrix(-0.2,0,0,-0.2,-1.2,0)" />
    </marker>
    <marker
       inkscape:stockid="Arrow1Send"
       orient="auto"
       refY="0"
       refX="0"
       id="marker4815"
       style="overflow:visible">
      <path
         inkscape:connector-curvature="0"
         id="path4817"
         d="M 0,0 5,-5 -12.5,0 5,5 0,0 z"
         style="fill-rule:evenodd;stroke:#000000;stroke-width:1pt"
         transform="matrix(-0.2,0,0,-0.2,-1.2,0)" />
    </marker>
    <marker
       inkscape:stockid="Arrow1Send"
       orient="auto"
       refY="0"
       refX="0"
       id="marker4819"
       style="overflow:visible">
      <path
         inkscape:connector-curvature="0"
         id="path4821"
         d="M 0,0 5,-5 -12.5,0 5,5 0,0 z"
         style="fill-rule:evenodd;stroke:#000000;stroke-width:1pt"
         transform="matrix(-0.2,0,0,-0.2,-1.2,0)" />
    </marker>
    <marker
       inkscape:stockid="Arrow1Send"
       orient="auto"
       refY="0"
       refX="0"
       id="marker4823"
       style="overflow:visible">
      <path
         inkscape:connector-curvature="0"
         id="path4825"
         d="M 0,0 5,-5 -12.5,0 5,5 0,0 z"
         style="fill-rule:evenodd;stroke:#000000;stroke-width:1pt"
         transform="matrix(-0.2,0,0,-0.2,-1.2,0)" />
    </marker>
    <marker
       inkscape:stockid="Arrow1Send"
       orient="auto"
       refY="0"
       refX="0"
       id="marker4827"
       style="overflow:visible">
      <path
         inkscape:connector-curvature="0"
         id="path4829"
         d="M 0,0 5,-5 -12.5,0 5,5 0,0 z"
         style="fill-rule:evenodd;stroke:#000000;stroke-width:1pt"
         transform="matrix(-0.2,0,0,-0.2,-1.2,0)" />
    </marker>
    <marker
       inkscape:stockid="Arrow1Send"
       orient="auto"
       refY="0"
       refX="0"
       id="marker4831"
       style="overflow:visible">
      <path
         inkscape:connector-curvature="0"
         id="path4833"
         d="M 0,0 5,-5 -12.5,0 5,5 0,0 z"
         style="fill-rule:evenodd;stroke:#000000;stroke-width:1pt"
         transform="matrix(-0.2,0,0,-0.2,-1.2,0)" />
    </marker>
    <marker
       inkscape:stockid="Arrow1Send"
       orient="auto"
       refY="0"
       refX="0"
       id="marker4835"
       style="overflow:visible">
      <path
         inkscape:connector-curvature="0"
         id="path4837"
         d="M 0,0 5,-5 -12.5,0 5,5 0,0 z"
         style="fill-rule:evenodd;stroke:#000000;stroke-width:1pt"
         transform="matrix(-0.2,0,0,-0.2,-1.2,0)" />
    </marker>
    <marker
       inkscape:stockid="Arrow1Send"
       orient="auto"
       refY="0"
       refX="0"
       id="marker4839"
       style="overflow:visible">
      <path
         inkscape:connector-curvature="0"
         id="path4841"
         d="M 0,0 5,-5 -12.5,0 5,5 0,0 z"
         style="fill-rule:evenodd;stroke:#000000;stroke-width:1pt"
         transform="matrix(-0.2,0,0,-0.2,-1.2,0)" />
    </marker>
    <marker
       inkscape:stockid="Arrow1Send"
       orient="auto"
       refY="0"
       refX="0"
       id="Arrow1Send-3"
       style="overflow:visible">
      <path
         inkscape:connector-curvature="0"
         id="path3947-44"
         d="M 0,0 5,-5 -12.5,0 5,5 0,0 z"
         style="fill-rule:evenodd;stroke:#000000;stroke-width:1pt"
         transform="matrix(-0.2,0,0,-0.2,-1.2,0)" />
    </marker>
    <marker
       inkscape:stockid="Arrow1Send"
       orient="auto"
       refY="0"
       refX="0"
       id="Arrow1Send-705"
       style="overflow:visible">
      <path
         inkscape:connector-curvature="0"
         id="path3947-90"
         d="M 0,0 5,-5 -12.5,0 5,5 0,0 z"
         style="fill-rule:evenodd;stroke:#000000;stroke-width:1pt"
         transform="matrix(-0.2,0,0,-0.2,-1.2,0)" />
    </marker>
    <marker
       inkscape:stockid="Arrow1Send"
       orient="auto"
       refY="0"
       refX="0"
       id="Arrow1Send-5"
       style="overflow:visible">
      <path
         inkscape:connector-curvature="0"
         id="path3947-80"
         d="M 0,0 5,-5 -12.5,0 5,5 0,0 z"
         style="fill-rule:evenodd;stroke:#000000;stroke-width:1pt"
         transform="matrix(-0.2,0,0,-0.2,-1.2,0)" />
    </marker>
    <marker
       inkscape:stockid="Arrow1Send"
       orient="auto"
       refY="0"
       refX="0"
       id="Arrow1Send-738"
       style="overflow:visible">
      <path
         inkscape:connector-curvature="0"
         id="path3947-49"
         d="M 0,0 5,-5 -12.5,0 5,5 0,0 z"
         style="fill-rule:evenodd;stroke:#000000;stroke-width:1pt"
         transform="matrix(-0.2,0,0,-0.2,-1.2,0)" />
    </marker>
    <marker
       inkscape:stockid="Arrow1Send"
       orient="auto"
       refY="0"
       refX="0"
       id="Arrow1Send-88"
       style="overflow:visible">
      <path
         inkscape:connector-curvature="0"
         id="path3947-18"
         d="M 0,0 5,-5 -12.5,0 5,5 0,0 z"
         style="fill-rule:evenodd;stroke:#000000;stroke-width:1pt"
         transform="matrix(-0.2,0,0,-0.2,-1.2,0)" />
    </marker>
    <marker
       inkscape:stockid="Arrow1Send"
       orient="auto"
       refY="0"
       refX="0"
       id="marker3075"
       style="overflow:visible">
      <path
         inkscape:connector-curvature="0"
         id="path3077"
         d="M 0,0 5,-5 -12.5,0 5,5 0,0 z"
         style="fill-rule:evenodd;stroke:#000000;stroke-width:1pt"
         transform="matrix(-0.2,0,0,-0.2,-1.2,0)" />
    </marker>
    <marker
       inkscape:stockid="Arrow1Send"
       orient="auto"
       refY="0"
       refX="0"
       id="marker3079"
       style="overflow:visible">
      <path
         inkscape:connector-curvature="0"
         id="path3081"
         d="M 0,0 5,-5 -12.5,0 5,5 0,0 z"
         style="fill-rule:evenodd;stroke:#000000;stroke-width:1pt"
         transform="matrix(-0.2,0,0,-0.2,-1.2,0)" />
    </marker>
    <marker
       inkscape:stockid="Arrow1Send"
       orient="auto"
       refY="0"
       refX="0"
       id="marker3083"
       style="overflow:visible">
      <path
         inkscape:connector-curvature="0"
         id="path3085"
         d="M 0,0 5,-5 -12.5,0 5,5 0,0 z"
         style="fill-rule:evenodd;stroke:#000000;stroke-width:1pt"
         transform="matrix(-0.2,0,0,-0.2,-1.2,0)" />
    </marker>
    <marker
       inkscape:stockid="Arrow1Send"
       orient="auto"
       refY="0"
       refX="0"
       id="marker3087"
       style="overflow:visible">
      <path
         inkscape:connector-curvature="0"
         id="path3089"
         d="M 0,0 5,-5 -12.5,0 5,5 0,0 z"
         style="fill-rule:evenodd;stroke:#000000;stroke-width:1pt"
         transform="matrix(-0.2,0,0,-0.2,-1.2,0)" />
    </marker>
    <marker
       inkscape:stockid="Arrow1Send"
       orient="auto"
       refY="0"
       refX="0"
       id="marker3091"
       style="overflow:visible">
      <path
         inkscape:connector-curvature="0"
         id="path3093"
         d="M 0,0 5,-5 -12.5,0 5,5 0,0 z"
         style="fill-rule:evenodd;stroke:#000000;stroke-width:1pt"
         transform="matrix(-0.2,0,0,-0.2,-1.2,0)" />
    </marker>
    <marker
       inkscape:stockid="Arrow1Send"
       orient="auto"
       refY="0"
       refX="0"
       id="marker3095"
       style="overflow:visible">
      <path
         inkscape:connector-curvature="0"
         id="path3097"
         d="M 0,0 5,-5 -12.5,0 5,5 0,0 z"
         style="fill-rule:evenodd;stroke:#000000;stroke-width:1pt"
         transform="matrix(-0.2,0,0,-0.2,-1.2,0)" />
    </marker>
    <marker
       inkscape:stockid="Arrow1Send"
       orient="auto"
       refY="0"
       refX="0"
       id="marker3099"
       style="overflow:visible">
      <path
         inkscape:connector-curvature="0"
         id="path3101"
         d="M 0,0 5,-5 -12.5,0 5,5 0,0 z"
         style="fill-rule:evenodd;stroke:#000000;stroke-width:1pt"
         transform="matrix(-0.2,0,0,-0.2,-1.2,0)" />
    </marker>
    <marker
       inkscape:stockid="Arrow1Send"
       orient="auto"
       refY="0"
       refX="0"
       id="marker3103"
       style="overflow:visible">
      <path
         inkscape:connector-curvature="0"
         id="path3105"
         d="M 0,0 5,-5 -12.5,0 5,5 0,0 z"
         style="fill-rule:evenodd;stroke:#000000;stroke-width:1pt"
         transform="matrix(-0.2,0,0,-0.2,-1.2,0)" />
    </marker>
    <marker
       inkscape:stockid="Arrow1Send"
       orient="auto"
       refY="0"
       refX="0"
       id="Arrow1Send-1"
       style="overflow:visible">
      <path
         id="path3947-42"
         d="M 0,0 5,-5 -12.5,0 5,5 0,0 z"
         style="fill-rule:evenodd;stroke:#000000;stroke-width:1pt"
         transform="matrix(-0.2,0,0,-0.2,-1.2,0)"
         inkscape:connector-curvature="0" />
    </marker>
    <marker
       inkscape:stockid="Arrow1SendG"
       orient="auto"
       refY="0"
       refX="0"
       id="Arrow1SendG"
       style="overflow:visible">
      <path
         id="path4291"
         d="M 0,0 5,-5 -12.5,0 5,5 0,0 z"
         style="stroke:#808080;stroke-width:1pt;fill:#808080;fill-rule:evenodd"
         transform="matrix(-0.2,0,0,-0.2,-1.2,0)"
         inkscape:connector-curvature="0" />
    </marker>
    <marker
       inkscape:stockid="Arrow1Sendl"
       orient="auto"
       refY="0"
       refX="0"
       id="Arrow1Sendl"
       style="overflow:visible">
      <path
         id="path4631"
         d="M 0,0 5,-5 -12.5,0 5,5 0,0 z"
         style="stroke:#808080;stroke-width:1pt;fill:#808080;fill-rule:evenodd"
         transform="matrix(-0.2,0,0,-0.2,-1.2,0)"
         inkscape:connector-curvature="0" />
    </marker>
    <marker
       inkscape:stockid="Arrow1SendGI"
       orient="auto"
       refY="0"
       refX="0"
       id="Arrow1SendGI"
       style="overflow:visible">
      <path
         id="path4634"
         d="M 0,0 5,-5 -12.5,0 5,5 0,0 z"
         style="stroke:#808080;stroke-width:1pt;fill:#808080;fill-rule:evenodd"
         transform="matrix(-0.2,0,0,-0.2,-1.2,0)"
         inkscape:connector-curvature="0" />
    </marker>
    <marker
       inkscape:stockid="Arrow1SendH"
       orient="auto"
       refY="0"
       refX="0"
       id="Arrow1SendH"
       style="overflow:visible">
      <path
         id="path4637"
         d="M 0,0 5,-5 -12.5,0 5,5 0,0 z"
         style="stroke:#808080;stroke-width:1pt;fill:#808080;fill-rule:evenodd"
         transform="matrix(-0.2,0,0,-0.2,-1.2,0)"
         inkscape:connector-curvature="0" />
    </marker>
  </defs>
  <g
     id="graph0"
     class="graph"
     transform="translate(-60.791082,353.51882)">
    <title
       id="title5">graph_output</title>
    <!-- 18281271252100618662 -->
    <!-- 8104638048253350837 -->
    <path
       style="opacity:0.62099998;fill:#808080;fill-opacity:1;stroke:#000000;stroke-width:4;stroke-miterlimit:4;stroke-dasharray:none"
       inkscape:connector-curvature="0"
       id="path19"
       d="m 864.25588,82.044296 c 0,0 -347.33226,0 -347.33226,0 -11.26483,0 -22.52966,10.129496 -22.52966,20.258994 0,0 0,20.25899 0,20.25899 0,10.12949 11.26483,20.25899 22.52966,20.25899 0,0 347.33226,0 347.33226,0 11.26484,0 22.52967,-10.1295 22.52967,-20.25899 0,0 0,-20.25899 0,-20.25899 0,-10.129498 -11.26483,-20.258994 -22.52967,-20.258994" />
    <text
       style="font-size:23.80645752px;text-anchor:middle;opacity:0.62099998;fill:#808080;fill-opacity:1;stroke-width:2.35230303;stroke-miterlimit:4;stroke-dasharray:none;font-family:'Times,serif'"
       id="text21"
       font-size="14.00"
       y="119.53777"
       x="668.54163"
       transform="scale(1.0072335,0.9928184)" />
    <!-- 18281271252100618662&#45;&gt;8104638048253350837 -->
    <!-- 6812949046131294349 -->
    <path
       style="opacity:0.62099998;fill:#808080;fill-opacity:1;stroke:#000000;stroke-width:4;stroke-miterlimit:4;stroke-dasharray:none"
       inkscape:connector-curvature="0"
       id="path33"
       d="m 569.36979,-194.29049 c 0,0 -324.81095,0 -324.81095,0 -11.46391,0 -22.92783,10.1295 -22.92783,20.25899 0,0 0,20.25899 0,20.25899 0,10.1295 11.46392,20.25899 22.92783,20.25899 0,0 324.81095,0 324.81095,0 11.4639,0 22.92783,-10.12949 22.92783,-20.25899 0,0 0,-20.25899 0,-20.25899 0,-10.12949 -11.46393,-20.25899 -22.92783,-20.25899" />
    <!-- 18281271252100618662&#45;&gt;6812949046131294349 -->
    <g
       id="edge2"
       class="edge">
      <title
         id="title38">18281271252100618662-&gt;6812949046131294349</title>
    </g>
    <!-- 13080825001612736941 -->
    <!-- 8104638048253350837&#45;&gt;13080825001612736941 -->
    <!-- 4151992980388096987 -->
    <!-- 8104638048253350837&#45;&gt;4151992980388096987 -->
    <!-- 9793423270683058164 -->
    <path
       style="fill:#ffffff;stroke:#000000;stroke-width:4;stroke-miterlimit:4;stroke-dasharray:none"
       inkscape:connector-curvature="0"
       id="path75"
       d="m 411.58265,-88.736546 c 0,0 -323.459308,0 -323.459308,0 -10.161026,0 -20.322052,10.129495 -20.322052,20.25899 0,0 0,20.258991 0,20.258991 0,10.129495 10.161026,20.25899 20.322052,20.25899 0,0 323.459308,0 323.459308,0 10.16104,0 20.32206,-10.129495 20.32206,-20.25899 0,0 0,-20.258991 0,-20.258991 0,-10.129495 -10.16102,-20.25899 -20.32206,-20.25899" />
    <!-- 6812949046131294349&#45;&gt;9793423270683058164 -->
    <!-- 13686169344497402900 -->
    <path
       style="opacity:0.62099998;fill:#808080;fill-opacity:1;stroke:#000000;stroke-width:4;stroke-miterlimit:4;stroke-dasharray:none"
       inkscape:connector-curvature="0"
       id="path89"
       d="m 747.65375,-88.736546 c 0,0 -280.36575,0 -280.36575,0 -10.85287,0 -21.70574,10.129495 -21.70574,20.25899 0,0 0,20.258991 0,20.258991 0,10.129495 10.85287,20.25899 21.70574,20.25899 0,0 280.36575,0 280.36575,0 10.85287,0 21.70574,-10.129495 21.70574,-20.25899 0,0 0,-20.258991 0,-20.258991 0,-10.129495 -10.85287,-20.25899 -21.70574,-20.25899" />
    <text
       style="font-size:24.46487236px;text-anchor:middle;opacity:0.62099998;fill:#808080;fill-opacity:1;stroke-width:2.28899622;stroke-miterlimit:4;stroke-dasharray:none;font-family:'Times,serif'"
       id="text91"
       font-size="14.00"
       y="-53.929817"
       x="586.87701"
       transform="scale(1.0350906,0.96609903)" />
    <!-- 6812949046131294349&#45;&gt;13686169344497402900 -->
    <!-- 4151992980388096987&#45;&gt;8104638048253350837 -->
    <!-- 12723286500395325711 -->
    <path
       style="fill:#ffffff;stroke:#000000;stroke-width:4;stroke-miterlimit:4;stroke-dasharray:none"
       inkscape:connector-curvature="0"
       id="path110"
       d="m 494.27554,-2.3826036 c 0,0 -330.12094,0 -330.12094,0 -16.10346,0 -32.20693,10.1294952 -32.20693,20.2589906 0,0 0,20.25899 0,20.25899 0,10.129495 16.10347,20.258991 32.20693,20.258991 0,0 330.12094,0 330.12094,0 16.10346,0 32.20691,-10.129496 32.20691,-20.258991 0,0 0,-20.25899 0,-20.25899 0,-10.1294954 -16.10345,-20.2589906 -32.20691,-20.2589906" />
    <text
       style="font-size:24.13100243px;text-anchor:middle;stroke-width:2.32066607;stroke-miterlimit:4;stroke-dasharray:none;font-family:'Times,serif'"
       id="text112"
       font-size="14.00"
       y="34.970493"
       x="311.08255"
       transform="scale(1.0209648,0.97946565)" />
    <!-- 9793423270683058164&#45;&gt;12723286500395325711 -->
    <!-- 13686169344497402900&#45;&gt;6812949046131294349 -->
    <!-- 15027130736822862391 -->
    <path
       style="fill:#ffffff;stroke:#000000;stroke-width:4;stroke-miterlimit:4;stroke-dasharray:none"
       inkscape:connector-curvature="0"
       id="path131"
       d="m 461.30626,78.825454 c 0,0 -338.58496,0 -338.58496,0 -6.3287,0 -12.65737,21.239536 -12.65737,42.479066 0,0 0,42.47906 0,42.47906 0,21.23953 6.32867,42.47906 12.65737,42.47906 0,0 338.58496,0 338.58496,0 6.32869,0 12.65737,-21.23953 12.65737,-42.47906 0,0 0,-42.47906 0,-42.47906 0,-21.23953 -6.32868,-42.479066 -12.65737,-42.479066" />
    <text
       style="font-size:21.4237957px;text-anchor:middle;stroke-width:2.61391592;stroke-miterlimit:4;stroke-dasharray:none;font-family:'Times,serif'"
       id="text133"
       font-size="14.00"
       y="118.13529"
       x="430.53372"
       transform="scale(1.0774237,0.92813993)">
      <tspan
         id="tspan4500"
         style="font-style:normal;font-variant:normal;font-weight:normal;font-stretch:normal;stroke-width:2.61391592;stroke-miterlimit:4;stroke-dasharray:none;font-family:Arial;-inkscape-font-specification:Arial" />
    </text>
    <!-- 15027130736822862391&#45;&gt;13080825001612736941 -->
    <!-- 15027130736822862391&#45;&gt;4151992980388096987 -->
    <!-- 12723286500395325711&#45;&gt;13080825001612736941 -->
    <!-- 12723286500395325711&#45;&gt;4151992980388096987 -->
    <path
       style="fill:#ffffff;stroke:#000000;stroke-width:4;stroke-miterlimit:4;stroke-dasharray:none"
       inkscape:connector-curvature="0"
       id="path12"
       d="m 527.77393,-350.34446 c 0,0 -297.84849,0 -297.84849,0 -7.70298,0 -15.40595,19.04616 -15.40595,38.09232 0,0 0,38.09232 0,38.09232 0,19.04616 7.70297,38.09232 15.40595,38.09232 0,0 297.84849,0 297.84849,0 7.70298,0 15.40596,-19.04616 15.40596,-38.09232 0,0 0,-38.09232 0,-38.09232 0,-19.04616 -7.70298,-38.09232 -15.40596,-38.09232" />
    <text
       style="font-size:28.26245117px;text-anchor:middle;font-family:'Times,serif'"
       id="text14"
       font-size="14.00"
       y="-178.99609"
       x="595.71881"
       transform="scale(0.63595388,1.5724411)" />
    <path
       style="fill:none;stroke:#000000;stroke-width:5.84244633;stroke-linecap:butt;stroke-linejoin:miter;stroke-miterlimit:4;stroke-opacity:1;stroke-dasharray:none;marker-end:url(#Arrow1Send)"
       d="m 413.66359,-240.47753 -0.76038,38.56137"
       id="path3158-2"
       inkscape:connector-curvature="0"
       sodipodi:nodetypes="cc" />
    <path
       style="fill:none;stroke:#000000;stroke-width:5.84244633;stroke-linecap:butt;stroke-linejoin:miter;stroke-miterlimit:4;stroke-opacity:1;stroke-dasharray:none;marker-end:url(#Arrow1Send)"
       d="m 314.2599,-133.80703 -33.60581,33.30105"
       id="path3158-2-2"
       inkscape:connector-curvature="0"
       sodipodi:nodetypes="cc" />
    <path
       style="opacity:1;stroke-linejoin:miter;marker-end:url(#Arrow1Sendl);stroke-opacity:1;fill-opacity:1;stroke:#808080;stroke-linecap:butt;stroke-miterlimit:4;stroke-dasharray:none;stroke-width:5.84240007000000006;fill:#808080"
       d="m 490.80379,-134.28205 10.08995,39.57556"
       id="path3158-2-2-5"
       inkscape:connector-curvature="0"
       sodipodi:nodetypes="cc" />
    <path
       style="opacity:1;stroke-linejoin:miter;marker-end:url(#Arrow1SendG);stroke-opacity:1;fill-opacity:1;stroke:#808080;stroke-linecap:butt;stroke-miterlimit:4;stroke-dasharray:none;stroke-width:5.84240007000000006;fill:#808080"
       d="m 524.8862,-97.59036 -10.37084,-33.96742"
       id="path3158-2-2-5-5"
       inkscape:connector-curvature="0"
       sodipodi:nodetypes="cc" />
    <path
       style="fill:none;stroke:#000000;stroke-width:5.84244633;stroke-linecap:butt;stroke-linejoin:miter;stroke-miterlimit:4;stroke-opacity:1;stroke-dasharray:none;marker-end:url(#Arrow1Send)"
       d="m 277.89919,-38.340503 -0.6439,44.086858"
       id="path3158-2-2-0"
       inkscape:connector-curvature="0"
       sodipodi:nodetypes="cc" />
    <path
       style="opacity:1;stroke-linejoin:miter;marker-end:url(#Arrow1SendH);stroke-opacity:1;fill-opacity:1;stroke:#808080;stroke-linecap:butt;stroke-miterlimit:4;stroke-dasharray:none;stroke-width:5.84240007000000006;fill:#808080"
       d="m 618.89663,246.02827 -0.92478,-103.4885"
       id="path3158-2-2-5-5-2"
       inkscape:connector-curvature="0"
       sodipodi:nodetypes="cc" />
    <path
       style="fill:none;stroke:#000000;stroke-width:5.84244633;stroke-linecap:butt;stroke-linejoin:miter;stroke-miterlimit:4;stroke-opacity:1;stroke-dasharray:none;marker-end:url(#Arrow1Send)"
       d="m 476.33427,159.10527 45.83456,83.28503"
       id="path3158-1"
       inkscape:connector-curvature="0"
       sodipodi:nodetypes="cc" />
    <path
       style="fill:#ffffff;stroke:#000000;stroke-width:4;stroke-miterlimit:4;stroke-dasharray:none"
       inkscape:connector-curvature="0"
       id="path47"
       d="m 420.14918,251.36799 c 0,0 -317.51588,0 -317.51588,0 -6.287447,0 -12.57489,15.57598 -12.57489,31.15196 0,0 0,31.15196 0,31.15196 0,15.57597 6.287443,31.15195 12.57489,31.15195 0,0 317.51588,0 317.51588,0 6.28746,0 12.57489,-15.57598 12.57489,-31.15195 0,0 0,-31.15196 0,-31.15196 0,-15.57598 -6.28743,-31.15196 -12.57489,-31.15196" />
    <text
       style="font-size:20.93388748px;font-style:normal;font-variant:normal;font-weight:normal;font-stretch:normal;text-anchor:middle;stroke-width:2.67508864;stroke-miterlimit:4;stroke-dasharray:none;font-family:Arial;-inkscape-font-specification:Arial"
       id="text49"
       font-size="14.00"
       y="317.27954"
       x="290.79077"
       transform="scale(1.1331276,0.88251311)" />
    <text
       xml:space="preserve"
       style="font-size:24px;font-style:normal;font-variant:normal;font-weight:normal;font-stretch:normal;text-align:start;line-height:125%;letter-spacing:0px;word-spacing:0px;writing-mode:lr-tb;text-anchor:start;fill:#000000;fill-opacity:1;stroke:none;font-family:Arial;-inkscape-font-specification:Arial"
       x="102.87272"
       y="274.50668"
       id="text4493"
       sodipodi:linespacing="125%"><tspan
         sodipodi:role="line"
         id="tspan4495"
         x="102.87272"
         y="274.50668">pkt.next_hop = pkt.tmp2 ?</tspan><tspan
         sodipodi:role="line"
         x="102.87272"
         y="304.50668"
         id="tspan4497">                         pkt.new_hop :</tspan><tspan
         sodipodi:role="line"
         x="102.87272"
         y="334.50668"
         id="tspan4499">                         pkt.saved_hop</tspan></text>
    <path
       style="opacity:0.62099998;fill:#808080;fill-opacity:1;stroke:#000000;stroke-width:4;stroke-miterlimit:4;stroke-dasharray:none"
       inkscape:connector-curvature="0"
       id="path61"
       d="m 838.26092,252.47209 c 0,0 -361.78114,0 -361.78114,0 -6.57784,0 -13.15568,15.13751 -13.15568,30.27503 0,0 0,30.27502 0,30.27502 0,15.13751 6.57784,30.27503 13.15568,30.27503 0,0 361.78114,0 361.78114,0 6.57784,0 13.15568,-15.13752 13.15568,-30.27503 0,0 0,-30.27502 0,-30.27502 0,-15.13752 -6.57784,-30.27503 -13.15568,-30.27503" />
    <text
       style="font-size:20.55753708px;text-anchor:middle;opacity:0.62099998;fill:#808080;fill-opacity:1;stroke-width:2.72406173;stroke-miterlimit:4;stroke-dasharray:none;font-family:'Times,serif'"
       id="text63"
       font-size="14.00"
       y="312.02658"
       x="677.43671"
       transform="scale(1.1096768,0.90116332)" />
    <path
       style="fill:none;stroke:#000000;stroke-width:5.84244633;stroke-linecap:butt;stroke-linejoin:miter;stroke-miterlimit:4;stroke-opacity:1;stroke-dasharray:none;marker-end:url(#Arrow1Send)"
       d="M 526.57681,146.54835 429.49238,251.1337"
       id="path3158-1-5"
       inkscape:connector-curvature="0"
       sodipodi:nodetypes="cc" />
    <path
       style="fill:none;stroke:#000000;stroke-width:7.78791714;stroke-linecap:butt;stroke-linejoin:miter;stroke-miterlimit:4;stroke-opacity:1;stroke-dasharray:none;marker-end:url(#Arrow1Send)"
       d="m 547.80712,-298.2283 c 282.1957,114.24138 312.79774,260.694052 196.64984,373.747511"
       id="path3158-4"
       inkscape:connector-curvature="0"
       sodipodi:nodetypes="cc" />
    <path
       style="fill:none;stroke:#000000;stroke-width:5.84244633;stroke-linecap:butt;stroke-linejoin:miter;stroke-miterlimit:4;stroke-opacity:1;stroke-dasharray:none;marker-end:url(#Arrow1Send)"
       d="m 542.03248,-254.63268 c 77.12133,28.74512 69.64607,70.44674 58.98468,159.3018"
       id="path3158-3"
       inkscape:connector-curvature="0"
       sodipodi:nodetypes="cc" />
    <path
       style="fill:none;stroke:#000000;stroke-width:5.84244633;stroke-linecap:butt;stroke-linejoin:miter;stroke-miterlimit:4;stroke-opacity:1;stroke-dasharray:none;marker-end:url(#Arrow1Send)"
       d="m 296.99312,206.4664 0.85611,38.4374"
       id="path3158-1-5-3"
       inkscape:connector-curvature="0"
       sodipodi:nodetypes="cc" />
    <path
       style="fill:none;stroke:#000000;stroke-width:5.84244633;stroke-linecap:butt;stroke-linejoin:miter;stroke-miterlimit:4;stroke-opacity:1;stroke-dasharray:none;marker-end:url(#Arrow1Send)"
       d="M 131.85405,43.098124 C 64.373108,124.48531 56.773402,187.0197 157.39955,249.01065"
       id="path3158-1-5-3-5"
       inkscape:connector-curvature="0"
       sodipodi:nodetypes="cc" />
    <text
       xml:space="preserve"
       style="font-size:24px;font-style:normal;font-variant:normal;font-weight:normal;font-stretch:normal;text-align:start;line-height:125%;letter-spacing:0px;word-spacing:0px;writing-mode:lr-tb;text-anchor:start;fill:#000000;fill-opacity:1;stroke:none;font-family:Arial;-inkscape-font-specification:Arial"
       x="472.13828"
       y="274.21854"
       id="text4501"
       sodipodi:linespacing="125%"><tspan
         sodipodi:role="line"
         id="tspan4503"
         x="472.13828"
         y="274.21854">saved_hop[pkt.id] = pkt.tmp2?</tspan><tspan
         sodipodi:role="line"
         x="472.13828"
         y="304.21854"
         id="tspan4505">                                pkt.new_hop :</tspan><tspan
         sodipodi:role="line"
         x="472.13828"
         y="334.21854"
         id="tspan4507">                                pkt.saved_hop</tspan></text>
    <path
       style="fill:none;stroke:#000000;stroke-width:5.84244633;stroke-linecap:butt;stroke-linejoin:miter;stroke-miterlimit:4;stroke-opacity:1;stroke-dasharray:none;marker-end:url(#Arrow1Send)"
       d="M 127.93322,23.810366 C 42.703105,51.224172 65.283805,225.16295 68.835875,300.65751 c 3.890062,82.67812 -14.913245,66.843 401.687535,48.87414"
       id="path3158-1-5-3-5-3"
       inkscape:connector-curvature="0"
       sodipodi:nodetypes="csc" />
    <path
       style="fill:none;stroke:#000000;stroke-width:5.84244633;stroke-linecap:butt;stroke-linejoin:miter;stroke-miterlimit:4;stroke-opacity:1;stroke-dasharray:none;marker-end:url(#Arrow1Send)"
       d="m 544.46914,-321.42893 c 168.93134,-21.36654 590.25846,517.82692 178.67565,568.43486"
       id="path3158-4-1"
       inkscape:connector-curvature="0"
       sodipodi:nodetypes="cc" />
    <text
       xml:space="preserve"
       style="font-size:67.19999695px;font-style:normal;font-variant:normal;font-weight:normal;font-stretch:normal;text-align:start;line-height:125%;letter-spacing:0px;word-spacing:0px;writing-mode:lr-tb;text-anchor:start;fill:#000000;fill-opacity:1;stroke:none;font-family:Arial;-inkscape-font-specification:Sans"
       x="223.10883"
       y="-317.80362"
       id="text3169"
       sodipodi:linespacing="125%"><tspan
         sodipodi:role="line"
         id="tspan3171"
         x="223.10883"
         y="-317.80362"
         style="font-size:24px">pkt.id = hash2(pkt.sport,</tspan><tspan
         sodipodi:role="line"
         x="223.10883"
         y="-287.80362"
         id="tspan3173"
         style="font-size:24px">                        pkt.dport)</tspan><tspan
         sodipodi:role="line"
         x="223.10883"
         y="-257.80362"
         id="tspan3175"
         style="font-size:24px">             % NUM_FLOWLETS</tspan></text>
    <text
       xml:space="preserve"
       style="font-size:24px;font-style:normal;font-variant:normal;font-weight:normal;font-stretch:normal;text-align:start;line-height:125%;letter-spacing:0px;word-spacing:0px;writing-mode:lr-tb;text-anchor:start;fill:#000000;fill-opacity:1;stroke:none;font-family:Arial;-inkscape-font-specification:Arial"
       x="238.8157"
       y="-157.82422"
       id="text4425"
       sodipodi:linespacing="125%"><tspan
         sodipodi:role="line"
         id="tspan4427"
         x="238.8157"
         y="-157.82422">pkt.last_time = last_time[pkt.id]</tspan></text>
    <text
       xml:space="preserve"
       style="font-size:24px;font-style:normal;font-variant:normal;font-weight:normal;font-stretch:normal;text-align:start;line-height:125%;letter-spacing:0px;word-spacing:0px;writing-mode:lr-tb;text-anchor:start;fill:#000000;fill-opacity:1;stroke:none;font-family:Arial;-inkscape-font-specification:Arial"
       x="70.711685"
       y="-52.767471"
       id="text4467"
       sodipodi:linespacing="125%"><tspan
         sodipodi:role="line"
         id="tspan4469"
         x="70.711685"
         y="-52.767471">pkt.tmp = pkt.arrival -pkt.last_time</tspan></text>
    <text
       xml:space="preserve"
       style="font-size:24px;font-style:normal;font-variant:normal;font-weight:normal;font-stretch:normal;text-align:start;line-height:125%;letter-spacing:0px;word-spacing:0px;writing-mode:lr-tb;text-anchor:start;fill:#000000;fill-opacity:1;stroke:none;font-family:Arial;-inkscape-font-specification:Arial"
       x="456.75427"
       y="-53.489861"
       id="text4471"
       sodipodi:linespacing="125%"><tspan
         sodipodi:role="line"
         id="tspan4473"
         x="456.75427"
         y="-53.489861">last_time[pkt.id] = pkt.arrival</tspan></text>
    <text
       xml:space="preserve"
       style="font-size:24px;font-style:normal;font-variant:normal;font-weight:normal;font-stretch:normal;text-align:start;line-height:125%;letter-spacing:0px;word-spacing:0px;writing-mode:lr-tb;text-anchor:start;fill:#000000;fill-opacity:1;stroke:none;font-family:Arial;-inkscape-font-specification:Arial"
       x="140.79715"
       y="35.488464"
       id="text4475"
       sodipodi:linespacing="125%"><tspan
         sodipodi:role="line"
         id="tspan4477"
         x="140.79715"
         y="35.488464">pkt.tmp2 = pkt.tmp &gt; THRESHOLD</tspan></text>
    <text
       xml:space="preserve"
       style="font-size:24px;font-style:normal;font-variant:normal;font-weight:normal;font-stretch:normal;text-align:start;line-height:125%;letter-spacing:0px;word-spacing:0px;writing-mode:lr-tb;text-anchor:start;fill:#000000;fill-opacity:1;stroke:none;font-family:Arial;-inkscape-font-specification:Arial"
       x="119.37298"
       y="104.04986"
       id="text4479"
       sodipodi:linespacing="125%"><tspan
         sodipodi:role="line"
         id="tspan4481"
         x="119.37298"
         y="104.04986">pkt.new_hop = hash3(pkt.sport,</tspan><tspan
         sodipodi:role="line"
         x="119.37298"
         y="134.04987"
         id="tspan4483">                                    pkt.dport,</tspan><tspan
         sodipodi:role="line"
         x="119.37298"
         y="164.04987"
         id="tspan4485">                                    pkt.arrival)</tspan><tspan
         sodipodi:role="line"
         x="119.37298"
         y="194.04987"
         id="tspan4487">                         % NUM_HOPS</tspan></text>
    <text
       xml:space="preserve"
       style="font-size:24px;font-style:normal;font-variant:normal;font-weight:normal;font-stretch:normal;text-align:start;line-height:125%;letter-spacing:0px;word-spacing:0px;writing-mode:lr-tb;text-anchor:start;fill:#000000;fill-opacity:1;stroke:none;font-family:Arial;-inkscape-font-specification:Arial"
       x="504.88385"
       y="118.70417"
       id="text4489"
       sodipodi:linespacing="125%"><tspan
         sodipodi:role="line"
         id="tspan4491"
         x="504.88385"
         y="118.70417">pkt.saved_hop = saved_hop[pkt.id]</tspan></text>
    <path
       style="opacity:1;stroke-linejoin:miter;marker-end:url(#Arrow1SendGI);stroke-opacity:1;fill-opacity:1;stroke:#808080;stroke-linecap:butt;stroke-miterlimit:4;stroke-dasharray:none;stroke-width:5.84240007000000006;fill:#808080"
       d="m 579.46984,142.90755 1.18049,102.8273"
       id="path3158-2-2-5-5-2-7"
       inkscape:connector-curvature="0"
       sodipodi:nodetypes="cc" />
  </g>
</svg>
