<?xml version="1.0" encoding="UTF-8" standalone="no"?>
<!-- Generated by graphviz version 2.38.0 (20140413.2041)
 -->

<!-- Title: graph_output Pages: 1 -->

<svg
   xmlns:dc="http://purl.org/dc/elements/1.1/"
   xmlns:cc="http://creativecommons.org/ns#"
   xmlns:rdf="http://www.w3.org/1999/02/22-rdf-syntax-ns#"
   xmlns:svg="http://www.w3.org/2000/svg"
   xmlns="http://www.w3.org/2000/svg"
   xmlns:sodipodi="http://sodipodi.sourceforge.net/DTD/sodipodi-0.dtd"
   xmlns:inkscape="http://www.inkscape.org/namespaces/inkscape"
   width="867.60443"
   height="961.62292"
   viewBox="0 0 693.66289 769.29834"
   id="svg2"
   version="1.1"
   inkscape:version="0.48.5 r10040"
   sodipodi:docname="deps.svg">
  <metadata
     id="metadata167">
    <rdf:RDF>
      <cc:Work
         rdf:about="">
        <dc:format>image/svg+xml</dc:format>
        <dc:type
           rdf:resource="http://purl.org/dc/dcmitype/StillImage" />
      </cc:Work>
    </rdf:RDF>
  </metadata>
  <defs
     id="defs165">
    <marker
       inkscape:stockid="Arrow1Send"
       orient="auto"
       refY="0"
       refX="0"
       id="Arrow1Send"
       style="overflow:visible">
      <path
         id="path3947"
         d="M 0,0 5,-5 -12.5,0 5,5 0,0 z"
         style="fill-rule:evenodd;stroke:#000000;stroke-width:1pt"
         transform="matrix(-0.2,0,0,-0.2,-1.2,0)"
         inkscape:connector-curvature="0" />
    </marker>
    <marker
       inkscape:stockid="Arrow1Send"
       orient="auto"
       refY="0"
       refX="0"
       id="Arrow1Send-7"
       style="overflow:visible">
      <path
         inkscape:connector-curvature="0"
         id="path3947-1"
         d="M 0,0 5,-5 -12.5,0 5,5 0,0 z"
         style="fill-rule:evenodd;stroke:#000000;stroke-width:1pt"
         transform="matrix(-0.2,0,0,-0.2,-1.2,0)" />
    </marker>
    <marker
       inkscape:stockid="Arrow1Send"
       orient="auto"
       refY="0"
       refX="0"
       id="Arrow1Send-73"
       style="overflow:visible">
      <path
         inkscape:connector-curvature="0"
         id="path3947-9"
         d="M 0,0 5,-5 -12.5,0 5,5 0,0 z"
         style="fill-rule:evenodd;stroke:#000000;stroke-width:1pt"
         transform="matrix(-0.2,0,0,-0.2,-1.2,0)" />
    </marker>
    <marker
       inkscape:stockid="Arrow1Send"
       orient="auto"
       refY="0"
       refX="0"
       id="Arrow1Send-8"
       style="overflow:visible">
      <path
         inkscape:connector-curvature="0"
         id="path3947-17"
         d="M 0,0 5,-5 -12.5,0 5,5 0,0 z"
         style="fill-rule:evenodd;stroke:#000000;stroke-width:1pt"
         transform="matrix(-0.2,0,0,-0.2,-1.2,0)" />
    </marker>
    <marker
       inkscape:stockid="Arrow1Send"
       orient="auto"
       refY="0"
       refX="0"
       id="Arrow1Send-4"
       style="overflow:visible">
      <path
         inkscape:connector-curvature="0"
         id="path3947-6"
         d="M 0,0 5,-5 -12.5,0 5,5 0,0 z"
         style="fill-rule:evenodd;stroke:#000000;stroke-width:1pt"
         transform="matrix(-0.2,0,0,-0.2,-1.2,0)" />
    </marker>
    <marker
       inkscape:stockid="Arrow1Send"
       orient="auto"
       refY="0"
       refX="0"
       id="Arrow1Send-2"
       style="overflow:visible">
      <path
         inkscape:connector-curvature="0"
         id="path3947-7"
         d="M 0,0 5,-5 -12.5,0 5,5 0,0 z"
         style="fill-rule:evenodd;stroke:#000000;stroke-width:1pt"
         transform="matrix(-0.2,0,0,-0.2,-1.2,0)" />
    </marker>
    <marker
       inkscape:stockid="Arrow1Send"
       orient="auto"
       refY="0"
       refX="0"
       id="Arrow1Send-85"
       style="overflow:visible">
      <path
         inkscape:connector-curvature="0"
         id="path3947-4"
         d="M 0,0 5,-5 -12.5,0 5,5 0,0 z"
         style="fill-rule:evenodd;stroke:#000000;stroke-width:1pt"
         transform="matrix(-0.2,0,0,-0.2,-1.2,0)" />
    </marker>
    <marker
       inkscape:stockid="Arrow1Send"
       orient="auto"
       refY="0"
       refX="0"
       id="marker4560"
       style="overflow:visible">
      <path
         inkscape:connector-curvature="0"
         id="path4562"
         d="M 0,0 5,-5 -12.5,0 5,5 0,0 z"
         style="fill-rule:evenodd;stroke:#000000;stroke-width:1pt"
         transform="matrix(-0.2,0,0,-0.2,-1.2,0)" />
    </marker>
    <marker
       inkscape:stockid="Arrow1Send"
       orient="auto"
       refY="0"
       refX="0"
       id="Arrow1Send-29"
       style="overflow:visible">
      <path
         inkscape:connector-curvature="0"
         id="path3947-14"
         d="M 0,0 5,-5 -12.5,0 5,5 0,0 z"
         style="fill-rule:evenodd;stroke:#000000;stroke-width:1pt"
         transform="matrix(-0.2,0,0,-0.2,-1.2,0)" />
    </marker>
    <marker
       inkscape:stockid="Arrow1Send"
       orient="auto"
       refY="0"
       refX="0"
       id="Arrow1Send-0"
       style="overflow:visible">
      <path
         inkscape:connector-curvature="0"
         id="path3947-3"
         d="M 0,0 5,-5 -12.5,0 5,5 0,0 z"
         style="fill-rule:evenodd;stroke:#000000;stroke-width:1pt"
         transform="matrix(-0.2,0,0,-0.2,-1.2,0)" />
    </marker>
    <marker
       inkscape:stockid="Arrow1Send"
       orient="auto"
       refY="0"
       refX="0"
       id="Arrow1Send-9"
       style="overflow:visible">
      <path
         inkscape:connector-curvature="0"
         id="path3947-19"
         d="M 0,0 5,-5 -12.5,0 5,5 0,0 z"
         style="fill-rule:evenodd;stroke:#000000;stroke-width:1pt"
         transform="matrix(-0.2,0,0,-0.2,-1.2,0)" />
    </marker>
    <marker
       inkscape:stockid="Arrow1Send"
       orient="auto"
       refY="0"
       refX="0"
       id="Arrow1Send-82"
       style="overflow:visible">
      <path
         inkscape:connector-curvature="0"
         id="path3947-33"
         d="M 0,0 5,-5 -12.5,0 5,5 0,0 z"
         style="fill-rule:evenodd;stroke:#000000;stroke-width:1pt"
         transform="matrix(-0.2,0,0,-0.2,-1.2,0)" />
    </marker>
    <marker
       inkscape:stockid="Arrow1Send"
       orient="auto"
       refY="0"
       refX="0"
       id="Arrow1Send-70"
       style="overflow:visible">
      <path
         inkscape:connector-curvature="0"
         id="path3947-8"
         d="M 0,0 5,-5 -12.5,0 5,5 0,0 z"
         style="fill-rule:evenodd;stroke:#000000;stroke-width:1pt"
         transform="matrix(-0.2,0,0,-0.2,-1.2,0)" />
    </marker>
    <marker
       inkscape:stockid="Arrow1Send"
       orient="auto"
       refY="0"
       refX="0"
       id="Arrow1Send-86"
       style="overflow:visible">
      <path
         inkscape:connector-curvature="0"
         id="path3947-5"
         d="M 0,0 5,-5 -12.5,0 5,5 0,0 z"
         style="fill-rule:evenodd;stroke:#000000;stroke-width:1pt"
         transform="matrix(-0.2,0,0,-0.2,-1.2,0)" />
    </marker>
    <marker
       inkscape:stockid="Arrow1Send"
       orient="auto"
       refY="0"
       refX="0"
       id="Arrow1Send-6"
       style="overflow:visible">
      <path
         inkscape:connector-curvature="0"
         id="path3947-53"
         d="M 0,0 5,-5 -12.5,0 5,5 0,0 z"
         style="fill-rule:evenodd;stroke:#000000;stroke-width:1pt"
         transform="matrix(-0.2,0,0,-0.2,-1.2,0)" />
    </marker>
    <marker
       inkscape:stockid="Arrow1Send"
       orient="auto"
       refY="0"
       refX="0"
       id="Arrow1Send-25"
       style="overflow:visible">
      <path
         inkscape:connector-curvature="0"
         id="path3947-536"
         d="M 0,0 5,-5 -12.5,0 5,5 0,0 z"
         style="fill-rule:evenodd;stroke:#000000;stroke-width:1pt"
         transform="matrix(-0.2,0,0,-0.2,-1.2,0)" />
    </marker>
    <marker
       inkscape:stockid="Arrow1Send"
       orient="auto"
       refY="0"
       refX="0"
       id="Arrow1Send-49"
       style="overflow:visible">
      <path
         inkscape:connector-curvature="0"
         id="path3947-41"
         d="M 0,0 5,-5 -12.5,0 5,5 0,0 z"
         style="fill-rule:evenodd;stroke:#000000;stroke-width:1pt"
         transform="matrix(-0.2,0,0,-0.2,-1.2,0)" />
    </marker>
    <marker
       inkscape:stockid="Arrow1Send"
       orient="auto"
       refY="0"
       refX="0"
       id="marker4787"
       style="overflow:visible">
      <path
         inkscape:connector-curvature="0"
         id="path4789"
         d="M 0,0 5,-5 -12.5,0 5,5 0,0 z"
         style="fill-rule:evenodd;stroke:#000000;stroke-width:1pt"
         transform="matrix(-0.2,0,0,-0.2,-1.2,0)" />
    </marker>
    <marker
       inkscape:stockid="Arrow1Send"
       orient="auto"
       refY="0"
       refX="0"
       id="marker4791"
       style="overflow:visible">
      <path
         inkscape:connector-curvature="0"
         id="path4793"
         d="M 0,0 5,-5 -12.5,0 5,5 0,0 z"
         style="fill-rule:evenodd;stroke:#000000;stroke-width:1pt"
         transform="matrix(-0.2,0,0,-0.2,-1.2,0)" />
    </marker>
    <marker
       inkscape:stockid="Arrow1Send"
       orient="auto"
       refY="0"
       refX="0"
       id="marker4795"
       style="overflow:visible">
      <path
         inkscape:connector-curvature="0"
         id="path4797"
         d="M 0,0 5,-5 -12.5,0 5,5 0,0 z"
         style="fill-rule:evenodd;stroke:#000000;stroke-width:1pt"
         transform="matrix(-0.2,0,0,-0.2,-1.2,0)" />
    </marker>
    <marker
       inkscape:stockid="Arrow1Send"
       orient="auto"
       refY="0"
       refX="0"
       id="marker4799"
       style="overflow:visible">
      <path
         inkscape:connector-curvature="0"
         id="path4801"
         d="M 0,0 5,-5 -12.5,0 5,5 0,0 z"
         style="fill-rule:evenodd;stroke:#000000;stroke-width:1pt"
         transform="matrix(-0.2,0,0,-0.2,-1.2,0)" />
    </marker>
    <marker
       inkscape:stockid="Arrow1Send"
       orient="auto"
       refY="0"
       refX="0"
       id="marker4803"
       style="overflow:visible">
      <path
         inkscape:connector-curvature="0"
         id="path4805"
         d="M 0,0 5,-5 -12.5,0 5,5 0,0 z"
         style="fill-rule:evenodd;stroke:#000000;stroke-width:1pt"
         transform="matrix(-0.2,0,0,-0.2,-1.2,0)" />
    </marker>
    <marker
       inkscape:stockid="Arrow1Send"
       orient="auto"
       refY="0"
       refX="0"
       id="marker4807"
       style="overflow:visible">
      <path
         inkscape:connector-curvature="0"
         id="path4809"
         d="M 0,0 5,-5 -12.5,0 5,5 0,0 z"
         style="fill-rule:evenodd;stroke:#000000;stroke-width:1pt"
         transform="matrix(-0.2,0,0,-0.2,-1.2,0)" />
    </marker>
    <marker
       inkscape:stockid="Arrow1Send"
       orient="auto"
       refY="0"
       refX="0"
       id="marker4811"
       style="overflow:visible">
      <path
         inkscape:connector-curvature="0"
         id="path4813"
         d="M 0,0 5,-5 -12.5,0 5,5 0,0 z"
         style="fill-rule:evenodd;stroke:#000000;stroke-width:1pt"
         transform="matrix(-0.2,0,0,-0.2,-1.2,0)" />
    </marker>
    <marker
       inkscape:stockid="Arrow1Send"
       orient="auto"
       refY="0"
       refX="0"
       id="marker4815"
       style="overflow:visible">
      <path
         inkscape:connector-curvature="0"
         id="path4817"
         d="M 0,0 5,-5 -12.5,0 5,5 0,0 z"
         style="fill-rule:evenodd;stroke:#000000;stroke-width:1pt"
         transform="matrix(-0.2,0,0,-0.2,-1.2,0)" />
    </marker>
    <marker
       inkscape:stockid="Arrow1Send"
       orient="auto"
       refY="0"
       refX="0"
       id="marker4819"
       style="overflow:visible">
      <path
         inkscape:connector-curvature="0"
         id="path4821"
         d="M 0,0 5,-5 -12.5,0 5,5 0,0 z"
         style="fill-rule:evenodd;stroke:#000000;stroke-width:1pt"
         transform="matrix(-0.2,0,0,-0.2,-1.2,0)" />
    </marker>
    <marker
       inkscape:stockid="Arrow1Send"
       orient="auto"
       refY="0"
       refX="0"
       id="marker4823"
       style="overflow:visible">
      <path
         inkscape:connector-curvature="0"
         id="path4825"
         d="M 0,0 5,-5 -12.5,0 5,5 0,0 z"
         style="fill-rule:evenodd;stroke:#000000;stroke-width:1pt"
         transform="matrix(-0.2,0,0,-0.2,-1.2,0)" />
    </marker>
    <marker
       inkscape:stockid="Arrow1Send"
       orient="auto"
       refY="0"
       refX="0"
       id="marker4827"
       style="overflow:visible">
      <path
         inkscape:connector-curvature="0"
         id="path4829"
         d="M 0,0 5,-5 -12.5,0 5,5 0,0 z"
         style="fill-rule:evenodd;stroke:#000000;stroke-width:1pt"
         transform="matrix(-0.2,0,0,-0.2,-1.2,0)" />
    </marker>
    <marker
       inkscape:stockid="Arrow1Send"
       orient="auto"
       refY="0"
       refX="0"
       id="marker4831"
       style="overflow:visible">
      <path
         inkscape:connector-curvature="0"
         id="path4833"
         d="M 0,0 5,-5 -12.5,0 5,5 0,0 z"
         style="fill-rule:evenodd;stroke:#000000;stroke-width:1pt"
         transform="matrix(-0.2,0,0,-0.2,-1.2,0)" />
    </marker>
    <marker
       inkscape:stockid="Arrow1Send"
       orient="auto"
       refY="0"
       refX="0"
       id="marker4835"
       style="overflow:visible">
      <path
         inkscape:connector-curvature="0"
         id="path4837"
         d="M 0,0 5,-5 -12.5,0 5,5 0,0 z"
         style="fill-rule:evenodd;stroke:#000000;stroke-width:1pt"
         transform="matrix(-0.2,0,0,-0.2,-1.2,0)" />
    </marker>
    <marker
       inkscape:stockid="Arrow1Send"
       orient="auto"
       refY="0"
       refX="0"
       id="marker4839"
       style="overflow:visible">
      <path
         inkscape:connector-curvature="0"
         id="path4841"
         d="M 0,0 5,-5 -12.5,0 5,5 0,0 z"
         style="fill-rule:evenodd;stroke:#000000;stroke-width:1pt"
         transform="matrix(-0.2,0,0,-0.2,-1.2,0)" />
    </marker>
    <marker
       inkscape:stockid="Arrow1Send"
       orient="auto"
       refY="0"
       refX="0"
       id="Arrow1Send-3"
       style="overflow:visible">
      <path
         inkscape:connector-curvature="0"
         id="path3947-44"
         d="M 0,0 5,-5 -12.5,0 5,5 0,0 z"
         style="fill-rule:evenodd;stroke:#000000;stroke-width:1pt"
         transform="matrix(-0.2,0,0,-0.2,-1.2,0)" />
    </marker>
    <marker
       inkscape:stockid="Arrow1Send"
       orient="auto"
       refY="0"
       refX="0"
       id="Arrow1Send-705"
       style="overflow:visible">
      <path
         inkscape:connector-curvature="0"
         id="path3947-90"
         d="M 0,0 5,-5 -12.5,0 5,5 0,0 z"
         style="fill-rule:evenodd;stroke:#000000;stroke-width:1pt"
         transform="matrix(-0.2,0,0,-0.2,-1.2,0)" />
    </marker>
    <marker
       inkscape:stockid="Arrow1Send"
       orient="auto"
       refY="0"
       refX="0"
       id="Arrow1Send-5"
       style="overflow:visible">
      <path
         inkscape:connector-curvature="0"
         id="path3947-80"
         d="M 0,0 5,-5 -12.5,0 5,5 0,0 z"
         style="fill-rule:evenodd;stroke:#000000;stroke-width:1pt"
         transform="matrix(-0.2,0,0,-0.2,-1.2,0)" />
    </marker>
    <marker
       inkscape:stockid="Arrow1Send"
       orient="auto"
       refY="0"
       refX="0"
       id="Arrow1Send-738"
       style="overflow:visible">
      <path
         inkscape:connector-curvature="0"
         id="path3947-49"
         d="M 0,0 5,-5 -12.5,0 5,5 0,0 z"
         style="fill-rule:evenodd;stroke:#000000;stroke-width:1pt"
         transform="matrix(-0.2,0,0,-0.2,-1.2,0)" />
    </marker>
    <marker
       inkscape:stockid="Arrow1Send"
       orient="auto"
       refY="0"
       refX="0"
       id="Arrow1Send-88"
       style="overflow:visible">
      <path
         inkscape:connector-curvature="0"
         id="path3947-18"
         d="M 0,0 5,-5 -12.5,0 5,5 0,0 z"
         style="fill-rule:evenodd;stroke:#000000;stroke-width:1pt"
         transform="matrix(-0.2,0,0,-0.2,-1.2,0)" />
    </marker>
    <marker
       inkscape:stockid="Arrow1Send"
       orient="auto"
       refY="0"
       refX="0"
       id="marker3075"
       style="overflow:visible">
      <path
         inkscape:connector-curvature="0"
         id="path3077"
         d="M 0,0 5,-5 -12.5,0 5,5 0,0 z"
         style="fill-rule:evenodd;stroke:#000000;stroke-width:1pt"
         transform="matrix(-0.2,0,0,-0.2,-1.2,0)" />
    </marker>
    <marker
       inkscape:stockid="Arrow1Send"
       orient="auto"
       refY="0"
       refX="0"
       id="marker3079"
       style="overflow:visible">
      <path
         inkscape:connector-curvature="0"
         id="path3081"
         d="M 0,0 5,-5 -12.5,0 5,5 0,0 z"
         style="fill-rule:evenodd;stroke:#000000;stroke-width:1pt"
         transform="matrix(-0.2,0,0,-0.2,-1.2,0)" />
    </marker>
    <marker
       inkscape:stockid="Arrow1Send"
       orient="auto"
       refY="0"
       refX="0"
       id="marker3083"
       style="overflow:visible">
      <path
         inkscape:connector-curvature="0"
         id="path3085"
         d="M 0,0 5,-5 -12.5,0 5,5 0,0 z"
         style="fill-rule:evenodd;stroke:#000000;stroke-width:1pt"
         transform="matrix(-0.2,0,0,-0.2,-1.2,0)" />
    </marker>
    <marker
       inkscape:stockid="Arrow1Send"
       orient="auto"
       refY="0"
       refX="0"
       id="marker3087"
       style="overflow:visible">
      <path
         inkscape:connector-curvature="0"
         id="path3089"
         d="M 0,0 5,-5 -12.5,0 5,5 0,0 z"
         style="fill-rule:evenodd;stroke:#000000;stroke-width:1pt"
         transform="matrix(-0.2,0,0,-0.2,-1.2,0)" />
    </marker>
    <marker
       inkscape:stockid="Arrow1Send"
       orient="auto"
       refY="0"
       refX="0"
       id="marker3091"
       style="overflow:visible">
      <path
         inkscape:connector-curvature="0"
         id="path3093"
         d="M 0,0 5,-5 -12.5,0 5,5 0,0 z"
         style="fill-rule:evenodd;stroke:#000000;stroke-width:1pt"
         transform="matrix(-0.2,0,0,-0.2,-1.2,0)" />
    </marker>
    <marker
       inkscape:stockid="Arrow1Send"
       orient="auto"
       refY="0"
       refX="0"
       id="marker3095"
       style="overflow:visible">
      <path
         inkscape:connector-curvature="0"
         id="path3097"
         d="M 0,0 5,-5 -12.5,0 5,5 0,0 z"
         style="fill-rule:evenodd;stroke:#000000;stroke-width:1pt"
         transform="matrix(-0.2,0,0,-0.2,-1.2,0)" />
    </marker>
    <marker
       inkscape:stockid="Arrow1Send"
       orient="auto"
       refY="0"
       refX="0"
       id="marker3099"
       style="overflow:visible">
      <path
         inkscape:connector-curvature="0"
         id="path3101"
         d="M 0,0 5,-5 -12.5,0 5,5 0,0 z"
         style="fill-rule:evenodd;stroke:#000000;stroke-width:1pt"
         transform="matrix(-0.2,0,0,-0.2,-1.2,0)" />
    </marker>
    <marker
       inkscape:stockid="Arrow1Send"
       orient="auto"
       refY="0"
       refX="0"
       id="marker3103"
       style="overflow:visible">
      <path
         inkscape:connector-curvature="0"
         id="path3105"
         d="M 0,0 5,-5 -12.5,0 5,5 0,0 z"
         style="fill-rule:evenodd;stroke:#000000;stroke-width:1pt"
         transform="matrix(-0.2,0,0,-0.2,-1.2,0)" />
    </marker>
  </defs>
  <sodipodi:namedview
     pagecolor="#ffffff"
     bordercolor="#666666"
     borderopacity="1"
     objecttolerance="10"
     gridtolerance="10"
     guidetolerance="10"
     inkscape:pageopacity="0"
     inkscape:pageshadow="2"
     inkscape:window-width="1600"
     inkscape:window-height="824"
     id="namedview163"
     showgrid="false"
     inkscape:zoom="0.51"
     inkscape:cx="603.29204"
     inkscape:cy="496.89475"
     inkscape:window-x="0"
     inkscape:window-y="24"
     inkscape:window-maximized="1"
     inkscape:current-layer="graph0"
     fit-margin-top="0"
     fit-margin-left="0"
     fit-margin-right="0"
     fit-margin-bottom="0" />
  <g
     id="graph0"
     class="graph"
     transform="translate(-72.751545,351.93164)">
    <title
       id="title5">graph_output</title>
    <!-- 18281271252100618662 -->
    <!-- 8104638048253350837 -->
    <g
       id="node2"
       class="node"
       transform="matrix(1.2636677,0,0,1.6882492,-220.61561,268.79627)">
      <title
         id="title17">8104638048253350837</title>
      <path
         d="m 750.94478,-108 c 0,0 -202.79078,0 -202.79078,0 -6.577,0 -13.154,6 -13.154,12 0,0 0,12 0,12 0,6 6.577,12 13.154,12 0,0 202.79078,0 202.79078,0 6.577,0 13.154,-6 13.154,-12 0,0 0,-12 0,-12 0,-6 -6.577,-12 -13.154,-12"
         id="path19"
         inkscape:connector-curvature="0"
         style="fill:#ffffff;stroke:#000000;stroke-width:1.04697967" />
      <text
         x="639.5"
         y="-86.300003"
         font-size="14.00"
         id="text21"
         style="font-size:14px;text-anchor:middle;font-family:'Times,serif'" />
      <text
         xml:space="preserve"
         style="font-size:11.67994213px;font-style:normal;font-variant:normal;font-weight:normal;font-stretch:normal;text-align:start;line-height:125%;letter-spacing:0px;word-spacing:0px;writing-mode:lr-tb;text-anchor:start;fill:#000000;fill-opacity:1;stroke:none;font-family:Arial;-inkscape-font-specification:Sans"
         x="539.66919"
         y="-86.742027"
         id="text4536"
         sodipodi:linespacing="125%"><tspan
           sodipodi:role="line"
           id="tspan4538"
           x="539.66919"
           y="-86.742027"
           style="font-size:14px">pkt.saved_hop = saved_hop[pkt.id]</tspan></text>
    </g>
    <!-- 18281271252100618662&#45;&gt;8104638048253350837 -->
    <!-- 6812949046131294349 -->
    <g
       id="node3"
       class="node"
       transform="matrix(1.2636677,0,0,1.6882492,-58.866147,231.14831)">
      <title
         id="title31">6812949046131294349</title>
      <path
         d="m 466.83653,-252 c 0,0 -177.85134,0 -177.85134,0 -6.2771,0 -12.55421,6 -12.55421,12 0,0 0,12 0,12 0,6 6.27711,12 12.55421,12 0,0 177.85134,0 177.85134,0 6.2771,0 12.55421,-6 12.55421,-12 0,0 0,-12 0,-12 0,-6 -6.27711,-12 -12.55421,-12"
         id="path33"
         inkscape:connector-curvature="0"
         style="fill:#ffffff;stroke:#000000;stroke-width:1.02283144" />
      <text
         x="377.5"
         y="-230.3"
         font-size="14.00"
         id="text35"
         style="font-size:14px;text-anchor:middle;font-family:'Times,serif'">
        <tspan
           style="font-style:normal;font-variant:normal;font-weight:normal;font-stretch:normal;font-family:Arial;-inkscape-font-specification:Arial"
           id="tspan4468">pkt.last_time = last_time[pkt.id]</tspan>
      </text>
    </g>
    <!-- 18281271252100618662&#45;&gt;6812949046131294349 -->
    <g
       id="edge2"
       class="edge">
      <title
         id="title38">18281271252100618662-&gt;6812949046131294349</title>
    </g>
    <!-- 13080825001612736941 -->
    <!-- 8104638048253350837&#45;&gt;13080825001612736941 -->
    <!-- 4151992980388096987 -->
    <!-- 8104638048253350837&#45;&gt;4151992980388096987 -->
    <!-- 9793423270683058164 -->
    <g
       id="node6"
       class="node"
       transform="matrix(1.2636677,0,0,1.6882492,123.10201,215.14831)">
      <title
         id="title73">9793423270683058164</title>
      <path
         d="m 206.69924,-180 c 0,0 -198.3936691,0 -198.3936691,0 -6.2322619,0 -12.4645238,6 -12.4645238,12 0,0 0,12 0,12 0,6 6.2322619,12 12.4645238,12 0,0 198.3936691,0 198.3936691,0 6.23227,0 12.46453,-6 12.46453,-12 0,0 0,-12 0,-12 0,-6 -6.23226,-12 -12.46453,-12"
         id="path75"
         inkscape:connector-curvature="0"
         style="fill:#ffffff;stroke:#000000;stroke-width:1.01917136" />
      <text
         x="107.5"
         y="-158.3"
         font-size="14.00"
         id="text77"
         style="font-size:14px;text-anchor:middle;font-family:'Times,serif'">
        <tspan
           style="font-style:normal;font-variant:normal;font-weight:normal;font-stretch:normal;font-family:Arial;-inkscape-font-specification:Arial"
           id="tspan4494">pkt.tmp = pkt.arrival - pkt.last_time</tspan>
      </text>
    </g>
    <!-- 6812949046131294349&#45;&gt;9793423270683058164 -->
    <!-- 13686169344497402900 -->
    <g
       id="node7"
       class="node"
       transform="matrix(1.2636677,0,0,1.6882492,62.445956,215.14831)">
      <title
         id="title87">13686169344497402900</title>
      <path
         d="m 455,-180 c 0,0 -155,0 -155,0 -6,0 -12,6 -12,12 0,0 0,12 0,12 0,6 6,12 12,12 0,0 155,0 155,0 6,0 12,-6 12,-12 0,0 0,-12 0,-12 0,-6 -6,-12 -12,-12"
         id="path89"
         inkscape:connector-curvature="0"
         style="fill:#ffffff;stroke:#000000" />
      <text
         x="377.5"
         y="-158.3"
         font-size="14.00"
         id="text91"
         style="font-size:14px;text-anchor:middle;font-family:'Times,serif'" />
      <text
         xml:space="preserve"
         style="font-size:11.67994213px;font-style:normal;font-variant:normal;font-weight:normal;font-stretch:normal;text-align:start;line-height:125%;letter-spacing:0px;word-spacing:0px;writing-mode:lr-tb;text-anchor:start;fill:#000000;fill-opacity:1;stroke:none;font-family:Arial;-inkscape-font-specification:Sans"
         x="289.92981"
         y="-157.72572"
         id="text4518"
         sodipodi:linespacing="125%"><tspan
           sodipodi:role="line"
           id="tspan4520"
           x="289.92981"
           y="-157.72572"
           style="font-size:14px">last_time[pkt.id] = pkt.arrival</tspan></text>
    </g>
    <!-- 6812949046131294349&#45;&gt;13686169344497402900 -->
    <!-- 4151992980388096987&#45;&gt;8104638048253350837 -->
    <!-- 12723286500395325711 -->
    <g
       id="node9"
       class="node"
       transform="matrix(1.2636677,0,0,1.6882492,163.53937,179.94831)">
      <title
         id="title108">12723286500395325711</title>
      <path
         d="m 180.89396,-108 c 0,0 -187.592275,0 -187.592275,0 C -15.849157,-108 -25,-102 -25,-96 c 0,0 0,12 0,12 0,6 9.150843,12 18.301685,12 0,0 187.592275,0 187.592275,0 9.15084,0 18.30168,-6 18.30168,-12 0,0 0,-12 0,-12 0,-6 -9.15084,-12 -18.30168,-12"
         id="path110"
         inkscape:connector-curvature="0"
         style="fill:#ffffff;stroke:#000000;stroke-width:1.2349658" />
      <text
         x="80.5"
         y="-86.300003"
         font-size="14.00"
         id="text112"
         style="font-size:14px;text-anchor:middle;font-family:'Times,serif'" />
      <text
         xml:space="preserve"
         style="font-size:11.67994213px;font-style:normal;font-variant:normal;font-weight:normal;font-stretch:normal;text-align:start;line-height:125%;letter-spacing:0px;word-spacing:0px;writing-mode:lr-tb;text-anchor:start;fill:#000000;fill-opacity:1;stroke:none;font-family:Arial;-inkscape-font-specification:Sans"
         x="-20.150612"
         y="-85.27845"
         id="text4496"
         sodipodi:linespacing="125%"><tspan
           sodipodi:role="line"
           id="tspan4498"
           x="-20.150612"
           y="-85.27845"
           style="font-size:14px">pkt.tmp2 = pkt.tmp &gt; THRESHOLD</tspan></text>
    </g>
    <!-- 9793423270683058164&#45;&gt;12723286500395325711 -->
    <!-- 13686169344497402900&#45;&gt;6812949046131294349 -->
    <!-- 15027130736822862391 -->
    <g
       id="node8"
       class="node"
       transform="matrix(1.2636677,0,0,1.6882492,-18.42878,268.79627)">
      <title
         id="title129">15027130736822862391</title>
      <path
         d="m 342.9467,-108 c 0,0 -205.35853,0 -205.35853,0 -3.83848,0 -7.67695,14.954197 -7.67695,29.908393 0,0 0,29.908395 0,29.908395 0,14.954196 3.83847,29.908393 7.67695,29.908393 0,0 205.35853,0 205.35853,0 3.83848,0 7.67695,-14.954197 7.67695,-29.908393 0,0 0,-29.908395 0,-29.908395 C 350.62365,-93.045803 346.78518,-108 342.9467,-108"
         id="path131"
         inkscape:connector-curvature="0"
         style="fill:#ffffff;stroke:#000000;stroke-width:1.26272798" />
      <text
         x="344.5"
         y="-86.300003"
         font-size="14.00"
         id="text133"
         style="font-size:14px;text-anchor:middle;font-family:'Times,serif'">
        <tspan
           style="font-style:normal;font-variant:normal;font-weight:normal;font-stretch:normal;font-family:Arial;-inkscape-font-specification:Arial"
           id="tspan4500" />
      </text>
      <text
         xml:space="preserve"
         style="font-size:11.67994213px;font-style:normal;font-variant:normal;font-weight:normal;font-stretch:normal;text-align:start;line-height:125%;letter-spacing:0px;word-spacing:0px;writing-mode:lr-tb;text-anchor:start;fill:#000000;fill-opacity:1;stroke:none;font-family:Arial;-inkscape-font-specification:Sans"
         x="136.66307"
         y="-85.278458"
         id="text4506"
         sodipodi:linespacing="125%"><tspan
           sodipodi:role="line"
           id="tspan4508"
           x="136.66307"
           y="-85.278458"
           style="font-size:14px">pkt.new_hop = hash3(pkt.sport,</tspan><tspan
           sodipodi:role="line"
           x="136.66307"
           y="-67.778458"
           style="font-size:14px"
           id="tspan4510">                                    pkt.dport,</tspan><tspan
           sodipodi:role="line"
           x="136.66307"
           y="-50.278458"
           style="font-size:14px"
           id="tspan4512">                                    pkt.arrival) </tspan><tspan
           sodipodi:role="line"
           x="136.66307"
           y="-32.778458"
           style="font-size:14px"
           id="tspan4526">                         % NUM_HOPS</tspan></text>
    </g>
    <!-- 15027130736822862391&#45;&gt;13080825001612736941 -->
    <!-- 15027130736822862391&#45;&gt;4151992980388096987 -->
    <!-- 12723286500395325711&#45;&gt;13080825001612736941 -->
    <!-- 12723286500395325711&#45;&gt;4151992980388096987 -->
    <g
       id="node1"
       class="node"
       transform="matrix(0.93577087,0,0,3.17436,-39.337515,678.14818)">
      <title
         id="title10">18281271252100618662</title>
      <path
         d="m 610.5,-324 c 0,0 -232,0 -232,0 -6,0 -12,6 -12,12 0,0 0,12 0,12 0,6 6,12 12,12 0,0 232,0 232,0 6,0 12,-6 12,-12 0,0 0,-12 0,-12 0,-6 -6,-12 -12,-12"
         id="path12"
         inkscape:connector-curvature="0"
         style="fill:#ffffff;stroke:#000000" />
      <text
         x="494.5"
         y="-302.29999"
         font-size="14.00"
         id="text14"
         style="font-size:14px;text-anchor:middle;font-family:'Times,serif'" />
    </g>
    <text
       xml:space="preserve"
       style="font-size:17.05986023px;font-style:normal;font-variant:normal;font-weight:normal;font-stretch:normal;text-align:start;line-height:125%;letter-spacing:0px;word-spacing:0px;writing-mode:lr-tb;text-anchor:start;fill:#000000;fill-opacity:1;stroke:none;font-family:Arial;-inkscape-font-specification:Sans"
       x="357.68463"
       y="-271.87775"
       id="text3148"
       sodipodi:linespacing="125%"
       transform="scale(0.86516341,1.155851)"><tspan
         sodipodi:role="line"
         id="tspan3150"
         x="357.68463"
         y="-271.87775"
         style="font-size:20.44856262px">pkt.id = hash2(pkt.sport,</tspan><tspan
         sodipodi:role="line"
         x="357.68463"
         y="-246.31705"
         style="font-size:20.44856262px"
         id="tspan4514">                        pkt.dport)</tspan><tspan
         sodipodi:role="line"
         x="357.68463"
         y="-220.75635"
         style="font-size:20.44856262px"
         id="tspan4516">             %NUM_FLOWLETS</tspan></text>
    <path
       style="fill:none;stroke:#000000;stroke-width:5.84244633;stroke-linecap:butt;stroke-linejoin:miter;stroke-miterlimit:4;stroke-opacity:1;stroke-dasharray:none;marker-end:url(#Arrow1Send)"
       d="m 413.66359,-240.47753 -0.76038,47.97313"
       id="path3158-2"
       inkscape:connector-curvature="0"
       sodipodi:nodetypes="cc" />
    <path
       style="fill:none;stroke:#000000;stroke-width:5.84244633;stroke-linecap:butt;stroke-linejoin:miter;stroke-miterlimit:4;stroke-opacity:1;stroke-dasharray:none;marker-end:url(#Arrow1Send)"
       d="m 314.2599,-133.80703 -33.60581,33.30105"
       id="path3158-2-2"
       inkscape:connector-curvature="0"
       sodipodi:nodetypes="cc" />
    <path
       style="fill:none;stroke:#000000;stroke-width:5.84244633;stroke-linecap:butt;stroke-linejoin:miter;stroke-miterlimit:4;stroke-opacity:1;stroke-dasharray:none;marker-end:url(#Arrow1Send)"
       d="m 490.80379,-134.28205 10.08995,39.57556"
       id="path3158-2-2-5"
       inkscape:connector-curvature="0"
       sodipodi:nodetypes="cc" />
    <path
       style="fill:none;stroke:#000000;stroke-width:5.84244633;stroke-linecap:butt;stroke-linejoin:miter;stroke-miterlimit:4;stroke-opacity:1;stroke-dasharray:none;marker-end:url(#Arrow1Send)"
       d="m 524.8862,-97.59036 -10.37084,-33.96742"
       id="path3158-2-2-5-5"
       inkscape:connector-curvature="0"
       sodipodi:nodetypes="cc" />
    <path
       style="fill:none;stroke:#000000;stroke-width:5.84244633;stroke-linecap:butt;stroke-linejoin:miter;stroke-miterlimit:4;stroke-opacity:1;stroke-dasharray:none;marker-end:url(#Arrow1Send)"
       d="m 277.89919,-38.340503 -0.6439,44.086858"
       id="path3158-2-2-0"
       inkscape:connector-curvature="0"
       sodipodi:nodetypes="cc" />
    <path
       style="fill:none;stroke:#000000;stroke-width:5.84244633;stroke-linecap:butt;stroke-linejoin:miter;stroke-miterlimit:4;stroke-opacity:1;stroke-dasharray:none;marker-end:url(#Arrow1Send)"
       d="m 571.69345,151.35235 -0.6439,119.40768"
       id="path3158-2-2-5-6"
       inkscape:connector-curvature="0"
       sodipodi:nodetypes="cc" />
    <path
       style="fill:none;stroke:#000000;stroke-width:5.84244633;stroke-linecap:butt;stroke-linejoin:miter;stroke-miterlimit:4;stroke-opacity:1;stroke-dasharray:none;marker-end:url(#Arrow1Send)"
       d="m 597.25452,271.24932 -0.92477,-117.1727"
       id="path3158-2-2-5-5-2"
       inkscape:connector-curvature="0"
       sodipodi:nodetypes="cc" />
    <path
       style="fill:none;stroke:#000000;stroke-width:5.84244633;stroke-linecap:butt;stroke-linejoin:miter;stroke-miterlimit:4;stroke-opacity:1;stroke-dasharray:none;marker-end:url(#Arrow1Send)"
       d="m 425.21848,154.85264 68.99246,119.0745"
       id="path3158-1"
       inkscape:connector-curvature="0"
       sodipodi:nodetypes="cc" />
    <path
       style="fill:none;stroke:#000000;stroke-width:5.84244633;stroke-linecap:butt;stroke-linejoin:miter;stroke-miterlimit:4;stroke-opacity:1;stroke-dasharray:none;marker-end:url(#Arrow1Send)"
       d="M 492.30313,148.61151 411.00816,273.19686"
       id="path3158-1-5"
       inkscape:connector-curvature="0"
       sodipodi:nodetypes="cc" />
    <path
       style="fill:none;stroke:#000000;stroke-width:5.84244633;stroke-linecap:butt;stroke-linejoin:miter;stroke-miterlimit:4;stroke-opacity:1;stroke-dasharray:none;marker-end:url(#Arrow1Send)"
       d="M 547.80712,-298.2283 C 720.24965,-95.565864 707.85163,-69.113195 707.64991,78.677111"
       id="path3158-4"
       inkscape:connector-curvature="0"
       sodipodi:nodetypes="cc" />
    <path
       style="fill:none;stroke:#000000;stroke-width:5.84244633;stroke-linecap:butt;stroke-linejoin:miter;stroke-miterlimit:4;stroke-opacity:1;stroke-dasharray:none;marker-end:url(#Arrow1Send)"
       d="m 542.03248,-254.63268 c 77.12133,28.74512 69.64607,70.44674 58.98468,159.3018"
       id="path3158-3"
       inkscape:connector-curvature="0"
       sodipodi:nodetypes="cc" />
    <path
       style="fill:none;stroke:#000000;stroke-width:5.84244633;stroke-linecap:butt;stroke-linejoin:miter;stroke-miterlimit:4;stroke-opacity:1;stroke-dasharray:none;marker-end:url(#Arrow1Send)"
       d="m 290.59312,235.2664 0.85611,38.4374"
       id="path3158-1-5-3"
       inkscape:connector-curvature="0"
       sodipodi:nodetypes="cc" />
    <path
       style="fill:none;stroke:#000000;stroke-width:5.84244633;stroke-linecap:butt;stroke-linejoin:miter;stroke-miterlimit:4;stroke-opacity:1;stroke-dasharray:none;marker-end:url(#Arrow1Send)"
       d="M 135.01194,53.62444 C 92.160092,129.02658 55.584565,216.00293 164.76797,282.69486"
       id="path3158-1-5-3-5"
       inkscape:connector-curvature="0"
       sodipodi:nodetypes="cc" />
    <g
       id="node4"
       class="node"
       transform="matrix(1.2636677,0,0,1.6882492,-18.42878,340.23224)">
      <title
         id="title45">13080825001612736941</title>
      <path
         d="m 334.99936,-36 c 0,0 -187.39793,0 -187.39793,0 -3.71085,0 -7.4217,11.803541 -7.4217,23.607083 0,0 0,23.607083 0,23.607083 0,11.803541 3.71085,23.607083 7.4217,23.607083 0,0 187.39793,0 187.39793,0 3.71086,0 7.4217,-11.803542 7.4217,-23.607083 0,0 0,-23.607083 0,-23.607083 C 342.42106,-24.196459 338.71022,-36 334.99936,-36"
         id="path47"
         inkscape:connector-curvature="0"
         style="fill:#ffffff;stroke:#000000;stroke-width:1.10304093" />
      <text
         x="281.5"
         y="-14.3"
         font-size="14.00"
         id="text49"
         style="font-size:14px;font-style:normal;font-variant:normal;font-weight:normal;font-stretch:normal;text-anchor:middle;font-family:Arial;-inkscape-font-specification:Arial" />
      <text
         xml:space="preserve"
         style="font-size:14.5999279px;font-style:normal;font-variant:normal;font-weight:normal;font-stretch:normal;text-align:start;line-height:125%;letter-spacing:0px;word-spacing:0px;writing-mode:lr-tb;text-anchor:start;fill:#000000;fill-opacity:1;stroke:none;font-family:Arial;-inkscape-font-specification:Sans"
         x="188.43607"
         y="452.50427"
         id="text4540"
         sodipodi:linespacing="125%"
         transform="matrix(0.8,0,0,0.8,-4.25,-376)"><tspan
           sodipodi:role="line"
           id="tspan4542"
           x="188.43607"
           y="452.50427"
           style="font-size:17.5px">pkt.next_hop =  pkt.tmp2 ?</tspan><tspan
           sodipodi:role="line"
           x="188.43607"
           y="474.37927"
           style="font-size:17.5px"
           id="tspan4544">                         pkt.new_hop :</tspan><tspan
           sodipodi:role="line"
           x="188.43607"
           y="496.25427"
           style="font-size:17.5px"
           id="tspan4546">                         pkt.saved_hop</tspan></text>
    </g>
    <path
       style="fill:none;stroke:#000000;stroke-width:5.84244633;stroke-linecap:butt;stroke-linejoin:miter;stroke-miterlimit:4;stroke-opacity:1;stroke-dasharray:none;marker-end:url(#Arrow1Send)"
       d="M 132.14375,33.28405 C 55.885698,78.616154 86.75093,214.57657 77.256927,297.49961 c -9.770398,85.33715 8.24465,145.79038 386.950693,102.55835"
       id="path3158-1-5-3-5-3"
       inkscape:connector-curvature="0"
       sodipodi:nodetypes="csc" />
    <g
       id="node5"
       class="node"
       transform="matrix(1.2636677,0,0,1.6882492,-119.5222,340.23224)">
      <title
         id="title59">4151992980388096987</title>
      <path
         d="m 692.60102,-36 c 0,0 -222.0273,0 -222.0273,0 -4.03686,0 -8.07372,11.439524 -8.07372,22.879049 0,0 0,22.8790484 0,22.8790484 0,11.4395246 4.03686,22.8790486 8.07372,22.8790486 0,0 222.0273,0 222.0273,0 4.03686,0 8.07372,-11.439524 8.07372,-22.8790486 0,0 0,-22.8790484 0,-22.8790484 C 700.67474,-24.560476 696.63788,-36 692.60102,-36"
         id="path61"
         inkscape:connector-curvature="0"
         style="fill:#ffffff;stroke:#000000;stroke-width:1.13259482" />
      <text
         x="639.5"
         y="-14.3"
         font-size="14.00"
         id="text63"
         style="font-size:14px;text-anchor:middle;font-family:'Times,serif'" />
      <text
         xml:space="preserve"
         style="font-size:11.67994213px;font-style:normal;font-variant:normal;font-weight:normal;font-stretch:normal;text-align:start;line-height:125%;letter-spacing:0px;word-spacing:0px;writing-mode:lr-tb;text-anchor:start;fill:#000000;fill-opacity:1;stroke:none;font-family:Arial;-inkscape-font-specification:Sans"
         x="470.98029"
         y="-15.559553"
         id="text4528"
         sodipodi:linespacing="125%"><tspan
           sodipodi:role="line"
           id="tspan4530"
           x="470.98029"
           y="-15.559553"
           style="font-size:14px">saved_hop[pkt.id] =   pkt.tmp2 ?</tspan><tspan
           sodipodi:role="line"
           x="470.98029"
           y="1.9404469"
           style="font-size:14px"
           id="tspan4532">                                  pkt.new_hop :</tspan><tspan
           sodipodi:role="line"
           x="470.98029"
           y="19.440447"
           style="font-size:14px"
           id="tspan4534">                                  pkt.saved_hop</tspan></text>
    </g>
    <path
       style="fill:none;stroke:#000000;stroke-width:5.84244633;stroke-linecap:butt;stroke-linejoin:miter;stroke-miterlimit:4;stroke-opacity:1;stroke-dasharray:none;marker-end:url(#Arrow1Send)"
       d="m 544.46914,-321.42893 c 54.59044,-68.576 306.31374,129.3814 179.72828,590.54012"
       id="path3158-4-1"
       inkscape:connector-curvature="0"
       sodipodi:nodetypes="cc" />
  </g>
</svg>
