<?xml version="1.0" encoding="UTF-8" standalone="no"?>
<!-- Generated by graphviz version 2.38.0 (20140413.2041)
 -->

<!-- Title: pipeline_diagram Pages: 1 -->

<svg
   xmlns:dc="http://purl.org/dc/elements/1.1/"
   xmlns:cc="http://creativecommons.org/ns#"
   xmlns:rdf="http://www.w3.org/1999/02/22-rdf-syntax-ns#"
   xmlns:svg="http://www.w3.org/2000/svg"
   xmlns="http://www.w3.org/2000/svg"
   xmlns:sodipodi="http://sodipodi.sourceforge.net/DTD/sodipodi-0.dtd"
   xmlns:inkscape="http://www.inkscape.org/namespaces/inkscape"
   width="396.14688"
   height="481.23209"
   viewBox="0 0 316.68482 384.98566"
   id="svg2"
   version="1.1"
   inkscape:version="0.48.5 r10040"
   sodipodi:docname="pipe.svg">
  <metadata
     id="metadata164">
    <rdf:RDF>
      <cc:Work
         rdf:about="">
        <dc:format>image/svg+xml</dc:format>
        <dc:type
           rdf:resource="http://purl.org/dc/dcmitype/StillImage" />
        <dc:title></dc:title>
      </cc:Work>
    </rdf:RDF>
  </metadata>
  <defs
     id="defs162">
    <marker
       inkscape:stockid="Arrow1Send"
       orient="auto"
       refY="0"
       refX="0"
       id="Arrow1Send"
       style="overflow:visible">
      <path
         id="path4272"
         d="M 0,0 5,-5 -12.5,0 5,5 0,0 z"
         style="fill-rule:evenodd;stroke:#000000;stroke-width:1pt"
         transform="matrix(-0.2,0,0,-0.2,-1.2,0)"
         inkscape:connector-curvature="0" />
    </marker>
    <marker
       inkscape:stockid="Arrow1Lend"
       orient="auto"
       refY="0"
       refX="0"
       id="Arrow1Lend"
       style="overflow:visible">
      <path
         id="path4260"
         d="M 0,0 5,-5 -12.5,0 5,5 0,0 z"
         style="fill-rule:evenodd;stroke:#000000;stroke-width:1pt"
         transform="matrix(-0.8,0,0,-0.8,-10,0)"
         inkscape:connector-curvature="0" />
    </marker>
    <marker
       inkscape:stockid="Arrow1Send"
       orient="auto"
       refY="0"
       refX="0"
       id="Arrow1Send-4"
       style="overflow:visible">
      <path
         inkscape:connector-curvature="0"
         id="path4272-5"
         d="M 0,0 5,-5 -12.5,0 5,5 0,0 z"
         style="fill-rule:evenodd;stroke:#000000;stroke-width:1pt"
         transform="matrix(-0.2,0,0,-0.2,-1.2,0)" />
    </marker>
    <marker
       inkscape:stockid="Arrow1Send"
       orient="auto"
       refY="0"
       refX="0"
       id="Arrow1Send-2"
       style="overflow:visible">
      <path
         inkscape:connector-curvature="0"
         id="path4272-6"
         d="M 0,0 5,-5 -12.5,0 5,5 0,0 z"
         style="fill-rule:evenodd;stroke:#000000;stroke-width:1pt"
         transform="matrix(-0.2,0,0,-0.2,-1.2,0)" />
    </marker>
    <marker
       inkscape:stockid="Arrow1Send"
       orient="auto"
       refY="0"
       refX="0"
       id="marker5471"
       style="overflow:visible">
      <path
         inkscape:connector-curvature="0"
         id="path5473"
         d="M 0,0 5,-5 -12.5,0 5,5 0,0 z"
         style="fill-rule:evenodd;stroke:#000000;stroke-width:1pt"
         transform="matrix(-0.2,0,0,-0.2,-1.2,0)" />
    </marker>
    <marker
       inkscape:stockid="Arrow1Send"
       orient="auto"
       refY="0"
       refX="0"
       id="Arrow1Send-41"
       style="overflow:visible">
      <path
         inkscape:connector-curvature="0"
         id="path4272-68"
         d="M 0,0 5,-5 -12.5,0 5,5 0,0 z"
         style="fill-rule:evenodd;stroke:#000000;stroke-width:1pt"
         transform="matrix(-0.2,0,0,-0.2,-1.2,0)" />
    </marker>
    <marker
       inkscape:stockid="Arrow1Send"
       orient="auto"
       refY="0"
       refX="0"
       id="Arrow1Send-1"
       style="overflow:visible">
      <path
         inkscape:connector-curvature="0"
         id="path4272-4"
         d="M 0,0 5,-5 -12.5,0 5,5 0,0 z"
         style="fill-rule:evenodd;stroke:#000000;stroke-width:1pt"
         transform="matrix(-0.2,0,0,-0.2,-1.2,0)" />
    </marker>
    <marker
       inkscape:stockid="Arrow1Send"
       orient="auto"
       refY="0"
       refX="0"
       id="Arrow1Send-0"
       style="overflow:visible">
      <path
         inkscape:connector-curvature="0"
         id="path4272-0"
         d="M 0,0 5,-5 -12.5,0 5,5 0,0 z"
         style="fill-rule:evenodd;stroke:#000000;stroke-width:1pt"
         transform="matrix(-0.2,0,0,-0.2,-1.2,0)" />
    </marker>
  </defs>
  <sodipodi:namedview
     pagecolor="#ffffff"
     bordercolor="#666666"
     borderopacity="1"
     objecttolerance="10"
     gridtolerance="10"
     guidetolerance="10"
     inkscape:pageopacity="0"
     inkscape:pageshadow="2"
     inkscape:window-width="1600"
     inkscape:window-height="824"
     id="namedview160"
     showgrid="true"
     inkscape:zoom="1.1575153"
     inkscape:cx="33.255785"
     inkscape:cy="244.85283"
     inkscape:window-x="0"
     inkscape:window-y="24"
     inkscape:window-maximized="1"
     inkscape:current-layer="node7"
     inkscape:snap-global="true"
     fit-margin-top="0"
     fit-margin-left="0"
     fit-margin-right="0"
     fit-margin-bottom="0">
    <inkscape:grid
       type="xygrid"
       id="grid3141"
       empspacing="5"
       visible="true"
       enabled="true"
       snapvisiblegridlinesonly="true"
       originx="-264.31288px"
       originy="-19.429686px" />
  </sodipodi:namedview>
  <g
     id="graph0"
     class="graph"
     transform="translate(-207.4503,396.52941)">
    <title
       id="title5">pipeline_diagram</title>
    <!-- 18156345595480809247 -->
    <g
       id="node1"
       class="node"
       transform="matrix(1,0,0,1.0588235,-17.122218,-205.41177)">
      <title
         id="title10">18156345595480809247</title>
      <path
         d="m 422.53756,-180.00001 c 0,0 -97.47512,0 -97.47512,0 -3.23122,0 -6.46244,11.33333 -6.46244,22.66667 0,0 0,22.66666 0,22.66666 0,11.33334 3.23122,22.66667 6.46244,22.66667 0,0 97.47512,0 97.47512,0 3.23122,0 6.46244,-11.33333 6.46244,-22.66667 0,0 0,-22.66666 0,-22.66666 0,-11.33334 -3.23122,-22.66667 -6.46244,-22.66667"
         id="path12"
         inkscape:connector-curvature="0"
         style="fill:#ffffff;stroke:#000000;stroke-width:1.00858104" />
      <text
         x="387.5"
         y="-159.5"
         font-size="10.00"
         id="text14"
         style="font-size:10px;text-anchor:middle;font-family:'Times,serif'" />
      <text
         xml:space="preserve"
         style="font-size:12px;font-style:normal;font-variant:normal;font-weight:normal;font-stretch:normal;text-align:start;line-height:125%;letter-spacing:0px;word-spacing:0px;writing-mode:lr-tb;text-anchor:start;fill:#000000;fill-opacity:1;stroke:none;font-family:Arial;-inkscape-font-specification:Arial"
         x="326.60001"
         y="-157.33334"
         id="text3215"
         sodipodi:linespacing="125%"><tspan
           sodipodi:role="line"
           id="tspan3217"
           x="326.60001"
           y="-157.33334"
           style="font-size:9.71825314px;font-family:'Times,serif';-inkscape-font-specification:'Times,serif'">pkt.ids0 =</tspan><tspan
           sodipodi:role="line"
           x="326.60001"
           y="-145.18553"
           style="font-size:9.71825314px;font-family:'Times,serif';-inkscape-font-specification:'Times,serif'"
           id="tspan3346">hash2(pkt.sport,</tspan><tspan
           sodipodi:role="line"
           x="326.60001"
           y="-133.0377"
           id="tspan3219"
           style="font-size:9.71825314px;font-family:'Times,serif';-inkscape-font-specification:'Times,serif'">           pkt.dport)</tspan><tspan
           sodipodi:role="line"
           x="326.60001"
           y="-120.88989"
           id="tspan3221"
           style="font-size:9.71825314px;font-family:'Times,serif';-inkscape-font-specification:'Times,serif'">% NUM_FLOWLETS;</tspan></text>
    </g>
    <!-- 2578573771215871937 -->
    <g
       id="node2"
       class="node"
       transform="translate(11.622245,-3.2000089)">
      <title
         id="title17">2578573771215871937</title>
      <path
         d="m 496.25995,-108 c 0,0 -280.76432,0 -280.76432,0 -5.80892,0 -11.61785,6 -11.61785,12 0,0 0,12 0,12 0,6 5.80893,12 11.61785,12 0,0 280.76432,0 280.76432,0 5.80891,0 11.61783,-6 11.61783,-12 0,0 0,-12 0,-12 0,-6 -5.80892,-12 -11.61783,-12"
         id="path19"
         inkscape:connector-curvature="0"
         style="fill:#00ced1;stroke:#000000;stroke-width:0.98394758" />
      <text
         x="356.5"
         y="-93"
         font-size="10.00"
         id="text21"
         style="font-size:10px;text-anchor:middle;font-family:'Times,serif'">pkt.saved_hop00 = saved_hop[pkt.ids0];</text>
      <text
         x="356.5"
         y="-82"
         font-size="10.00"
         id="text23"
         style="font-size:10px;text-anchor:middle;font-family:'Times,serif'">saved_hop[pkt.ids0] = (pkt.tmp00) ? (pkt.new_hop0) : pkt.saved_hop00;</text>
    </g>
    <!-- 18156345595480809247&#45;&gt;2578573771215871937 -->
    <!-- 3288852826486989562 -->
    <!-- 2578573771215871937&#45;&gt;3288852826486989562 -->
    <!-- 6102173050205819670 -->
    <g
       id="node7"
       class="node"
       transform="translate(-141.6178,-7.7000104)">
      <title
         id="title47">6102173050205819670</title>
      <path
         d="m 646.5,-36 c 0,0 -266,0 -266,0 -6,0 -12,5.283333 -12,10.566666 0,0 0,10.566667 0,10.566667 0,5.2833329 6,10.5666661 12,10.5666661 0,0 266,0 266,0 6,0 12,-5.2833332 12,-10.5666661 0,0 0,-10.566667 0,-10.566667 C 658.5,-30.716667 652.5,-36 646.5,-36"
         id="path49"
         inkscape:connector-curvature="0"
         style="fill:#ffffff;stroke:#000000;stroke-width:0.93837923" />
      <text
         x="513.5"
         y="-15.5"
         font-size="10.00"
         id="text51"
         style="font-size:10px;text-anchor:middle;font-family:'Times,serif'">pkt.next_hop0 = (pkt.tmp00) ? (pkt.new_hop0) : pkt.saved_hop00;</text>
    </g>
    <!-- 2578573771215871937&#45;&gt;6102173050205819670 -->
    <!-- 12309926818605719559 -->
    <!-- 1219129619190456111 -->
    <g
       id="node4"
       class="node"
       transform="translate(-208,32)">
      <title
         id="title68">1219129619190456111</title>
      <path
         d="m 643.5,-324 c 0,0 -146,0 -146,0 -6,0 -12,5.33333 -12,10.66667 0,0 0,10.66666 0,10.66666 0,5.33333 6,10.66667 12,10.66667 0,0 146,0 146,0 6,0 12,-5.33334 12,-10.66667 0,0 0,-10.66666 0,-10.66666 0,-5.33334 -6,-10.66667 -12,-10.66667"
         id="path70"
         inkscape:connector-curvature="0"
         style="fill:#00ced1;stroke:#000000;stroke-width:0.94280899" />
      <text
         x="570.5"
         y="-309"
         font-size="10.00"
         id="text72"
         style="font-size:10px;text-anchor:middle;font-family:'Times,serif'">pkt.last_time00 = last_time[pkt.idl0];</text>
      <text
         x="570.5"
         y="-298"
         font-size="10.00"
         id="text74"
         style="font-size:10px;text-anchor:middle;font-family:'Times,serif'">last_time[pkt.idl0] = pkt.arrival;</text>
    </g>
    <!-- 12309926818605719559&#45;&gt;1219129619190456111 -->
    <!-- 57079414824587270 -->
    <g
       id="node8"
       class="node"
       transform="translate(-209.8178,24.299994)">
      <title
         id="title84">57079414824587270</title>
      <path
         d="m 648.5,-252 c 0,0 -156,0 -156,0 -6,0 -12,5.28333 -12,10.56667 0,0 0,10.56666 0,10.56666 0,5.28334 6,10.56667 12,10.56667 0,0 156,0 156,0 6,0 12,-5.28333 12,-10.56667 0,0 0,-10.56666 0,-10.56666 0,-5.28334 -6,-10.56667 -12,-10.56667"
         id="path86"
         inkscape:connector-curvature="0"
         style="fill:#ffffff;stroke:#000000;stroke-width:0.93837923" />
      <text
         x="570.5"
         y="-231.5"
         font-size="10.00"
         id="text88"
         style="font-size:10px;text-anchor:middle;font-family:'Times,serif'">pkt.tmp1 = pkt.arrival - pkt.last_time00;</text>
    </g>
    <!-- 1219129619190456111&#45;&gt;57079414824587270 -->
    <!-- 10452902214951220838 -->
    <g
       id="node5"
       class="node"
       transform="matrix(1,0,0,0.94736842,9.7387598,-225.47368)">
      <title
         id="title98">10452902214951220838</title>
      <path
         d="m 278.23596,-180 c 0,0 -76.44944,0 -76.44944,0 -1.88764,0 -3.77528,12.66667 -3.77528,25.33333 0,0 0,25.33334 0,25.33334 0,12.66666 1.88764,25.33333 3.77528,25.33333 0,0 76.44944,0 76.44944,0 1.88764,0 3.77528,-12.66667 3.77528,-25.33333 0,0 0,-25.33334 0,-25.33334 0,-12.66666 -1.88764,-25.33333 -3.77528,-25.33333"
         id="path100"
         inkscape:connector-curvature="0"
         style="fill:#ffffff;stroke:#000000;stroke-width:0.81496608" />
      <text
         x="133.5"
         y="-159.5"
         font-size="10.00"
         id="text102"
         style="font-size:10px;text-anchor:middle;font-family:'Times,serif'">
        <tspan
           style="font-family:Times New Roman;-inkscape-font-specification:Times New Roman"
           id="tspan3171" />
      </text>
      <flowRoot
         xml:space="preserve"
         id="flowRoot3185"
         style="font-size:15px;font-style:normal;font-variant:normal;font-weight:normal;font-stretch:normal;text-align:start;line-height:125%;letter-spacing:0px;word-spacing:0px;writing-mode:lr-tb;text-anchor:start;fill:#000000;fill-opacity:1;stroke:none;font-family:Arial;-inkscape-font-specification:Arial"
         transform="matrix(0.8,0,0,0.8,31,-180)"><flowRegion
           id="flowRegion3187"><rect
             id="rect3189"
             width="18.142307"
             height="19.006227"
             x="288.5491"
             y="41.075264" /></flowRegion><flowPara
           id="flowPara3191"></flowPara></flowRoot>      <text
         xml:space="preserve"
         style="font-size:12px;font-style:normal;font-variant:normal;font-weight:normal;font-stretch:normal;text-align:start;line-height:125%;letter-spacing:0px;word-spacing:0px;writing-mode:lr-tb;text-anchor:start;fill:#000000;fill-opacity:1;stroke:none;font-family:Arial;-inkscape-font-specification:Arial"
         x="207"
         y="-160"
         id="text3205"
         sodipodi:linespacing="125%"><tspan
           sodipodi:role="line"
           id="tspan3207"
           x="207"
           y="-160"
           style="font-size:9.86306286px;font-family:'Times,serif';-inkscape-font-specification:'Times,serif'">pkt.new_hop0 = </tspan><tspan
           sodipodi:role="line"
           x="207"
           y="-147.67117"
           style="font-size:9.86306286px;font-family:'Times,serif';-inkscape-font-specification:'Times,serif'"
           id="tspan3344">hash3(pkt.sport,</tspan><tspan
           sodipodi:role="line"
           x="207"
           y="-135.34235"
           id="tspan3209"
           style="font-size:9.86306286px;font-family:'Times,serif';-inkscape-font-specification:'Times,serif'">           pkt.dport, </tspan><tspan
           sodipodi:role="line"
           x="207"
           y="-123.01351"
           id="tspan3211"
           style="font-size:9.86306286px;font-family:'Times,serif';-inkscape-font-specification:'Times,serif'">           pkt.arrival)</tspan><tspan
           sodipodi:role="line"
           x="207"
           y="-110.68468"
           id="tspan3213"
           style="font-size:9.86306286px;font-family:'Times,serif';-inkscape-font-specification:'Times,serif'">% NUM_HOPS;</tspan></text>
    </g>
    <!-- 10452902214951220838&#45;&gt;2578573771215871937 -->
    <!-- 10452902214951220838&#45;&gt;3288852826486989562 -->
    <!-- 10452902214951220838&#45;&gt;6102173050205819670 -->
    <!-- 7814081429072624425 -->
    <g
       id="node9"
       class="node"
       transform="translate(-206.6178,16.299992)">
      <title
         id="title126">7814081429072624425</title>
      <path
         d="m 621,-180 c 0,0 -101,0 -101,0 -6,0 -12,3.95 -12,7.9 0,0 0,7.9 0,7.9 0,3.95 6,7.9 12,7.9 0,0 101,0 101,0 6,0 12,-3.95 12,-7.9 0,0 0,-7.9 0,-7.9 0,-3.95 -6,-7.9 -12,-7.9"
         id="path128"
         inkscape:connector-curvature="0"
         style="fill:#ffffff;stroke:#000000;stroke-width:0.81137741" />
      <text
         x="570.5"
         y="-164.3"
         font-size="10.00"
         id="text130"
         style="font-size:10px;text-anchor:middle;font-family:'Times,serif'">pkt.tmp00 = pkt.tmp1 &gt; 5;</text>
    </g>
    <!-- 57079414824587270&#45;&gt;7814081429072624425 -->
    <!-- 7814081429072624425&#45;&gt;2578573771215871937 -->
    <!-- 7814081429072624425&#45;&gt;3288852826486989562 -->
    <!-- 7814081429072624425&#45;&gt;6102173050205819670 -->
    <path
       style="fill:#ffffff;stroke:#000000;stroke-width:1.00729048"
       inkscape:connector-curvature="0"
       id="path12-5"
       d="m 517.66219,-395.99999 c 0,0 -91.82438,0 -91.82438,0 -3.04391,0 -6.08781,12 -6.08781,24 0,0 0,23.99999 0,23.99999 0,12.00001 3.0439,24.00001 6.08781,24.00001 0,0 91.82438,0 91.82438,0 3.04391,0 6.08781,-12 6.08781,-24.00001 0,0 0,-23.99999 0,-23.99999 0,-12 -3.0439,-24 -6.08781,-24" />
    <text
       style="font-size:10.28991508px;text-anchor:middle;font-family:'Times,serif'"
       id="text14-7"
       font-size="10.00"
       y="-301.55167"
       x="-71.089516"
       transform="scale(0.97182533,1.0289915)" />
    <text
       sodipodi:linespacing="125%"
       id="text3215-9"
       y="-361.51901"
       x="440.15112"
       style="font-size:12.34789753px;font-style:normal;font-variant:normal;font-weight:normal;font-stretch:normal;text-align:start;line-height:125%;letter-spacing:0px;word-spacing:0px;writing-mode:lr-tb;text-anchor:start;fill:#000000;fill-opacity:1;stroke:none;font-family:Arial;-inkscape-font-specification:Arial"
       xml:space="preserve"
       transform="scale(0.97182533,1.0289915)"><tspan
         style="font-size:10px;font-family:'Times,serif';-inkscape-font-specification:'Times,serif'"
         y="-361.51901"
         x="440.15112"
         id="tspan3217-8"
         sodipodi:role="line">pkt.idl0 =</tspan><tspan
         style="font-size:10px;font-family:'Times,serif';-inkscape-font-specification:'Times,serif'"
         y="-349.01901"
         x="440.15112"
         sodipodi:role="line"
         id="tspan3348">hash2(pkt.sport,</tspan><tspan
         style="font-size:10px;font-family:'Times,serif';-inkscape-font-specification:'Times,serif'"
         id="tspan3219-1"
         y="-336.51901"
         x="440.15112"
         sodipodi:role="line">           pkt.dport)</tspan><tspan
         style="font-size:10px;font-family:'Times,serif';-inkscape-font-specification:'Times,serif'"
         id="tspan3221-2"
         y="-324.01901"
         x="440.15112"
         sodipodi:role="line">% NUM_FLOWLETS;</tspan></text>
    <path
       style="fill:none;stroke:#000000;stroke-width:4;stroke-linecap:butt;stroke-linejoin:miter;stroke-miterlimit:1;stroke-opacity:1;stroke-dasharray:none;marker-end:url(#Arrow1Send)"
       d="m 362.2822,-324 0,24"
       id="path3483"
       inkscape:connector-curvature="0"
       sodipodi:nodetypes="cc" />
    <path
       style="fill:none;stroke:#000000;stroke-width:4;stroke-linecap:butt;stroke-linejoin:miter;stroke-miterlimit:1;stroke-opacity:1;stroke-dasharray:none;marker-end:url(#Arrow1Send)"
       d="m 362.2822,-260.00001 0,24"
       id="path3483-8"
       inkscape:connector-curvature="0"
       sodipodi:nodetypes="cc" />
    <path
       style="fill:none;stroke:#000000;stroke-width:4;stroke-linecap:butt;stroke-linejoin:miter;stroke-miterlimit:1;stroke-opacity:1;stroke-dasharray:none;marker-end:url(#Arrow1Send)"
       d="m 362.2822,-356 0,24"
       id="path3483-9"
       inkscape:connector-curvature="0"
       sodipodi:nodetypes="cc" />
    <path
       style="fill:none;stroke:#000000;stroke-width:4;stroke-linecap:butt;stroke-linejoin:miter;stroke-miterlimit:1;stroke-opacity:1;stroke-dasharray:none;marker-end:url(#Arrow1Send)"
       d="m 362.2822,-292.00001 0,24"
       id="path3483-8-9"
       inkscape:connector-curvature="0"
       sodipodi:nodetypes="cc" />
    <path
       style="fill:none;stroke:#000000;stroke-width:4;stroke-linecap:butt;stroke-linejoin:miter;stroke-miterlimit:1;stroke-opacity:1;stroke-dasharray:none;marker-end:url(#Arrow1Send)"
       d="m 362.2822,-196.00001 0,24"
       id="path3483-4"
       inkscape:connector-curvature="0"
       sodipodi:nodetypes="cc" />
    <path
       style="fill:none;stroke:#000000;stroke-width:4;stroke-linecap:butt;stroke-linejoin:miter;stroke-miterlimit:1;stroke-opacity:1;stroke-dasharray:none;marker-end:url(#Arrow1Send)"
       d="m 362.2822,-140.00001 0,24"
       id="path3483-4-8"
       inkscape:connector-curvature="0"
       sodipodi:nodetypes="cc" />
    <path
       style="fill:none;stroke:#000000;stroke-width:4;stroke-linecap:butt;stroke-linejoin:miter;stroke-miterlimit:1;stroke-opacity:1;stroke-dasharray:none;marker-end:url(#Arrow1Send)"
       d="m 362.2822,-76.00001 0,24"
       id="path3483-4-8-4"
       inkscape:connector-curvature="0"
       sodipodi:nodetypes="cc" />
  </g>
</svg>
