<?xml version="1.0" encoding="UTF-8" standalone="no"?>
<!-- Created with Inkscape (http://www.inkscape.org/) -->

<svg
   xmlns:dc="http://purl.org/dc/elements/1.1/"
   xmlns:cc="http://creativecommons.org/ns#"
   xmlns:rdf="http://www.w3.org/1999/02/22-rdf-syntax-ns#"
   xmlns:svg="http://www.w3.org/2000/svg"
   xmlns="http://www.w3.org/2000/svg"
   xmlns:sodipodi="http://sodipodi.sourceforge.net/DTD/sodipodi-0.dtd"
   xmlns:inkscape="http://www.inkscape.org/namespaces/inkscape"
   width="834.24792"
   height="979.85712"
   id="svg5392"
   version="1.1"
   inkscape:version="0.48.5 r10040"
   sodipodi:docname="scc.svg">
  <defs
     id="defs5394">
    <marker
       inkscape:stockid="Arrow1Send"
       orient="auto"
       refY="0"
       refX="0"
       id="Arrow1Send"
       style="overflow:visible">
      <path
         inkscape:connector-curvature="0"
         id="path3947"
         d="M 0,0 5,-5 -12.5,0 5,5 0,0 z"
         style="fill-rule:evenodd;stroke:#000000;stroke-width:1pt"
         transform="matrix(-0.2,0,0,-0.2,-1.2,0)" />
    </marker>
    <marker
       inkscape:stockid="Arrow1Send"
       orient="auto"
       refY="0"
       refX="0"
       id="marker5297"
       style="overflow:visible">
      <path
         inkscape:connector-curvature="0"
         id="path5299"
         d="M 0,0 5,-5 -12.5,0 5,5 0,0 z"
         style="fill-rule:evenodd;stroke:#000000;stroke-width:1pt"
         transform="matrix(-0.2,0,0,-0.2,-1.2,0)" />
    </marker>
    <marker
       inkscape:stockid="Arrow1Send"
       orient="auto"
       refY="0"
       refX="0"
       id="marker5301"
       style="overflow:visible">
      <path
         inkscape:connector-curvature="0"
         id="path5303"
         d="M 0,0 5,-5 -12.5,0 5,5 0,0 z"
         style="fill-rule:evenodd;stroke:#000000;stroke-width:1pt"
         transform="matrix(-0.2,0,0,-0.2,-1.2,0)" />
    </marker>
    <marker
       inkscape:stockid="Arrow1Send"
       orient="auto"
       refY="0"
       refX="0"
       id="marker5305"
       style="overflow:visible">
      <path
         inkscape:connector-curvature="0"
         id="path5307"
         d="M 0,0 5,-5 -12.5,0 5,5 0,0 z"
         style="fill-rule:evenodd;stroke:#000000;stroke-width:1pt"
         transform="matrix(-0.2,0,0,-0.2,-1.2,0)" />
    </marker>
    <marker
       inkscape:stockid="Arrow1Send"
       orient="auto"
       refY="0"
       refX="0"
       id="marker5309"
       style="overflow:visible">
      <path
         inkscape:connector-curvature="0"
         id="path5311"
         d="M 0,0 5,-5 -12.5,0 5,5 0,0 z"
         style="fill-rule:evenodd;stroke:#000000;stroke-width:1pt"
         transform="matrix(-0.2,0,0,-0.2,-1.2,0)" />
    </marker>
    <marker
       inkscape:stockid="Arrow1Send"
       orient="auto"
       refY="0"
       refX="0"
       id="marker5313"
       style="overflow:visible">
      <path
         inkscape:connector-curvature="0"
         id="path5315"
         d="M 0,0 5,-5 -12.5,0 5,5 0,0 z"
         style="fill-rule:evenodd;stroke:#000000;stroke-width:1pt"
         transform="matrix(-0.2,0,0,-0.2,-1.2,0)" />
    </marker>
    <marker
       inkscape:stockid="Arrow1Send"
       orient="auto"
       refY="0"
       refX="0"
       id="marker5317"
       style="overflow:visible">
      <path
         inkscape:connector-curvature="0"
         id="path5319"
         d="M 0,0 5,-5 -12.5,0 5,5 0,0 z"
         style="fill-rule:evenodd;stroke:#000000;stroke-width:1pt"
         transform="matrix(-0.2,0,0,-0.2,-1.2,0)" />
    </marker>
    <marker
       inkscape:stockid="Arrow1Send"
       orient="auto"
       refY="0"
       refX="0"
       id="marker5321"
       style="overflow:visible">
      <path
         inkscape:connector-curvature="0"
         id="path5323"
         d="M 0,0 5,-5 -12.5,0 5,5 0,0 z"
         style="fill-rule:evenodd;stroke:#000000;stroke-width:1pt"
         transform="matrix(-0.2,0,0,-0.2,-1.2,0)" />
    </marker>
    <marker
       inkscape:stockid="Arrow1Send"
       orient="auto"
       refY="0"
       refX="0"
       id="marker5325"
       style="overflow:visible">
      <path
         inkscape:connector-curvature="0"
         id="path5327"
         d="M 0,0 5,-5 -12.5,0 5,5 0,0 z"
         style="fill-rule:evenodd;stroke:#000000;stroke-width:1pt"
         transform="matrix(-0.2,0,0,-0.2,-1.2,0)" />
    </marker>
    <marker
       inkscape:stockid="Arrow1Send"
       orient="auto"
       refY="0"
       refX="0"
       id="Arrow1Send-0"
       style="overflow:visible">
      <path
         id="path3947-7"
         d="M 0,0 5,-5 -12.5,0 5,5 0,0 z"
         style="fill-rule:evenodd;stroke:#000000;stroke-width:1pt"
         transform="matrix(-0.2,0,0,-0.2,-1.2,0)"
         inkscape:connector-curvature="0" />
    </marker>
    <marker
       inkscape:stockid="Arrow1Send"
       orient="auto"
       refY="0"
       refX="0"
       id="marker3312"
       style="overflow:visible">
      <path
         id="path3314"
         d="M 0,0 5,-5 -12.5,0 5,5 0,0 z"
         style="fill-rule:evenodd;stroke:#000000;stroke-width:1pt"
         transform="matrix(-0.2,0,0,-0.2,-1.2,0)"
         inkscape:connector-curvature="0" />
    </marker>
    <marker
       inkscape:stockid="Arrow1Send"
       orient="auto"
       refY="0"
       refX="0"
       id="marker3316"
       style="overflow:visible">
      <path
         id="path3318"
         d="M 0,0 5,-5 -12.5,0 5,5 0,0 z"
         style="fill-rule:evenodd;stroke:#000000;stroke-width:1pt"
         transform="matrix(-0.2,0,0,-0.2,-1.2,0)"
         inkscape:connector-curvature="0" />
    </marker>
    <marker
       inkscape:stockid="Arrow1Send"
       orient="auto"
       refY="0"
       refX="0"
       id="marker3320"
       style="overflow:visible">
      <path
         id="path3322"
         d="M 0,0 5,-5 -12.5,0 5,5 0,0 z"
         style="fill-rule:evenodd;stroke:#000000;stroke-width:1pt"
         transform="matrix(-0.2,0,0,-0.2,-1.2,0)"
         inkscape:connector-curvature="0" />
    </marker>
    <marker
       inkscape:stockid="Arrow1Send"
       orient="auto"
       refY="0"
       refX="0"
       id="marker3324"
       style="overflow:visible">
      <path
         id="path3326"
         d="M 0,0 5,-5 -12.5,0 5,5 0,0 z"
         style="fill-rule:evenodd;stroke:#000000;stroke-width:1pt"
         transform="matrix(-0.2,0,0,-0.2,-1.2,0)"
         inkscape:connector-curvature="0" />
    </marker>
    <marker
       inkscape:stockid="Arrow1Send"
       orient="auto"
       refY="0"
       refX="0"
       id="marker3328"
       style="overflow:visible">
      <path
         id="path3330"
         d="M 0,0 5,-5 -12.5,0 5,5 0,0 z"
         style="fill-rule:evenodd;stroke:#000000;stroke-width:1pt"
         transform="matrix(-0.2,0,0,-0.2,-1.2,0)"
         inkscape:connector-curvature="0" />
    </marker>
    <marker
       inkscape:stockid="Arrow1Send"
       orient="auto"
       refY="0"
       refX="0"
       id="marker3332"
       style="overflow:visible">
      <path
         id="path3334"
         d="M 0,0 5,-5 -12.5,0 5,5 0,0 z"
         style="fill-rule:evenodd;stroke:#000000;stroke-width:1pt"
         transform="matrix(-0.2,0,0,-0.2,-1.2,0)"
         inkscape:connector-curvature="0" />
    </marker>
    <marker
       inkscape:stockid="Arrow1Send"
       orient="auto"
       refY="0"
       refX="0"
       id="marker3336"
       style="overflow:visible">
      <path
         id="path3338"
         d="M 0,0 5,-5 -12.5,0 5,5 0,0 z"
         style="fill-rule:evenodd;stroke:#000000;stroke-width:1pt"
         transform="matrix(-0.2,0,0,-0.2,-1.2,0)"
         inkscape:connector-curvature="0" />
    </marker>
    <marker
       inkscape:stockid="Arrow1Send"
       orient="auto"
       refY="0"
       refX="0"
       id="marker3340"
       style="overflow:visible">
      <path
         id="path3342"
         d="M 0,0 5,-5 -12.5,0 5,5 0,0 z"
         style="fill-rule:evenodd;stroke:#000000;stroke-width:1pt"
         transform="matrix(-0.2,0,0,-0.2,-1.2,0)"
         inkscape:connector-curvature="0" />
    </marker>
    <marker
       inkscape:stockid="Arrow1Send"
       orient="auto"
       refY="0"
       refX="0"
       id="Arrow1Send-3"
       style="overflow:visible">
      <path
         id="path3947-74"
         d="M 0,0 5,-5 -12.5,0 5,5 0,0 z"
         style="fill-rule:evenodd;stroke:#000000;stroke-width:1pt"
         transform="matrix(-0.2,0,0,-0.2,-1.2,0)"
         inkscape:connector-curvature="0" />
    </marker>
    <marker
       inkscape:stockid="Arrow1Send"
       orient="auto"
       refY="0"
       refX="0"
       id="marker3163"
       style="overflow:visible">
      <path
         id="path3165"
         d="M 0,0 5,-5 -12.5,0 5,5 0,0 z"
         style="fill-rule:evenodd;stroke:#000000;stroke-width:1pt"
         transform="matrix(-0.2,0,0,-0.2,-1.2,0)"
         inkscape:connector-curvature="0" />
    </marker>
    <marker
       inkscape:stockid="Arrow1Send"
       orient="auto"
       refY="0"
       refX="0"
       id="marker3167"
       style="overflow:visible">
      <path
         id="path3169"
         d="M 0,0 5,-5 -12.5,0 5,5 0,0 z"
         style="fill-rule:evenodd;stroke:#000000;stroke-width:1pt"
         transform="matrix(-0.2,0,0,-0.2,-1.2,0)"
         inkscape:connector-curvature="0" />
    </marker>
    <marker
       inkscape:stockid="Arrow1Send"
       orient="auto"
       refY="0"
       refX="0"
       id="marker3171"
       style="overflow:visible">
      <path
         id="path3173"
         d="M 0,0 5,-5 -12.5,0 5,5 0,0 z"
         style="fill-rule:evenodd;stroke:#000000;stroke-width:1pt"
         transform="matrix(-0.2,0,0,-0.2,-1.2,0)"
         inkscape:connector-curvature="0" />
    </marker>
    <marker
       inkscape:stockid="Arrow1Send"
       orient="auto"
       refY="0"
       refX="0"
       id="marker3175"
       style="overflow:visible">
      <path
         id="path3177"
         d="M 0,0 5,-5 -12.5,0 5,5 0,0 z"
         style="fill-rule:evenodd;stroke:#000000;stroke-width:1pt"
         transform="matrix(-0.2,0,0,-0.2,-1.2,0)"
         inkscape:connector-curvature="0" />
    </marker>
    <marker
       inkscape:stockid="Arrow1Send"
       orient="auto"
       refY="0"
       refX="0"
       id="marker3179"
       style="overflow:visible">
      <path
         id="path3181"
         d="M 0,0 5,-5 -12.5,0 5,5 0,0 z"
         style="fill-rule:evenodd;stroke:#000000;stroke-width:1pt"
         transform="matrix(-0.2,0,0,-0.2,-1.2,0)"
         inkscape:connector-curvature="0" />
    </marker>
    <marker
       inkscape:stockid="Arrow1Send"
       orient="auto"
       refY="0"
       refX="0"
       id="marker3183"
       style="overflow:visible">
      <path
         id="path3185"
         d="M 0,0 5,-5 -12.5,0 5,5 0,0 z"
         style="fill-rule:evenodd;stroke:#000000;stroke-width:1pt"
         transform="matrix(-0.2,0,0,-0.2,-1.2,0)"
         inkscape:connector-curvature="0" />
    </marker>
    <marker
       inkscape:stockid="Arrow1Send"
       orient="auto"
       refY="0"
       refX="0"
       id="marker3187"
       style="overflow:visible">
      <path
         id="path3189"
         d="M 0,0 5,-5 -12.5,0 5,5 0,0 z"
         style="fill-rule:evenodd;stroke:#000000;stroke-width:1pt"
         transform="matrix(-0.2,0,0,-0.2,-1.2,0)"
         inkscape:connector-curvature="0" />
    </marker>
    <marker
       inkscape:stockid="Arrow1Send"
       orient="auto"
       refY="0"
       refX="0"
       id="marker3191"
       style="overflow:visible">
      <path
         id="path3193"
         d="M 0,0 5,-5 -12.5,0 5,5 0,0 z"
         style="fill-rule:evenodd;stroke:#000000;stroke-width:1pt"
         transform="matrix(-0.2,0,0,-0.2,-1.2,0)"
         inkscape:connector-curvature="0" />
    </marker>
    <marker
       inkscape:stockid="Arrow1Send"
       orient="auto"
       refY="0"
       refX="0"
       id="marker3195"
       style="overflow:visible">
      <path
         id="path3197"
         d="M 0,0 5,-5 -12.5,0 5,5 0,0 z"
         style="fill-rule:evenodd;stroke:#000000;stroke-width:1pt"
         transform="matrix(-0.2,0,0,-0.2,-1.2,0)"
         inkscape:connector-curvature="0" />
    </marker>
    <marker
       inkscape:stockid="Arrow1Send"
       orient="auto"
       refY="0"
       refX="0"
       id="marker3199"
       style="overflow:visible">
      <path
         id="path3201"
         d="M 0,0 5,-5 -12.5,0 5,5 0,0 z"
         style="fill-rule:evenodd;stroke:#000000;stroke-width:1pt"
         transform="matrix(-0.2,0,0,-0.2,-1.2,0)"
         inkscape:connector-curvature="0" />
    </marker>
    <marker
       inkscape:stockid="Arrow1Send"
       orient="auto"
       refY="0"
       refX="0"
       id="marker3203"
       style="overflow:visible">
      <path
         id="path3205"
         d="M 0,0 5,-5 -12.5,0 5,5 0,0 z"
         style="fill-rule:evenodd;stroke:#000000;stroke-width:1pt"
         transform="matrix(-0.2,0,0,-0.2,-1.2,0)"
         inkscape:connector-curvature="0" />
    </marker>
    <marker
       inkscape:stockid="Arrow1Send"
       orient="auto"
       refY="0"
       refX="0"
       id="marker3207"
       style="overflow:visible">
      <path
         id="path3209"
         d="M 0,0 5,-5 -12.5,0 5,5 0,0 z"
         style="fill-rule:evenodd;stroke:#000000;stroke-width:1pt"
         transform="matrix(-0.2,0,0,-0.2,-1.2,0)"
         inkscape:connector-curvature="0" />
    </marker>
    <marker
       inkscape:stockid="Arrow1Send"
       orient="auto"
       refY="0"
       refX="0"
       id="marker3211"
       style="overflow:visible">
      <path
         id="path3213"
         d="M 0,0 5,-5 -12.5,0 5,5 0,0 z"
         style="fill-rule:evenodd;stroke:#000000;stroke-width:1pt"
         transform="matrix(-0.2,0,0,-0.2,-1.2,0)"
         inkscape:connector-curvature="0" />
    </marker>
    <marker
       inkscape:stockid="Arrow1Send"
       orient="auto"
       refY="0"
       refX="0"
       id="marker3215"
       style="overflow:visible">
      <path
         id="path3217"
         d="M 0,0 5,-5 -12.5,0 5,5 0,0 z"
         style="fill-rule:evenodd;stroke:#000000;stroke-width:1pt"
         transform="matrix(-0.2,0,0,-0.2,-1.2,0)"
         inkscape:connector-curvature="0" />
    </marker>
    <marker
       inkscape:stockid="Arrow1Send"
       orient="auto"
       refY="0"
       refX="0"
       id="Arrow1Send-39"
       style="overflow:visible">
      <path
         inkscape:connector-curvature="0"
         id="path3947-6"
         d="M 0,0 5,-5 -12.5,0 5,5 0,0 z"
         style="fill-rule:evenodd;stroke:#000000;stroke-width:1pt"
         transform="matrix(-0.2,0,0,-0.2,-1.2,0)" />
    </marker>
  </defs>
  <sodipodi:namedview
     id="base"
     pagecolor="#ffffff"
     bordercolor="#666666"
     borderopacity="1.0"
     inkscape:pageopacity="0.0"
     inkscape:pageshadow="2"
     inkscape:zoom="0.58"
     inkscape:cx="-196.7983"
     inkscape:cy="431.66028"
     inkscape:document-units="px"
     inkscape:current-layer="layer1"
     showgrid="false"
     inkscape:window-width="1600"
     inkscape:window-height="824"
     inkscape:window-x="0"
     inkscape:window-y="24"
     inkscape:window-maximized="1"
     fit-margin-top="0"
     fit-margin-left="0"
     fit-margin-right="0"
     fit-margin-bottom="0" />
  <metadata
     id="metadata5397">
    <rdf:RDF>
      <cc:Work
         rdf:about="">
        <dc:format>image/svg+xml</dc:format>
        <dc:type
           rdf:resource="http://purl.org/dc/dcmitype/StillImage" />
        <dc:title />
      </cc:Work>
    </rdf:RDF>
  </metadata>
  <g
     inkscape:label="Layer 1"
     inkscape:groupmode="layer"
     id="layer1"
     transform="translate(35.098252,-122.09642)">
    <path
       style="opacity:0.41563786000000003;fill:#0087ce;stroke:none;fill-opacity:0.92156863"
       inkscape:connector-curvature="0"
       id="path19"
       d="m 777.48453,710.0928 c 0,0 -334.00408,0 -334.00408,0 -10.83257,0 -21.66514,31.18304 -21.66514,62.36608 0,0 0,62.36608 0,62.36608 0,31.18305 10.83257,62.36609 21.66514,62.36609 0,0 334.00408,0 334.00408,0 10.83257,0 21.66513,-31.18304 21.66513,-62.36609 0,0 0,-62.36608 0,-62.36608 0,-31.18304 -10.83256,-62.36608 -21.66513,-62.36608" />
    <text
       style="font-size:26.1007576px;text-anchor:middle;font-family:'Times,serif'"
       id="text21"
       font-size="14.00"
       y="667.78265"
       x="672.29102"
       transform="scale(0.88344293,1.131935)" />
    <text
       sodipodi:linespacing="125%"
       id="text4536"
       y="666.95856"
       x="486.17249"
       style="font-size:21.77538109px;font-style:normal;font-variant:normal;font-weight:normal;font-stretch:normal;text-align:start;line-height:125%;letter-spacing:0px;word-spacing:0px;writing-mode:lr-tb;text-anchor:start;fill:#000000;fill-opacity:1;stroke:none;font-family:Arial;-inkscape-font-specification:Sans"
       xml:space="preserve"
       transform="scale(0.88344293,1.131935)"><tspan
         style="font-size:26.1007576px"
         y="666.95856"
         x="486.17249"
         id="tspan4538"
         sodipodi:role="line">pkt.saved_hop = saved_hop[pkt.id]</tspan></text>
    <g
       id="node3"
       class="node"
       transform="matrix(1.5795846,0,0,2.1103115,-221.0756,872.94644)">
      <title
         id="title31">6812949046131294349</title>
      <path
         d="m 466.83653,-252 c 0,0 -177.85134,0 -177.85134,0 -6.2771,0 -12.55421,6 -12.55421,12 0,0 0,12 0,12 0,6 6.27711,12 12.55421,12 0,0 177.85134,0 177.85134,0 6.2771,0 12.55421,-6 12.55421,-12 0,0 0,-12 0,-12 0,-6 -6.27711,-12 -12.55421,-12"
         id="path33"
         inkscape:connector-curvature="0"
         style="opacity:0.41600001;fill:#0087ce;fill-opacity:0.92156863;stroke:none" />
      <text
         x="377.5"
         y="-235.20204"
         font-size="14.00"
         id="text35"
         style="font-size:14px;text-anchor:middle;font-family:'Times,serif'">
        <tspan
           style="font-style:normal;font-variant:normal;font-weight:normal;font-stretch:normal;font-family:Arial;-inkscape-font-specification:Arial"
           id="tspan4468">pkt.last_time = last_time[pkt.id]</tspan>
      </text>
    </g>
    <g
       transform="matrix(1.25,0,0,1.25,-147.49292,602.01104)"
       id="edge2"
       class="edge">
      <title
         id="title38">18281271252100618662-&gt;6812949046131294349</title>
    </g>
    <g
       id="node6"
       class="node"
       transform="matrix(1.5795846,0,0,2.1103115,6.3845917,850.94644)">
      <title
         id="title73">9793423270683058164</title>
      <path
         d="m 206.69924,-180 c 0,0 -198.3936691,0 -198.3936691,0 -6.2322619,0 -12.4645238,6 -12.4645238,12 0,0 0,12 0,12 0,6 6.2322619,12 12.4645238,12 0,0 198.3936691,0 198.3936691,0 6.23227,0 12.46453,-6 12.46453,-12 0,0 0,-12 0,-12 0,-6 -6.23226,-12 -12.46453,-12"
         id="path75"
         inkscape:connector-curvature="0"
         style="fill:#ffffff;stroke:#000000;stroke-width:1.01917136" />
      <text
         x="107.5"
         y="-158.3"
         font-size="14.00"
         id="text77"
         style="font-size:14px;text-anchor:middle;font-family:'Times,serif'">
        <tspan
           style="font-style:normal;font-variant:normal;font-weight:normal;font-stretch:normal;font-family:Arial;-inkscape-font-specification:Arial"
           id="tspan4494">pkt.tmp = pkt.arrival - pkt.last_time</tspan>
      </text>
    </g>
    <g
       id="node7"
       class="node"
       transform="matrix(1.5795846,0,0,2.1103115,-69.43548,850.94644)">
      <title
         id="title87">13686169344497402900</title>
      <text
         x="377.5"
         y="-158.3"
         font-size="14.00"
         id="text91"
         style="font-size:14px;text-anchor:middle;font-family:'Times,serif'" />
      <text
         xml:space="preserve"
         style="font-size:11.67994213px;font-style:normal;font-variant:normal;font-weight:normal;font-stretch:normal;text-align:start;line-height:125%;letter-spacing:0px;word-spacing:0px;writing-mode:lr-tb;text-anchor:start;fill:#000000;fill-opacity:1;stroke:none;font-family:Arial;-inkscape-font-specification:Sans"
         x="190.60208"
         y="-212.46515"
         id="text4518"
         sodipodi:linespacing="125%"><tspan
           sodipodi:role="line"
           id="tspan4520"
           x="190.60208"
           y="-212.46515"
           style="font-size:14px">last_time[pkt.id] = pkt.arrival</tspan></text>
    </g>
    <g
       id="node9"
       class="node"
       transform="matrix(1.5795846,0,0,2.1103115,56.931292,826.94644)">
      <title
         id="title108">12723286500395325711</title>
      <path
         d="m 180.89396,-108 c 0,0 -187.592275,0 -187.592275,0 C -15.849157,-108 -25,-102 -25,-96 c 0,0 0,12 0,12 0,6 9.150843,12 18.301685,12 0,0 187.592275,0 187.592275,0 9.15084,0 18.30168,-6 18.30168,-12 0,0 0,-12 0,-12 0,-6 -9.15084,-12 -18.30168,-12"
         id="path110"
         inkscape:connector-curvature="0"
         style="fill:#ffffff;stroke:#000000;stroke-width:1.2349658" />
      <text
         x="80.5"
         y="-86.300003"
         font-size="14.00"
         id="text112"
         style="font-size:14px;text-anchor:middle;font-family:'Times,serif'" />
      <text
         xml:space="preserve"
         style="font-size:11.67994213px;font-style:normal;font-variant:normal;font-weight:normal;font-stretch:normal;text-align:start;line-height:125%;letter-spacing:0px;word-spacing:0px;writing-mode:lr-tb;text-anchor:start;fill:#000000;fill-opacity:1;stroke:none;font-family:Arial;-inkscape-font-specification:Sans"
         x="-20.150612"
         y="-85.27845"
         id="text4496"
         sodipodi:linespacing="125%"><tspan
           sodipodi:role="line"
           id="tspan4498"
           x="-20.150612"
           y="-85.27845"
           style="font-size:14px">pkt.tmp2 = pkt.tmp &gt; THRESHOLD</tspan></text>
    </g>
    <g
       id="node8"
       class="node"
       transform="matrix(1.5795846,0,0,2.1103115,-170.52889,938.00644)">
      <title
         id="title129">15027130736822862391</title>
      <path
         d="m 342.9467,-108 c 0,0 -205.35853,0 -205.35853,0 -3.83848,0 -7.67695,14.954197 -7.67695,29.908393 0,0 0,29.908395 0,29.908395 0,14.954196 3.83847,29.908393 7.67695,29.908393 0,0 205.35853,0 205.35853,0 3.83848,0 7.67695,-14.954197 7.67695,-29.908393 0,0 0,-29.908395 0,-29.908395 C 350.62365,-93.045803 346.78518,-108 342.9467,-108"
         id="path131"
         inkscape:connector-curvature="0"
         style="fill:#ffffff;stroke:#000000;stroke-width:1.26272798" />
      <text
         x="344.5"
         y="-86.300003"
         font-size="14.00"
         id="text133"
         style="font-size:14px;text-anchor:middle;font-family:'Times,serif'">
        <tspan
           style="font-style:normal;font-variant:normal;font-weight:normal;font-stretch:normal;font-family:Arial;-inkscape-font-specification:Arial"
           id="tspan4500" />
      </text>
      <text
         xml:space="preserve"
         style="font-size:11.67994213px;font-style:normal;font-variant:normal;font-weight:normal;font-stretch:normal;text-align:start;line-height:125%;letter-spacing:0px;word-spacing:0px;writing-mode:lr-tb;text-anchor:start;fill:#000000;fill-opacity:1;stroke:none;font-family:Arial;-inkscape-font-specification:Sans"
         x="136.66307"
         y="-85.278458"
         id="text4506"
         sodipodi:linespacing="125%"><tspan
           sodipodi:role="line"
           id="tspan4508"
           x="136.66307"
           y="-85.278458"
           style="font-size:14px">pkt.new_hop = hash3(pkt.sport,</tspan><tspan
           sodipodi:role="line"
           x="136.66307"
           y="-67.778458"
           style="font-size:14px"
           id="tspan4510">                                    pkt.dport,</tspan><tspan
           sodipodi:role="line"
           x="136.66307"
           y="-50.278458"
           style="font-size:14px"
           id="tspan4512">                                    pkt.arrival) </tspan><tspan
           sodipodi:role="line"
           x="136.66307"
           y="-32.778458"
           style="font-size:14px"
           id="tspan4526">                         % NUM_HOPS</tspan></text>
    </g>
    <g
       id="node1"
       class="node"
       transform="matrix(1.1697136,0,0,3.96795,-176.66481,1409.6962)">
      <title
         id="title10">18281271252100618662</title>
      <path
         d="m 610.5,-324 c 0,0 -232,0 -232,0 -6,0 -12,6 -12,12 0,0 0,12 0,12 0,6 6,12 12,12 0,0 232,0 232,0 6,0 12,-6 12,-12 0,0 0,-12 0,-12 0,-6 -6,-12 -12,-12"
         id="path12"
         inkscape:connector-curvature="0"
         style="fill:#ffffff;stroke:#000000" />
      <text
         x="494.5"
         y="-302.29999"
         font-size="14.00"
         id="text14"
         style="font-size:14px;text-anchor:middle;font-family:'Times,serif'" />
    </g>
    <text
       xml:space="preserve"
       style="font-size:21.32482338px;font-style:normal;font-variant:normal;font-weight:normal;font-stretch:normal;text-align:start;line-height:125%;letter-spacing:0px;word-spacing:0px;writing-mode:lr-tb;text-anchor:start;fill:#000000;fill-opacity:1;stroke:none;font-family:Arial;-inkscape-font-specification:Sans"
       x="299.74295"
       y="146.38422"
       id="text3148"
       sodipodi:linespacing="125%"
       transform="scale(0.86516341,1.155851)"><tspan
         sodipodi:role="line"
         id="tspan3150"
         x="299.74295"
         y="146.38422"
         style="font-size:25.56070137px">pkt.id = hash2(pkt.sport,</tspan><tspan
         sodipodi:role="line"
         x="299.74295"
         y="178.3351"
         style="font-size:25.56070137px"
         id="tspan4514">                        pkt.dport)</tspan><tspan
         sodipodi:role="line"
         x="299.74295"
         y="210.28596"
         style="font-size:25.56070137px"
         id="tspan4516">             %NUM_FLOWLETS</tspan></text>
    <path
       style="fill:none;stroke:#000000;stroke-width:7.30305767;stroke-linecap:butt;stroke-linejoin:miter;stroke-miterlimit:4;stroke-opacity:1;stroke-dasharray:none;marker-end:url(#Arrow1Send)"
       d="m 306.84147,263.76708 -0.95048,58.00563"
       id="path3158-2"
       inkscape:connector-curvature="0"
       sodipodi:nodetypes="cc" />
    <path
       style="fill:none;stroke:#000000;stroke-width:7.30305767;stroke-linecap:butt;stroke-linejoin:miter;stroke-miterlimit:4;stroke-opacity:1;stroke-dasharray:none;marker-end:url(#Arrow1Send)"
       d="m 245.33196,414.75226 -42.00727,41.62632"
       id="path3158-2-2"
       inkscape:connector-curvature="0"
       sodipodi:nodetypes="cc" />
    <path
       style="fill:none;stroke:#000000;stroke-width:7.30305767;stroke-linecap:butt;stroke-linejoin:miter;stroke-miterlimit:4;stroke-opacity:1;stroke-dasharray:none;marker-end:url(#Arrow1Send)"
       d="m 174.39087,532.5168 1.15591,55.10857"
       id="path3158-2-2-0"
       inkscape:connector-curvature="0"
       sodipodi:nodetypes="cc" />
    <path
       style="fill:none;stroke:#000000;stroke-width:7.30305767;stroke-linecap:butt;stroke-linejoin:miter;stroke-miterlimit:4;stroke-opacity:1;stroke-dasharray:none;marker-end:url(#Arrow1Send)"
       d="m 384.03018,817.99063 36.24057,0.56724"
       id="path3158-1"
       inkscape:connector-curvature="0"
       sodipodi:nodetypes="cc" />
    <path
       style="fill:none;stroke:#000000;stroke-width:7.30305767;stroke-linecap:butt;stroke-linejoin:miter;stroke-miterlimit:4;stroke-opacity:1;stroke-dasharray:none;marker-end:url(#Arrow1Send)"
       d="M 469.61007,898.12026 374.88792,1010.7486"
       id="path3158-1-5"
       inkscape:connector-curvature="0"
       sodipodi:nodetypes="cc" />
    <path
       style="fill:none;stroke:#000000;stroke-width:7.30305767;stroke-linecap:butt;stroke-linejoin:miter;stroke-miterlimit:4;stroke-opacity:1;stroke-dasharray:none;marker-end:url(#Arrow1Send)"
       d="m 552.95225,188.0492 c 160.6512,306.26923 149.0753,349.13899 184.1172,512.30824"
       id="path3158-4"
       inkscape:connector-curvature="0"
       sodipodi:nodetypes="cc" />
    <path
       style="fill:none;stroke:#000000;stroke-width:7.30305767;stroke-linecap:butt;stroke-linejoin:miter;stroke-miterlimit:4;stroke-opacity:1;stroke-dasharray:none;marker-end:url(#Arrow1Send)"
       d="m 215.74848,896.09404 1.07014,48.0468"
       id="path3158-1-5-3"
       inkscape:connector-curvature="0"
       sodipodi:nodetypes="cc" />
    <path
       style="fill:none;stroke:#000000;stroke-width:7.30305767;stroke-linecap:butt;stroke-linejoin:miter;stroke-miterlimit:4;stroke-opacity:1;stroke-dasharray:none;marker-end:url(#Arrow1Send)"
       d="m 21.272002,669.04164 c -53.56481,94.2526 -99.28422,202.9731 37.19504,286.338"
       id="path3158-1-5-3-5"
       inkscape:connector-curvature="0"
       sodipodi:nodetypes="cc" />
    <g
       id="node4"
       class="node"
       transform="matrix(1.5795846,0,0,2.1103115,-170.52889,1027.3013)">
      <title
         id="title45">13080825001612736941</title>
      <path
         d="m 334.99936,-36 c 0,0 -187.39793,0 -187.39793,0 -3.71085,0 -7.4217,11.803541 -7.4217,23.607083 0,0 0,23.607083 0,23.607083 0,11.803541 3.71085,23.607083 7.4217,23.607083 0,0 187.39793,0 187.39793,0 3.71086,0 7.4217,-11.803542 7.4217,-23.607083 0,0 0,-23.607083 0,-23.607083 C 342.42106,-24.196459 338.71022,-36 334.99936,-36"
         id="path47"
         inkscape:connector-curvature="0"
         style="fill:#ffffff;stroke:#000000;stroke-width:1.10304093" />
      <text
         x="281.5"
         y="-14.3"
         font-size="14.00"
         id="text49"
         style="font-size:14px;font-style:normal;font-variant:normal;font-weight:normal;font-stretch:normal;text-anchor:middle;font-family:Arial;-inkscape-font-specification:Arial" />
      <text
         xml:space="preserve"
         style="font-size:14.5999279px;font-style:normal;font-variant:normal;font-weight:normal;font-stretch:normal;text-align:start;line-height:125%;letter-spacing:0px;word-spacing:0px;writing-mode:lr-tb;text-anchor:start;fill:#000000;fill-opacity:1;stroke:none;font-family:Arial;-inkscape-font-specification:Sans"
         x="188.43607"
         y="452.50427"
         id="text4540"
         sodipodi:linespacing="125%"
         transform="matrix(0.8,0,0,0.8,-4.25,-376)"><tspan
           sodipodi:role="line"
           id="tspan4542"
           x="188.43607"
           y="452.50427"
           style="font-size:17.5px">pkt.next_hop =  pkt.tmp2 ?</tspan><tspan
           sodipodi:role="line"
           x="188.43607"
           y="474.37927"
           style="font-size:17.5px"
           id="tspan4544">                         pkt.new_hop :</tspan><tspan
           sodipodi:role="line"
           x="188.43607"
           y="496.25427"
           style="font-size:17.5px"
           id="tspan4546">                         pkt.saved_hop</tspan></text>
    </g>
    <g
       id="node5"
       class="node"
       transform="matrix(1.5795846,0,0,2.1103115,-296.89567,1027.3013)">
      <title
         id="title59">4151992980388096987</title>
      <text
         x="639.5"
         y="-14.3"
         font-size="14.00"
         id="text63"
         style="font-size:14px;text-anchor:middle;font-family:'Times,serif'" />
      <text
         xml:space="preserve"
         style="font-size:11.67994213px;font-style:normal;font-variant:normal;font-weight:normal;font-stretch:normal;text-align:start;line-height:125%;letter-spacing:0px;word-spacing:0px;writing-mode:lr-tb;text-anchor:start;fill:#000000;fill-opacity:1;stroke:none;font-family:Arial;-inkscape-font-specification:Sans"
         x="458.97363"
         y="-111.1493"
         id="text4528"
         sodipodi:linespacing="125%"><tspan
           sodipodi:role="line"
           id="tspan4530"
           x="458.97363"
           y="-111.1493"
           style="font-size:14px">saved_hop[pkt.id] =   pkt.tmp2 ?</tspan><tspan
           sodipodi:role="line"
           x="458.97363"
           y="-93.6493"
           style="font-size:14px"
           id="tspan4532">                                  pkt.new_hop :</tspan><tspan
           sodipodi:role="line"
           x="458.97363"
           y="-76.1493"
           style="font-size:14px"
           id="tspan4534">                                  pkt.saved_hop</tspan></text>
    </g>
    <path
       style="fill:none;stroke:#000000;stroke-width:7.30305767;stroke-linecap:butt;stroke-linejoin:miter;stroke-miterlimit:4;stroke-opacity:1;stroke-dasharray:none;marker-end:url(#Arrow1Send)"
       d="m 376.71423,635.83148 125.9675,69.52491"
       id="path3158-1-5-0"
       inkscape:connector-curvature="0"
       sodipodi:nodetypes="cc" />
  </g>
</svg>
