<?xml version="1.0" encoding="UTF-8" standalone="no"?>
<!-- Generated by graphviz version 2.38.0 (20140413.2041)
 -->

<!-- Title: graph_output Pages: 1 -->

<svg
   xmlns:dc="http://purl.org/dc/elements/1.1/"
   xmlns:cc="http://creativecommons.org/ns#"
   xmlns:rdf="http://www.w3.org/1999/02/22-rdf-syntax-ns#"
   xmlns:svg="http://www.w3.org/2000/svg"
   xmlns="http://www.w3.org/2000/svg"
   xmlns:sodipodi="http://sodipodi.sourceforge.net/DTD/sodipodi-0.dtd"
   xmlns:inkscape="http://www.inkscape.org/namespaces/inkscape"
   width="1050.6047"
   height="900.45886"
   viewBox="0 0 839.97441 720.36709"
   id="svg2"
   version="1.1"
   inkscape:version="0.48.5 r10040"
   sodipodi:docname="scc.svg">
  <metadata
     id="metadata167">
    <rdf:RDF>
      <cc:Work
         rdf:about="">
        <dc:format>image/svg+xml</dc:format>
        <dc:type
           rdf:resource="http://purl.org/dc/dcmitype/StillImage" />
        <dc:title></dc:title>
      </cc:Work>
    </rdf:RDF>
  </metadata>
  <defs
     id="defs165">
    <marker
       inkscape:stockid="Arrow1Send"
       orient="auto"
       refY="0"
       refX="0"
       id="Arrow1Send"
       style="overflow:visible">
      <path
         id="path3947"
         d="M 0,0 5,-5 -12.5,0 5,5 0,0 z"
         style="fill-rule:evenodd;stroke:#000000;stroke-width:1pt"
         transform="matrix(-0.2,0,0,-0.2,-1.2,0)"
         inkscape:connector-curvature="0" />
    </marker>
    <marker
       inkscape:stockid="Arrow1Send"
       orient="auto"
       refY="0"
       refX="0"
       id="Arrow1Send-7"
       style="overflow:visible">
      <path
         inkscape:connector-curvature="0"
         id="path3947-1"
         d="M 0,0 5,-5 -12.5,0 5,5 0,0 z"
         style="fill-rule:evenodd;stroke:#000000;stroke-width:1pt"
         transform="matrix(-0.2,0,0,-0.2,-1.2,0)" />
    </marker>
    <marker
       inkscape:stockid="Arrow1Send"
       orient="auto"
       refY="0"
       refX="0"
       id="Arrow1Send-73"
       style="overflow:visible">
      <path
         inkscape:connector-curvature="0"
         id="path3947-9"
         d="M 0,0 5,-5 -12.5,0 5,5 0,0 z"
         style="fill-rule:evenodd;stroke:#000000;stroke-width:1pt"
         transform="matrix(-0.2,0,0,-0.2,-1.2,0)" />
    </marker>
    <marker
       inkscape:stockid="Arrow1Send"
       orient="auto"
       refY="0"
       refX="0"
       id="Arrow1Send-8"
       style="overflow:visible">
      <path
         inkscape:connector-curvature="0"
         id="path3947-17"
         d="M 0,0 5,-5 -12.5,0 5,5 0,0 z"
         style="fill-rule:evenodd;stroke:#000000;stroke-width:1pt"
         transform="matrix(-0.2,0,0,-0.2,-1.2,0)" />
    </marker>
    <marker
       inkscape:stockid="Arrow1Send"
       orient="auto"
       refY="0"
       refX="0"
       id="Arrow1Send-4"
       style="overflow:visible">
      <path
         inkscape:connector-curvature="0"
         id="path3947-6"
         d="M 0,0 5,-5 -12.5,0 5,5 0,0 z"
         style="fill-rule:evenodd;stroke:#000000;stroke-width:1pt"
         transform="matrix(-0.2,0,0,-0.2,-1.2,0)" />
    </marker>
    <marker
       inkscape:stockid="Arrow1Send"
       orient="auto"
       refY="0"
       refX="0"
       id="Arrow1Send-2"
       style="overflow:visible">
      <path
         inkscape:connector-curvature="0"
         id="path3947-7"
         d="M 0,0 5,-5 -12.5,0 5,5 0,0 z"
         style="fill-rule:evenodd;stroke:#000000;stroke-width:1pt"
         transform="matrix(-0.2,0,0,-0.2,-1.2,0)" />
    </marker>
    <marker
       inkscape:stockid="Arrow1Send"
       orient="auto"
       refY="0"
       refX="0"
       id="Arrow1Send-85"
       style="overflow:visible">
      <path
         inkscape:connector-curvature="0"
         id="path3947-4"
         d="M 0,0 5,-5 -12.5,0 5,5 0,0 z"
         style="fill-rule:evenodd;stroke:#000000;stroke-width:1pt"
         transform="matrix(-0.2,0,0,-0.2,-1.2,0)" />
    </marker>
    <marker
       inkscape:stockid="Arrow1Send"
       orient="auto"
       refY="0"
       refX="0"
       id="marker4560"
       style="overflow:visible">
      <path
         inkscape:connector-curvature="0"
         id="path4562"
         d="M 0,0 5,-5 -12.5,0 5,5 0,0 z"
         style="fill-rule:evenodd;stroke:#000000;stroke-width:1pt"
         transform="matrix(-0.2,0,0,-0.2,-1.2,0)" />
    </marker>
    <marker
       inkscape:stockid="Arrow1Send"
       orient="auto"
       refY="0"
       refX="0"
       id="Arrow1Send-29"
       style="overflow:visible">
      <path
         inkscape:connector-curvature="0"
         id="path3947-14"
         d="M 0,0 5,-5 -12.5,0 5,5 0,0 z"
         style="fill-rule:evenodd;stroke:#000000;stroke-width:1pt"
         transform="matrix(-0.2,0,0,-0.2,-1.2,0)" />
    </marker>
    <marker
       inkscape:stockid="Arrow1Send"
       orient="auto"
       refY="0"
       refX="0"
       id="Arrow1Send-0"
       style="overflow:visible">
      <path
         inkscape:connector-curvature="0"
         id="path3947-3"
         d="M 0,0 5,-5 -12.5,0 5,5 0,0 z"
         style="fill-rule:evenodd;stroke:#000000;stroke-width:1pt"
         transform="matrix(-0.2,0,0,-0.2,-1.2,0)" />
    </marker>
    <marker
       inkscape:stockid="Arrow1Send"
       orient="auto"
       refY="0"
       refX="0"
       id="Arrow1Send-9"
       style="overflow:visible">
      <path
         inkscape:connector-curvature="0"
         id="path3947-19"
         d="M 0,0 5,-5 -12.5,0 5,5 0,0 z"
         style="fill-rule:evenodd;stroke:#000000;stroke-width:1pt"
         transform="matrix(-0.2,0,0,-0.2,-1.2,0)" />
    </marker>
    <marker
       inkscape:stockid="Arrow1Send"
       orient="auto"
       refY="0"
       refX="0"
       id="Arrow1Send-82"
       style="overflow:visible">
      <path
         inkscape:connector-curvature="0"
         id="path3947-33"
         d="M 0,0 5,-5 -12.5,0 5,5 0,0 z"
         style="fill-rule:evenodd;stroke:#000000;stroke-width:1pt"
         transform="matrix(-0.2,0,0,-0.2,-1.2,0)" />
    </marker>
    <marker
       inkscape:stockid="Arrow1Send"
       orient="auto"
       refY="0"
       refX="0"
       id="Arrow1Send-70"
       style="overflow:visible">
      <path
         inkscape:connector-curvature="0"
         id="path3947-8"
         d="M 0,0 5,-5 -12.5,0 5,5 0,0 z"
         style="fill-rule:evenodd;stroke:#000000;stroke-width:1pt"
         transform="matrix(-0.2,0,0,-0.2,-1.2,0)" />
    </marker>
    <marker
       inkscape:stockid="Arrow1Send"
       orient="auto"
       refY="0"
       refX="0"
       id="Arrow1Send-86"
       style="overflow:visible">
      <path
         inkscape:connector-curvature="0"
         id="path3947-5"
         d="M 0,0 5,-5 -12.5,0 5,5 0,0 z"
         style="fill-rule:evenodd;stroke:#000000;stroke-width:1pt"
         transform="matrix(-0.2,0,0,-0.2,-1.2,0)" />
    </marker>
    <marker
       inkscape:stockid="Arrow1Send"
       orient="auto"
       refY="0"
       refX="0"
       id="Arrow1Send-6"
       style="overflow:visible">
      <path
         inkscape:connector-curvature="0"
         id="path3947-53"
         d="M 0,0 5,-5 -12.5,0 5,5 0,0 z"
         style="fill-rule:evenodd;stroke:#000000;stroke-width:1pt"
         transform="matrix(-0.2,0,0,-0.2,-1.2,0)" />
    </marker>
    <marker
       inkscape:stockid="Arrow1Send"
       orient="auto"
       refY="0"
       refX="0"
       id="Arrow1Send-25"
       style="overflow:visible">
      <path
         inkscape:connector-curvature="0"
         id="path3947-536"
         d="M 0,0 5,-5 -12.5,0 5,5 0,0 z"
         style="fill-rule:evenodd;stroke:#000000;stroke-width:1pt"
         transform="matrix(-0.2,0,0,-0.2,-1.2,0)" />
    </marker>
    <marker
       inkscape:stockid="Arrow1Send"
       orient="auto"
       refY="0"
       refX="0"
       id="Arrow1Send-49"
       style="overflow:visible">
      <path
         inkscape:connector-curvature="0"
         id="path3947-41"
         d="M 0,0 5,-5 -12.5,0 5,5 0,0 z"
         style="fill-rule:evenodd;stroke:#000000;stroke-width:1pt"
         transform="matrix(-0.2,0,0,-0.2,-1.2,0)" />
    </marker>
    <marker
       inkscape:stockid="Arrow1Send"
       orient="auto"
       refY="0"
       refX="0"
       id="marker4787"
       style="overflow:visible">
      <path
         inkscape:connector-curvature="0"
         id="path4789"
         d="M 0,0 5,-5 -12.5,0 5,5 0,0 z"
         style="fill-rule:evenodd;stroke:#000000;stroke-width:1pt"
         transform="matrix(-0.2,0,0,-0.2,-1.2,0)" />
    </marker>
    <marker
       inkscape:stockid="Arrow1Send"
       orient="auto"
       refY="0"
       refX="0"
       id="marker4791"
       style="overflow:visible">
      <path
         inkscape:connector-curvature="0"
         id="path4793"
         d="M 0,0 5,-5 -12.5,0 5,5 0,0 z"
         style="fill-rule:evenodd;stroke:#000000;stroke-width:1pt"
         transform="matrix(-0.2,0,0,-0.2,-1.2,0)" />
    </marker>
    <marker
       inkscape:stockid="Arrow1Send"
       orient="auto"
       refY="0"
       refX="0"
       id="marker4795"
       style="overflow:visible">
      <path
         inkscape:connector-curvature="0"
         id="path4797"
         d="M 0,0 5,-5 -12.5,0 5,5 0,0 z"
         style="fill-rule:evenodd;stroke:#000000;stroke-width:1pt"
         transform="matrix(-0.2,0,0,-0.2,-1.2,0)" />
    </marker>
    <marker
       inkscape:stockid="Arrow1Send"
       orient="auto"
       refY="0"
       refX="0"
       id="marker4799"
       style="overflow:visible">
      <path
         inkscape:connector-curvature="0"
         id="path4801"
         d="M 0,0 5,-5 -12.5,0 5,5 0,0 z"
         style="fill-rule:evenodd;stroke:#000000;stroke-width:1pt"
         transform="matrix(-0.2,0,0,-0.2,-1.2,0)" />
    </marker>
    <marker
       inkscape:stockid="Arrow1Send"
       orient="auto"
       refY="0"
       refX="0"
       id="marker4803"
       style="overflow:visible">
      <path
         inkscape:connector-curvature="0"
         id="path4805"
         d="M 0,0 5,-5 -12.5,0 5,5 0,0 z"
         style="fill-rule:evenodd;stroke:#000000;stroke-width:1pt"
         transform="matrix(-0.2,0,0,-0.2,-1.2,0)" />
    </marker>
    <marker
       inkscape:stockid="Arrow1Send"
       orient="auto"
       refY="0"
       refX="0"
       id="marker4807"
       style="overflow:visible">
      <path
         inkscape:connector-curvature="0"
         id="path4809"
         d="M 0,0 5,-5 -12.5,0 5,5 0,0 z"
         style="fill-rule:evenodd;stroke:#000000;stroke-width:1pt"
         transform="matrix(-0.2,0,0,-0.2,-1.2,0)" />
    </marker>
    <marker
       inkscape:stockid="Arrow1Send"
       orient="auto"
       refY="0"
       refX="0"
       id="marker4811"
       style="overflow:visible">
      <path
         inkscape:connector-curvature="0"
         id="path4813"
         d="M 0,0 5,-5 -12.5,0 5,5 0,0 z"
         style="fill-rule:evenodd;stroke:#000000;stroke-width:1pt"
         transform="matrix(-0.2,0,0,-0.2,-1.2,0)" />
    </marker>
    <marker
       inkscape:stockid="Arrow1Send"
       orient="auto"
       refY="0"
       refX="0"
       id="marker4815"
       style="overflow:visible">
      <path
         inkscape:connector-curvature="0"
         id="path4817"
         d="M 0,0 5,-5 -12.5,0 5,5 0,0 z"
         style="fill-rule:evenodd;stroke:#000000;stroke-width:1pt"
         transform="matrix(-0.2,0,0,-0.2,-1.2,0)" />
    </marker>
    <marker
       inkscape:stockid="Arrow1Send"
       orient="auto"
       refY="0"
       refX="0"
       id="marker4819"
       style="overflow:visible">
      <path
         inkscape:connector-curvature="0"
         id="path4821"
         d="M 0,0 5,-5 -12.5,0 5,5 0,0 z"
         style="fill-rule:evenodd;stroke:#000000;stroke-width:1pt"
         transform="matrix(-0.2,0,0,-0.2,-1.2,0)" />
    </marker>
    <marker
       inkscape:stockid="Arrow1Send"
       orient="auto"
       refY="0"
       refX="0"
       id="marker4823"
       style="overflow:visible">
      <path
         inkscape:connector-curvature="0"
         id="path4825"
         d="M 0,0 5,-5 -12.5,0 5,5 0,0 z"
         style="fill-rule:evenodd;stroke:#000000;stroke-width:1pt"
         transform="matrix(-0.2,0,0,-0.2,-1.2,0)" />
    </marker>
    <marker
       inkscape:stockid="Arrow1Send"
       orient="auto"
       refY="0"
       refX="0"
       id="marker4827"
       style="overflow:visible">
      <path
         inkscape:connector-curvature="0"
         id="path4829"
         d="M 0,0 5,-5 -12.5,0 5,5 0,0 z"
         style="fill-rule:evenodd;stroke:#000000;stroke-width:1pt"
         transform="matrix(-0.2,0,0,-0.2,-1.2,0)" />
    </marker>
    <marker
       inkscape:stockid="Arrow1Send"
       orient="auto"
       refY="0"
       refX="0"
       id="marker4831"
       style="overflow:visible">
      <path
         inkscape:connector-curvature="0"
         id="path4833"
         d="M 0,0 5,-5 -12.5,0 5,5 0,0 z"
         style="fill-rule:evenodd;stroke:#000000;stroke-width:1pt"
         transform="matrix(-0.2,0,0,-0.2,-1.2,0)" />
    </marker>
    <marker
       inkscape:stockid="Arrow1Send"
       orient="auto"
       refY="0"
       refX="0"
       id="marker4835"
       style="overflow:visible">
      <path
         inkscape:connector-curvature="0"
         id="path4837"
         d="M 0,0 5,-5 -12.5,0 5,5 0,0 z"
         style="fill-rule:evenodd;stroke:#000000;stroke-width:1pt"
         transform="matrix(-0.2,0,0,-0.2,-1.2,0)" />
    </marker>
    <marker
       inkscape:stockid="Arrow1Send"
       orient="auto"
       refY="0"
       refX="0"
       id="marker4839"
       style="overflow:visible">
      <path
         inkscape:connector-curvature="0"
         id="path4841"
         d="M 0,0 5,-5 -12.5,0 5,5 0,0 z"
         style="fill-rule:evenodd;stroke:#000000;stroke-width:1pt"
         transform="matrix(-0.2,0,0,-0.2,-1.2,0)" />
    </marker>
    <marker
       inkscape:stockid="Arrow1Send"
       orient="auto"
       refY="0"
       refX="0"
       id="Arrow1Send-3"
       style="overflow:visible">
      <path
         inkscape:connector-curvature="0"
         id="path3947-44"
         d="M 0,0 5,-5 -12.5,0 5,5 0,0 z"
         style="fill-rule:evenodd;stroke:#000000;stroke-width:1pt"
         transform="matrix(-0.2,0,0,-0.2,-1.2,0)" />
    </marker>
    <marker
       inkscape:stockid="Arrow1Send"
       orient="auto"
       refY="0"
       refX="0"
       id="Arrow1Send-705"
       style="overflow:visible">
      <path
         inkscape:connector-curvature="0"
         id="path3947-90"
         d="M 0,0 5,-5 -12.5,0 5,5 0,0 z"
         style="fill-rule:evenodd;stroke:#000000;stroke-width:1pt"
         transform="matrix(-0.2,0,0,-0.2,-1.2,0)" />
    </marker>
    <marker
       inkscape:stockid="Arrow1Send"
       orient="auto"
       refY="0"
       refX="0"
       id="Arrow1Send-5"
       style="overflow:visible">
      <path
         inkscape:connector-curvature="0"
         id="path3947-80"
         d="M 0,0 5,-5 -12.5,0 5,5 0,0 z"
         style="fill-rule:evenodd;stroke:#000000;stroke-width:1pt"
         transform="matrix(-0.2,0,0,-0.2,-1.2,0)" />
    </marker>
    <marker
       inkscape:stockid="Arrow1Send"
       orient="auto"
       refY="0"
       refX="0"
       id="Arrow1Send-738"
       style="overflow:visible">
      <path
         inkscape:connector-curvature="0"
         id="path3947-49"
         d="M 0,0 5,-5 -12.5,0 5,5 0,0 z"
         style="fill-rule:evenodd;stroke:#000000;stroke-width:1pt"
         transform="matrix(-0.2,0,0,-0.2,-1.2,0)" />
    </marker>
    <marker
       inkscape:stockid="Arrow1Send"
       orient="auto"
       refY="0"
       refX="0"
       id="Arrow1Send-88"
       style="overflow:visible">
      <path
         inkscape:connector-curvature="0"
         id="path3947-18"
         d="M 0,0 5,-5 -12.5,0 5,5 0,0 z"
         style="fill-rule:evenodd;stroke:#000000;stroke-width:1pt"
         transform="matrix(-0.2,0,0,-0.2,-1.2,0)" />
    </marker>
    <marker
       inkscape:stockid="Arrow1Send"
       orient="auto"
       refY="0"
       refX="0"
       id="marker3075"
       style="overflow:visible">
      <path
         inkscape:connector-curvature="0"
         id="path3077"
         d="M 0,0 5,-5 -12.5,0 5,5 0,0 z"
         style="fill-rule:evenodd;stroke:#000000;stroke-width:1pt"
         transform="matrix(-0.2,0,0,-0.2,-1.2,0)" />
    </marker>
    <marker
       inkscape:stockid="Arrow1Send"
       orient="auto"
       refY="0"
       refX="0"
       id="marker3079"
       style="overflow:visible">
      <path
         inkscape:connector-curvature="0"
         id="path3081"
         d="M 0,0 5,-5 -12.5,0 5,5 0,0 z"
         style="fill-rule:evenodd;stroke:#000000;stroke-width:1pt"
         transform="matrix(-0.2,0,0,-0.2,-1.2,0)" />
    </marker>
    <marker
       inkscape:stockid="Arrow1Send"
       orient="auto"
       refY="0"
       refX="0"
       id="marker3083"
       style="overflow:visible">
      <path
         inkscape:connector-curvature="0"
         id="path3085"
         d="M 0,0 5,-5 -12.5,0 5,5 0,0 z"
         style="fill-rule:evenodd;stroke:#000000;stroke-width:1pt"
         transform="matrix(-0.2,0,0,-0.2,-1.2,0)" />
    </marker>
    <marker
       inkscape:stockid="Arrow1Send"
       orient="auto"
       refY="0"
       refX="0"
       id="marker3087"
       style="overflow:visible">
      <path
         inkscape:connector-curvature="0"
         id="path3089"
         d="M 0,0 5,-5 -12.5,0 5,5 0,0 z"
         style="fill-rule:evenodd;stroke:#000000;stroke-width:1pt"
         transform="matrix(-0.2,0,0,-0.2,-1.2,0)" />
    </marker>
    <marker
       inkscape:stockid="Arrow1Send"
       orient="auto"
       refY="0"
       refX="0"
       id="marker3091"
       style="overflow:visible">
      <path
         inkscape:connector-curvature="0"
         id="path3093"
         d="M 0,0 5,-5 -12.5,0 5,5 0,0 z"
         style="fill-rule:evenodd;stroke:#000000;stroke-width:1pt"
         transform="matrix(-0.2,0,0,-0.2,-1.2,0)" />
    </marker>
    <marker
       inkscape:stockid="Arrow1Send"
       orient="auto"
       refY="0"
       refX="0"
       id="marker3095"
       style="overflow:visible">
      <path
         inkscape:connector-curvature="0"
         id="path3097"
         d="M 0,0 5,-5 -12.5,0 5,5 0,0 z"
         style="fill-rule:evenodd;stroke:#000000;stroke-width:1pt"
         transform="matrix(-0.2,0,0,-0.2,-1.2,0)" />
    </marker>
    <marker
       inkscape:stockid="Arrow1Send"
       orient="auto"
       refY="0"
       refX="0"
       id="marker3099"
       style="overflow:visible">
      <path
         inkscape:connector-curvature="0"
         id="path3101"
         d="M 0,0 5,-5 -12.5,0 5,5 0,0 z"
         style="fill-rule:evenodd;stroke:#000000;stroke-width:1pt"
         transform="matrix(-0.2,0,0,-0.2,-1.2,0)" />
    </marker>
    <marker
       inkscape:stockid="Arrow1Send"
       orient="auto"
       refY="0"
       refX="0"
       id="marker3103"
       style="overflow:visible">
      <path
         inkscape:connector-curvature="0"
         id="path3105"
         d="M 0,0 5,-5 -12.5,0 5,5 0,0 z"
         style="fill-rule:evenodd;stroke:#000000;stroke-width:1pt"
         transform="matrix(-0.2,0,0,-0.2,-1.2,0)" />
    </marker>
    <marker
       inkscape:stockid="Arrow1Send"
       orient="auto"
       refY="0"
       refX="0"
       id="Arrow1Send-1"
       style="overflow:visible">
      <path
         id="path3947-42"
         d="M 0,0 5,-5 -12.5,0 5,5 0,0 z"
         style="fill-rule:evenodd;stroke:#000000;stroke-width:1pt"
         transform="matrix(-0.2,0,0,-0.2,-1.2,0)"
         inkscape:connector-curvature="0" />
    </marker>
    <marker
       inkscape:stockid="Arrow1Send"
       orient="auto"
       refY="0"
       refX="0"
       id="Arrow1Send-499"
       style="overflow:visible">
      <path
         id="path3947-67"
         d="M 0,0 5,-5 -12.5,0 5,5 0,0 z"
         style="fill-rule:evenodd;stroke:#000000;stroke-width:1pt"
         transform="matrix(-0.2,0,0,-0.2,-1.2,0)"
         inkscape:connector-curvature="0" />
    </marker>
  </defs>
  <sodipodi:namedview
     pagecolor="#ffffff"
     bordercolor="#666666"
     borderopacity="1"
     objecttolerance="10"
     gridtolerance="10"
     guidetolerance="10"
     inkscape:pageopacity="0"
     inkscape:pageshadow="2"
     inkscape:window-width="1600"
     inkscape:window-height="824"
     id="namedview163"
     showgrid="false"
     inkscape:zoom="0.76"
     inkscape:cx="335.27294"
     inkscape:cy="444.4915"
     inkscape:window-x="0"
     inkscape:window-y="24"
     inkscape:window-maximized="1"
     inkscape:current-layer="graph0"
     fit-margin-top="0"
     fit-margin-left="0"
     fit-margin-right="0"
     fit-margin-bottom="0" />
  <g
     id="graph0"
     class="graph"
     transform="translate(-60.791082,353.51882)">
    <title
       id="title5">graph_output</title>
    <!-- 18281271252100618662 -->
    <!-- 8104638048253350837 -->
    <path
       style="opacity:0.62100000000000000;fill:#808080;fill-opacity:1;stroke:#000000;stroke-width:4;stroke-miterlimit:4;stroke-dasharray:none;stroke-opacity:1"
       inkscape:connector-curvature="0"
       id="path19"
       d="m 875.45588,82.044297 c 0,0 -347.33226,0 -347.33226,0 -11.26483,0 -22.52966,23.731243 -22.52966,47.462493 0,0 0,47.4625 0,47.4625 0,23.73124 11.26483,47.46249 22.52966,47.46249 0,0 347.33226,0 347.33226,0 11.26484,0 22.52967,-23.73125 22.52967,-47.46249 0,0 0,-47.4625 0,-47.4625 0,-23.73125 -11.26483,-47.462493 -22.52967,-47.462493" />
    <text
       style="font-size:36.43855666999999698px;text-anchor:middle;opacity:0.62100000000000000;fill:#808080;fill-opacity:1;stroke-width:2.35230302999999985;stroke-miterlimit:4;stroke-dasharray:none;font-family:'Times,serif';stroke:#000000;stroke-opacity:1"
       id="text21"
       font-size="14.00"
       y="110.46961"
       x="1040.3005"
       transform="scale(0.65805744,1.5196242)" />
    <!-- 18281271252100618662&#45;&gt;8104638048253350837 -->
    <!-- 6812949046131294349 -->
    <path
       style="opacity:0.62100000000000000;fill:#808080;fill-opacity:1;stroke:#000000;stroke-width:4;stroke-miterlimit:4;stroke-dasharray:none"
       inkscape:connector-curvature="0"
       id="path33"
       d="m 569.36979,-200.27165 c 0,0 -324.81095,0 -324.81095,0 -11.46391,0 -22.92783,11.65969 -22.92783,23.31938 0,0 0,23.31938 0,23.31938 0,11.6597 11.46392,23.31939 22.92783,23.31939 0,0 324.81095,0 324.81095,0 11.4639,0 22.92783,-11.65969 22.92783,-23.31939 0,0 0,-23.31938 0,-23.31938 0,-11.65969 -11.46393,-23.31938 -22.92783,-23.31938" />
    <!-- 18281271252100618662&#45;&gt;6812949046131294349 -->
    <g
       id="edge2"
       class="edge">
      <title
         id="title38">18281271252100618662-&gt;6812949046131294349</title>
    </g>
    <!-- 13080825001612736941 -->
    <!-- 8104638048253350837&#45;&gt;13080825001612736941 -->
    <!-- 4151992980388096987 -->
    <!-- 8104638048253350837&#45;&gt;4151992980388096987 -->
    <!-- 9793423270683058164 -->
    <path
       style="fill:#ffffff;stroke:#000000;stroke-width:4;stroke-miterlimit:4;stroke-dasharray:none"
       inkscape:connector-curvature="0"
       id="path75"
       d="m 411.58265,-88.736546 c 0,0 -323.459308,0 -323.459308,0 -10.161026,0 -20.322052,10.129495 -20.322052,20.25899 0,0 0,20.258991 0,20.258991 0,10.129495 10.161026,20.25899 20.322052,20.25899 0,0 323.459308,0 323.459308,0 10.16104,0 20.32206,-10.129495 20.32206,-20.25899 0,0 0,-20.258991 0,-20.258991 0,-10.129495 -10.16102,-20.25899 -20.32206,-20.25899" />
    <!-- 6812949046131294349&#45;&gt;9793423270683058164 -->
    <!-- 13686169344497402900 -->
    <g
       id="node7"
       class="node"
       transform="matrix(1.8088113,0,0,1.6882492,-75.355391,215.14831)"
       style="stroke-width:2.28899625999999978;stroke-miterlimit:4;stroke-dasharray:none;fill:#808080;fill-opacity:1;opacity:0.621">
      <title
         id="title87">13686169344497402900</title>
      <text
         x="377.5"
         y="-158.3"
         font-size="14.00"
         id="text91"
         style="font-size:14px;text-anchor:middle;font-family:'Times,serif';stroke-width:2.28899625999999978;stroke-miterlimit:4;stroke-dasharray:none;fill:#808080;fill-opacity:1" />
    </g>
    <!-- 6812949046131294349&#45;&gt;13686169344497402900 -->
    <!-- 4151992980388096987&#45;&gt;8104638048253350837 -->
    <!-- 12723286500395325711 -->
    <path
       style="fill:#ffffff;stroke:#000000;stroke-width:3.7039001;stroke-miterlimit:4;stroke-dasharray:none"
       inkscape:connector-curvature="0"
       id="path110"
       d="m 480.66508,-2.3826036 c 0,0 -283.05554,0 -283.05554,0 -13.8076,0 -27.61519,10.1294952 -27.61519,20.2589906 0,0 0,20.25899 0,20.25899 0,10.129495 13.80759,20.258991 27.61519,20.258991 0,0 283.05554,0 283.05554,0 13.80758,0 27.61516,-10.129496 27.61516,-20.258991 0,0 0,-20.25899 0,-20.25899 0,-10.1294954 -13.80758,-20.2589906 -27.61516,-20.2589906" />
    <text
       style="font-size:24.13100243px;text-anchor:middle;stroke-width:2.32066607;stroke-miterlimit:4;stroke-dasharray:none;font-family:'Times,serif'"
       id="text112"
       font-size="14.00"
       y="34.970493"
       x="311.08255"
       transform="scale(1.0209648,0.97946565)" />
    <!-- 9793423270683058164&#45;&gt;12723286500395325711 -->
    <!-- 13686169344497402900&#45;&gt;6812949046131294349 -->
    <!-- 15027130736822862391 -->
    <path
       style="fill:#ffffff;stroke:#000000;stroke-width:4;stroke-miterlimit:4;stroke-dasharray:none"
       inkscape:connector-curvature="0"
       id="path131"
       d="m 443.70626,78.825454 c 0,0 -338.58496,0 -338.58496,0 -6.328695,0 -12.657374,21.239536 -12.657374,42.479066 0,0 0,42.47906 0,42.47906 0,21.23953 6.328679,42.47906 12.657374,42.47906 0,0 338.58496,0 338.58496,0 6.32869,0 12.65737,-21.23953 12.65737,-42.47906 0,0 0,-42.47906 0,-42.47906 0,-21.23953 -6.32868,-42.479066 -12.65737,-42.479066" />
    <text
       style="font-size:21.4237957px;text-anchor:middle;stroke-width:2.61391592;stroke-miterlimit:4;stroke-dasharray:none;font-family:'Times,serif'"
       id="text133"
       font-size="14.00"
       y="118.13529"
       x="414.19846"
       transform="scale(1.0774237,0.92813993)">
      <tspan
         id="tspan4500"
         style="font-style:normal;font-variant:normal;font-weight:normal;font-stretch:normal;stroke-width:2.61391592;stroke-miterlimit:4;stroke-dasharray:none;font-family:Arial;-inkscape-font-specification:Arial" />
    </text>
    <!-- 15027130736822862391&#45;&gt;13080825001612736941 -->
    <!-- 15027130736822862391&#45;&gt;4151992980388096987 -->
    <!-- 12723286500395325711&#45;&gt;13080825001612736941 -->
    <!-- 12723286500395325711&#45;&gt;4151992980388096987 -->
    <path
       style="fill:#ffffff;stroke:#000000;stroke-width:4;stroke-miterlimit:4;stroke-dasharray:none"
       inkscape:connector-curvature="0"
       id="path12"
       d="m 527.77393,-350.34446 c 0,0 -297.84849,0 -297.84849,0 -7.70298,0 -15.40595,19.04616 -15.40595,38.09232 0,0 0,38.09232 0,38.09232 0,19.04616 7.70297,38.09232 15.40595,38.09232 0,0 297.84849,0 297.84849,0 7.70298,0 15.40596,-19.04616 15.40596,-38.09232 0,0 0,-38.09232 0,-38.09232 0,-19.04616 -7.70298,-38.09232 -15.40596,-38.09232" />
    <text
       style="font-size:28.26245117px;text-anchor:middle;stroke-width:1.98142755;stroke-miterlimit:4;stroke-dasharray:none;font-family:'Times,serif'"
       id="text14"
       font-size="14.00"
       y="-178.99609"
       x="595.71881"
       transform="scale(0.63595388,1.5724411)" />
    <path
       style="fill:none;stroke:#000000;stroke-width:5.84244633;stroke-linecap:butt;stroke-linejoin:miter;stroke-miterlimit:4;stroke-opacity:1;stroke-dasharray:none;marker-end:url(#Arrow1Send)"
       d="m 411.55833,-237.8249 0.29225,26.98242"
       id="path3158-2"
       inkscape:connector-curvature="0"
       sodipodi:nodetypes="cc" />
    <path
       style="fill:none;stroke:#000000;stroke-width:5.84244633;stroke-linecap:butt;stroke-linejoin:miter;stroke-miterlimit:4;stroke-opacity:1;stroke-dasharray:none;marker-end:url(#Arrow1Send)"
       d="m 317.41779,-127.49124 -33.60581,33.301049"
       id="path3158-2-2"
       inkscape:connector-curvature="0"
       sodipodi:nodetypes="cc" />
    <path
       style="fill:none;stroke:#000000;stroke-width:5.84244633;stroke-linecap:butt;stroke-linejoin:miter;stroke-miterlimit:4;stroke-opacity:1;stroke-dasharray:none;marker-end:url(#Arrow1Send)"
       d="m 277.89919,-38.340503 -0.6439,44.086858"
       id="path3158-2-2-0"
       inkscape:connector-curvature="0"
       sodipodi:nodetypes="cc" />
    <path
       style="fill:none;stroke:#000000;stroke-width:5.84244633;stroke-linecap:butt;stroke-linejoin:miter;stroke-miterlimit:4;stroke-opacity:1;stroke-dasharray:none;marker-end:url(#Arrow1Send)"
       d="m 459.11322,148.57896 37.41351,0.12713"
       id="path3158-1"
       inkscape:connector-curvature="0"
       sodipodi:nodetypes="cc" />
    <path
       style="fill:#ffffff;stroke:#000000;stroke-width:4;stroke-miterlimit:4;stroke-dasharray:none"
       inkscape:connector-curvature="0"
       id="path47"
       d="m 420.14918,251.36799 c 0,0 -317.51588,0 -317.51588,0 -6.287447,0 -12.57489,15.57598 -12.57489,31.15196 0,0 0,31.15196 0,31.15196 0,15.57597 6.287443,31.15195 12.57489,31.15195 0,0 317.51588,0 317.51588,0 6.28746,0 12.57489,-15.57598 12.57489,-31.15195 0,0 0,-31.15196 0,-31.15196 0,-15.57598 -6.28743,-31.15196 -12.57489,-31.15196" />
    <text
       style="font-size:20.93388748px;font-style:normal;font-variant:normal;font-weight:normal;font-stretch:normal;text-anchor:middle;stroke-width:2.67508864;stroke-miterlimit:4;stroke-dasharray:none;font-family:Arial;-inkscape-font-specification:Arial"
       id="text49"
       font-size="14.00"
       y="317.27954"
       x="290.79077"
       transform="scale(1.1331276,0.88251311)" />
    <text
       xml:space="preserve"
       style="font-size:24px;font-style:normal;font-variant:normal;font-weight:normal;font-stretch:normal;text-align:start;line-height:125%;letter-spacing:0px;word-spacing:0px;writing-mode:lr-tb;text-anchor:start;fill:#000000;fill-opacity:1;stroke:none;font-family:Arial;-inkscape-font-specification:Arial"
       x="102.87272"
       y="274.50668"
       id="text4493"
       sodipodi:linespacing="125%"><tspan
         sodipodi:role="line"
         id="tspan4495"
         x="102.87272"
         y="274.50668">pkt.next_hop = pkt.tmp2 ?</tspan><tspan
         sodipodi:role="line"
         x="102.87272"
         y="304.50668"
         id="tspan4497">                         pkt.new_hop :</tspan><tspan
         sodipodi:role="line"
         x="102.87272"
         y="334.50668"
         id="tspan4499">                         pkt.saved_hop</tspan></text>
    <path
       style="fill:none;stroke:#000000;stroke-width:5.84244633;stroke-linecap:butt;stroke-linejoin:miter;stroke-miterlimit:4;stroke-opacity:1;stroke-dasharray:none;marker-end:url(#Arrow1Send)"
       d="M 582.36628,224.44309 438.96606,312.18633"
       id="path3158-1-5"
       inkscape:connector-curvature="0"
       sodipodi:nodetypes="cc" />
    <path
       style="fill:none;stroke:#000000;stroke-width:7.78791714;stroke-linecap:butt;stroke-linejoin:miter;stroke-miterlimit:4;stroke-opacity:1;stroke-dasharray:none;marker-end:url(#Arrow1Send)"
       d="m 547.80712,-298.2283 c 282.1957,114.24138 312.79774,260.694052 196.64984,373.747511"
       id="path3158-4"
       inkscape:connector-curvature="0"
       sodipodi:nodetypes="cc" />
    <path
       style="fill:none;stroke:#000000;stroke-width:5.84244633;stroke-linecap:butt;stroke-linejoin:miter;stroke-miterlimit:4;stroke-opacity:1;stroke-dasharray:none;marker-end:url(#Arrow1Send)"
       d="m 296.99312,206.4664 0.85611,38.4374"
       id="path3158-1-5-3"
       inkscape:connector-curvature="0"
       sodipodi:nodetypes="cc" />
    <path
       style="fill:none;stroke:#000000;stroke-width:5.84244633;stroke-linecap:butt;stroke-linejoin:miter;stroke-miterlimit:4;stroke-opacity:1;stroke-dasharray:none;marker-end:url(#Arrow1Send)"
       d="M 165.53826,30.466545 C 92.553485,30.867498 72.107896,107.32066 70.939262,138.42258 69.554083,175.28763 85.97817,230.12382 157.39955,249.01065"
       id="path3158-1-5-3-5"
       inkscape:connector-curvature="0"
       sodipodi:nodetypes="csc" />
    <text
       xml:space="preserve"
       style="font-size:24px;font-style:normal;font-variant:normal;font-weight:normal;font-stretch:normal;text-align:start;line-height:125%;letter-spacing:0px;word-spacing:0px;writing-mode:lr-tb;text-anchor:start;fill:#000000;fill-opacity:1;stroke:none;font-family:Arial;-inkscape-font-specification:Arial"
       x="517.0224"
       y="146.85013"
       id="text4501"
       sodipodi:linespacing="125%"><tspan
         sodipodi:role="line"
         id="tspan4503"
         x="517.0224"
         y="146.85013">saved_hop[pkt.id] = pkt.tmp2?</tspan><tspan
         sodipodi:role="line"
         x="517.0224"
         y="176.85013"
         id="tspan4505">                                pkt.new_hop :</tspan><tspan
         sodipodi:role="line"
         x="517.0224"
         y="206.85013"
         id="tspan4507">                                pkt.saved_hop</tspan></text>
    <text
       xml:space="preserve"
       style="font-size:67.19999695px;font-style:normal;font-variant:normal;font-weight:normal;font-stretch:normal;text-align:start;line-height:125%;letter-spacing:0px;word-spacing:0px;writing-mode:lr-tb;text-anchor:start;fill:#000000;fill-opacity:1;stroke:none;font-family:Arial;-inkscape-font-specification:Sans"
       x="223.10883"
       y="-317.80362"
       id="text3169"
       sodipodi:linespacing="125%"><tspan
         sodipodi:role="line"
         id="tspan3171"
         x="223.10883"
         y="-317.80362"
         style="font-size:24px">pkt.id = hash2(pkt.sport,</tspan><tspan
         sodipodi:role="line"
         x="223.10883"
         y="-287.80362"
         id="tspan3173"
         style="font-size:24px">                        pkt.dport)</tspan><tspan
         sodipodi:role="line"
         x="223.10883"
         y="-257.80362"
         id="tspan3175"
         style="font-size:24px">             % NUM_FLOWLETS</tspan></text>
    <text
       xml:space="preserve"
       style="font-size:24px;font-style:normal;font-variant:normal;font-weight:normal;font-stretch:normal;text-align:start;line-height:125%;letter-spacing:0px;word-spacing:0px;writing-mode:lr-tb;text-anchor:start;fill:#000000;fill-opacity:1;stroke:none;font-family:Arial;-inkscape-font-specification:Arial"
       x="239.86833"
       y="-172.51894"
       id="text4425"
       sodipodi:linespacing="125%"><tspan
         sodipodi:role="line"
         id="tspan4427"
         x="239.86833"
         y="-172.51894">pkt.last_time = last_time[pkt.id]</tspan></text>
    <text
       xml:space="preserve"
       style="font-size:24px;font-style:normal;font-variant:normal;font-weight:normal;font-stretch:normal;text-align:start;line-height:125%;letter-spacing:0px;word-spacing:0px;writing-mode:lr-tb;text-anchor:start;fill:#000000;fill-opacity:1;stroke:none;font-family:Arial;-inkscape-font-specification:Arial"
       x="70.711685"
       y="-52.767471"
       id="text4467"
       sodipodi:linespacing="125%"><tspan
         sodipodi:role="line"
         id="tspan4469"
         x="70.711685"
         y="-52.767471">pkt.tmp = pkt.arrival -pkt.last_time</tspan></text>
    <text
       xml:space="preserve"
       style="font-size:24px;font-style:normal;font-variant:normal;font-weight:normal;font-stretch:normal;text-align:start;line-height:125%;letter-spacing:0px;word-spacing:0px;writing-mode:lr-tb;text-anchor:start;fill:#000000;fill-opacity:1;stroke:none;font-family:Arial;-inkscape-font-specification:Arial"
       x="257.80688"
       y="-146.07933"
       id="text4471"
       sodipodi:linespacing="125%"><tspan
         sodipodi:role="line"
         id="tspan4473"
         x="257.80688"
         y="-146.07933">last_time[pkt.id] = pkt.arrival</tspan></text>
    <text
       xml:space="preserve"
       style="font-size:24px;font-style:normal;font-variant:normal;font-weight:normal;font-stretch:normal;text-align:start;line-height:125%;letter-spacing:0px;word-spacing:0px;writing-mode:lr-tb;text-anchor:start;fill:#000000;fill-opacity:1;stroke:none;font-family:Arial;-inkscape-font-specification:Arial"
       x="178.69188"
       y="38.646358"
       id="text4475"
       sodipodi:linespacing="125%"><tspan
         sodipodi:role="line"
         id="tspan4477"
         x="178.69188"
         y="38.646358">pkt.tmp2 = pkt.tmp &gt; THRESH</tspan></text>
    <text
       xml:space="preserve"
       style="font-size:24px;font-style:normal;font-variant:normal;font-weight:normal;font-stretch:normal;text-align:start;line-height:125%;letter-spacing:0px;word-spacing:0px;writing-mode:lr-tb;text-anchor:start;fill:#000000;fill-opacity:1;stroke:none;font-family:Arial;-inkscape-font-specification:Arial"
       x="101.77298"
       y="104.04986"
       id="text4479"
       sodipodi:linespacing="125%"><tspan
         sodipodi:role="line"
         id="tspan4481"
         x="101.77298"
         y="104.04986">pkt.new_hop = hash3(pkt.sport,</tspan><tspan
         sodipodi:role="line"
         x="101.77298"
         y="134.04987"
         id="tspan4483">                                    pkt.dport,</tspan><tspan
         sodipodi:role="line"
         x="101.77298"
         y="164.04987"
         id="tspan4485">                                    pkt.arrival)</tspan><tspan
         sodipodi:role="line"
         x="101.77298"
         y="194.04987"
         id="tspan4487">                         % NUM_HOPS</tspan></text>
    <text
       xml:space="preserve"
       style="font-size:24px;font-style:normal;font-variant:normal;font-weight:normal;font-stretch:normal;text-align:start;line-height:125%;letter-spacing:0px;word-spacing:0px;writing-mode:lr-tb;text-anchor:start;fill:#000000;fill-opacity:1;stroke:none;font-family:Arial;-inkscape-font-specification:Arial"
       x="516.0838"
       y="118.70417"
       id="text4489"
       sodipodi:linespacing="125%"><tspan
         sodipodi:role="line"
         id="tspan4491"
         x="516.0838"
         y="118.70417">pkt.saved_hop = saved_hop[pkt.id]</tspan></text>
    <path
       style="fill:none;stroke:#000000;stroke-width:5.84244633;stroke-linecap:butt;stroke-linejoin:miter;stroke-miterlimit:4;stroke-opacity:1;stroke-dasharray:none;marker-end:url(#Arrow1Send)"
       d="m 508.60121,27.817442 98.46615,48.548183"
       id="path3158-1-8"
       inkscape:connector-curvature="0"
       sodipodi:nodetypes="cc" />
  </g>
</svg>
